<svg xmlns="http://www.w3.org/2000/svg" width="1665" height="1749" viewBox="623.45 79.834 1665 1749" xml:space="preserve"><linearGradient id="a" gradientUnits="userSpaceOnUse" x1="726.116" y1="625.224" x2="2173.854" y2="1495.113"><stop offset="0" style="stop-color:#a11d22"/><stop offset=".333" style="stop-color:#9e1d21"/><stop offset=".636" style="stop-color:#961b1e"/><stop offset=".927" style="stop-color:#88171a"/><stop offset="1" style="stop-color:#831618"/></linearGradient><path fill="url(#a)" d="M1949.807 392.834c-107.224-87.472-348.894-42.602-478.131-10.036-93.516 23.565-151.979-39.19-243.667-43.766-411.215-20.521-561.94 342.82-590.198 564.977-36.427 286.377 77.994 560.607 267.911 771.747 112.597 125.179 254.088 177.175 422.444 140.342 85.714-15.729 167.509-22.17 255.41-13.988 78.92 7.365 308.672 124.815 527.641-204.556 125.903-189.383 197.52-458.287 170.734-674.363-29.597-238.757-128.573-364.286-332.144-530.357z"/><linearGradient id="b" gradientUnits="userSpaceOnUse" x1="887.114" y1="425.886" x2="1548.033" y2="1159.91"><stop offset=".2" style="stop-color:#fff"/><stop offset=".746" style="stop-color:#fff;stop-opacity:0"/></linearGradient><linearGradient id="c" gradientUnits="userSpaceOnUse" x1="887.114" y1="425.886" x2="1548.033" y2="1159.91"><stop offset=".206" style="stop-color:#c72f27"/><stop offset="1" style="stop-color:#c72f27;stop-opacity:0"/></linearGradient><path fill="url(#c)" d="M1868.639 359.312c-129.825-47.89-274.869-9.08-404.106 23.486-93.516 23.565-151.979-39.19-243.667-43.766-411.215-20.521-561.94 342.82-590.198 564.977-35.382 278.167 71.565 544.866 251.772 753.426 14.125-.385 28.111-2.658 41.484-7.26 33.646 3.041 67.301-3.229 97.662-21.926 44.021-27.109 73.055-72.449 95.609-117.762 25.225-50.676 43.852-104.357 63.245-157.434 4.548-12.449 9.176-24.867 13.99-37.217a996.9 996.9 0 0 1 6.814-17c.354-.859.713-1.717 1.07-2.574.278-.662.605-1.439.761-1.803a622.361 622.361 0 0 1 4.082-9.318c11.005-24.643 24.584-47.18 39.644-69.553 23.173-34.428 47.157-64.412 75.578-95.426 27.472-29.977 57.174-57.875 88.482-83.805 29.476-24.412 61.349-47.143 95.483-68.774 34.295-21.734 69.92-41.332 106.363-59.215 18.391-9.025 37.035-17.532 55.84-25.66 7.541-3.259 14.576-6.175 24.148-10.047 9.967-4.033 19.988-7.924 30.043-11.732 36.959-13.998 74.475-26.338 112.252-37.918 70.588-21.639 143.967-44.597 196.572-99.294 30.65-31.868 52.162-72.962 63.32-115.575 5.586-21.337 7.967-43.233 7.543-65.096-61.87-82.732-140.111-149.178-233.786-183.734z"/><linearGradient id="d" gradientUnits="userSpaceOnUse" x1="966.875" y1="467.097" x2="1086.442" y2="637.856"><stop offset="0" style="stop-color:#ea5331"/><stop offset=".976" style="stop-color:#ea5331;stop-opacity:0"/></linearGradient><path fill="url(#d)" d="M1268.133 471.718c-4.13-104.149-216.382-48.549-264.214-25.224-75.656 36.893-226.749 156.408-178.216 258.441 58.792 123.599 200.229-32.364 248.139-75.505 24.404-21.975 49.859-42.605 77.269-60.737 34.502-22.823 119.085-44.954 117.022-96.975-.577-14.565.522 13.167 0 0z"/><linearGradient id="e" gradientUnits="userSpaceOnUse" x1="698.399" y1="950.979" x2="806.949" y2="976.04"><stop offset="0" style="stop-color:#ea5331"/><stop offset=".976" style="stop-color:#ea5331;stop-opacity:0"/></linearGradient><path fill="url(#e)" d="M799.21 779.461c-88.841-13.212-148.631 320.785-71.675 369.617 67.324 42.719 36.712-86.213 57.826-164.286 21.115-78.074 72.489-196.587 13.849-205.331-.095-.014 12.53 1.869 0 0z"/><linearGradient id="f" gradientUnits="userSpaceOnUse" x1="1916.827" y1="1723.486" x2="1613.418" y2="1273.664" gradientTransform="rotate(2.144 1707.714 1372.976)"><stop offset=".206" style="stop-color:#5c110f"/><stop offset=".976" style="stop-color:#5c110f;stop-opacity:0"/></linearGradient><path fill="url(#f)" d="M2148.036 941.194c-35.531 11.57-52.566 91.926-121.535 203.202-31.578 50.949-92.575 109.866-141.999 152.91-81.048 70.588-192.34 121.867-303.278 155.542-117.598 35.073-258.81 47.508-344.143 129.088-42.637 40.762-71.784 90.417-89.575 141.831-25.72 74.325 89.901 38.736 133.921 29.505 70.819-14.852 144.455-20.117 217.456-11.041 72.958 9.069 144.631 25.263 218.886 23.327 135.04-3.522 242.801-47.408 331.819-148.554 89.018-101.144 157.151-297.438 175.627-399.376 18.473-101.938.814-301.829-77.179-276.434z"/><linearGradient id="g" gradientUnits="userSpaceOnUse" x1="1725.205" y1="321.728" x2="1651.803" y2="595.668"><stop offset="0" style="stop-color:#a11d22"/><stop offset=".497" style="stop-color:#a01d21"/><stop offset=".711" style="stop-color:#9a1c20"/><stop offset=".87" style="stop-color:#901a1d"/><stop offset="1" style="stop-color:#831618"/></linearGradient><path fill="url(#g)" d="M1943.001 385.028c-17.09-27.953-84.646 20.322-104.603 28.737-43.794 17.935-94.591 25.343-141.205 32.211-43.637 6.438-88.121 6.49-132.109 8.229-46.269 1.829-106.063-10.21-137.769 21.495-21.003 21.006 85.149 79.398 96.411 83.985 56.308 22.935 125.741 20.31 185.029 13.783 64.823-7.136 299.154-82.287 234.246-188.44-4.166-6.814 7.037 11.507 0 0z"/><linearGradient id="h" gradientUnits="userSpaceOnUse" x1="1719.682" y1="152.065" x2="1839.163" y2="480.336"><stop offset="0" style="stop-color:#4aa346"/><stop offset=".399" style="stop-color:#3b9945"/><stop offset=".812" style="stop-color:#238c43"/></linearGradient><path fill="url(#h)" d="M2100.93 88.8c-199.454-31.85-314.054 33.824-402.15 99.961-109.953 82.545-315.431 298.682-258.124 307.886 152.241 24.449 303.081 46.348 438.933-40.99 111.94-71.966 246.213-212.808 230.343-355.067-.925-8.283 1.583-10.099-9.002-11.79z"/><linearGradient id="i" gradientUnits="userSpaceOnUse" x1="1723.86" y1="282.278" x2="1841.803" y2="478.568"><stop offset="0" style="stop-color:#238c43"/><stop offset=".489" style="stop-color:#208640"/><stop offset="1" style="stop-color:#1e813e"/></linearGradient><path fill="url(#i)" d="M1879.588 455.656c83.678-53.795 179.824-146.081 216.416-248.672-15.349 15.107-29.819 31.113-44.318 47.019-17.08 18.738-34.188 37.381-53.407 53.971-19.982 17.248-41.005 32.118-64.262 46.33-47.075 28.769-96.496 49.755-148.608 66.711-55.22 17.966-112.709 31.937-170.423 38.626-27.115 3.144-54.294 4.972-81.585 4.345-11.327-.26-22.592-.416-33.876.445 20.137-15.624 40.627-30.806 61.109-45.936 24.792-18.315 50.129-35.958 74.466-54.875 23.558-18.31 47.629-35.979 71.929-53.289 30.771-21.919 62.333-42.605 95.149-61.344a1000.929 1000.929 0 0 1 50.041-26.722c8.516-4.242 16.533-9.416 25.145-13.504 9.234-4.384 18.561-8.575 27.947-12.622 3.967-1.71 1.071-8.602-2.95-6.997-27.544 10.993-54.921 22.472-81.118 36.385-25.998 13.807-51.345 28.862-76.391 44.317-50.905 31.412-99.486 66.292-150.098 98.121-56.351 35.438-112.419 71.189-163.685 113.498-1.327 8.514 1.537 13.89 9.586 15.183 152.242 24.45 303.082 46.349 438.933-40.99z"/><linearGradient id="j" gradientUnits="userSpaceOnUse" x1="1770.744" y1="158.474" x2="1810.876" y2="248.612"><stop offset="0" style="stop-color:#60bb48"/><stop offset="1" style="stop-color:#60bb48;stop-opacity:0"/></linearGradient><path fill="url(#j)" d="M2078.378 102.799c-70.789-6.187-141.655-10.221-209.069 14.186-105.928 38.349-139.394 70.692-167.717 95.492-373.292 326.864-43.15 68.096 142.328-42.983 77.315-46.303 132.916-46.066 171.561-50.578 3.465-.404 78.099-14.788 62.897-16.117-6.81-.595 5.565.487 0 0z"/><linearGradient id="k" gradientUnits="userSpaceOnUse" x1="1412.945" y1="160.891" x2="1577.792" y2="396.317"><stop offset="0" style="stop-color:#59391d"/><stop offset=".475" style="stop-color:#52341a"/><stop offset=".994" style="stop-color:#472b15"/></linearGradient><path fill="url(#k)" d="M1592.934 112.521c-24.51-5.744-94.881-27.297-110.139 2.786-14.026 27.654-16.986 62.192-22.282 92.324-14.374 81.793-55.374 179.325-40.485 263.094 16.047 90.286 83.529-101.175 86.695-111.901 16.032-54.317 34.902-105.582 61.993-155.397 10.229-18.807 48.667-85.177 24.218-90.906-17.652-4.137 2.213.518 0 0-30.707-7.196 7.324 1.716 0 0z"/><path opacity=".33" fill="#C19864" d="M1592.938 112.521c1.133.266 1.403.329-.004-.001l-.293-.068.287.067c-24.516-5.746-94.876-27.293-110.133 2.787a118.195 118.195 0 0 0-2.851 6.066c14.975 11.769 47.867 18.276 56.18 19.654 14.547 2.412 45.584 7.142 62.771-2.876 3.513-13.165 3.049-23.515-5.957-25.629zm-1.707-.4-.56-.131 1.022.24-.462-.109zm-2.641-.619-.135-.031 1.487.348-.53-.124-.822-.193zm-.687-.161-1.304-.305 1.304.305zm-1.444-.338-.714-.167.714.167zm-5.658-1.326c-.034-.008-.033-.007 0 0z"/></svg>