<svg xmlns="http://www.w3.org/2000/svg" width="1784" height="1288" viewBox="643.283 298 1784 1288" xml:space="preserve"><linearGradient id="a" gradientUnits="userSpaceOnUse" x1="683.693" y1="1044.537" x2="1340.792" y2="512.429"><stop offset="0" style="stop-color:#cbc9c2"/><stop offset="1" style="stop-color:#ada899"/></linearGradient><path fill="url(#a)" d="m643.951 995.458 728.302-138.812-204.595-558.021-272.764 205.191z"/><linearGradient id="b" gradientUnits="userSpaceOnUse" x1="1667.105" y1="1607.33" x2="2244.104" y2="607.939"><stop offset="0" style="stop-color:#8b2e23"/><stop offset=".363" style="stop-color:#862b22"/><stop offset=".803" style="stop-color:#772420"/><stop offset="1" style="stop-color:#6e1f1f"/></linearGradient><path fill="url(#b)" d="m2336.528 1301.512-707.547 283.807V819.703L2336.528 661.3z"/><linearGradient id="c" gradientUnits="userSpaceOnUse" x1="643.553" y1="1418.408" x2="1662.301" y2="781.824"><stop offset="0" style="stop-color:#8b2e23"/><stop offset="1" style="stop-color:#a43637"/></linearGradient><path fill="url(#c)" d="m1628.981 819.679-140.662-316.284-317.829-196.924L906.318 506.46l-158.47 313.219.03.024h-.03v765.613h881.133V819.703h-.029z"/><path opacity=".5" fill="#6E1F1F" d="m2324.15 664.071-89.346 20.003L2176.283 489l-584.623 25.789 654.445-36.932-140.756-161.5-934.859-9.886-14.637 11.08L906.318 506.46l-158.47 313.219V858.5l172.268-339.417 251.066-191.813 304.869 193.291 219.652 566.566 640.825-186.697V693.314z"/><linearGradient id="d" gradientUnits="userSpaceOnUse" x1="1933.981" y1="456.555" x2="1995.35" y2="1040.445"><stop offset="0" style="stop-color:#e7e4db"/><stop offset=".393" style="stop-color:#e4e1d8"/><stop offset=".737" style="stop-color:#d9d6ce"/><stop offset="1" style="stop-color:#cbc9c2"/></linearGradient><path fill="url(#d)" d="M1488.319 503.395 2257.283 460l169.811 401.188-718.868 209.434z"/><linearGradient id="e" gradientUnits="userSpaceOnUse" x1="1706.767" y1="270.248" x2="1718.354" y2="491.34"><stop offset="0" style="stop-color:#e7e4db"/><stop offset=".393" style="stop-color:#e4e1d8"/><stop offset=".737" style="stop-color:#d9d6ce"/><stop offset="1" style="stop-color:#cbc9c2"/></linearGradient><path fill="url(#e)" d="m2257.283 460-768.964 43.395-317.829-196.924-2.813-7.971h948.851z"/><path fill="#8B2E23" d="M775.885 839.467H1587.885c.617 0 2.092-.935.795-.935h-812c-.617.001-2.092.935-.795.935zM953.93 521.632h466c.832 0 2.013-1.264.706-1.264h-466c-.832 0-2.013 1.264-.706 1.264z"/><path fill="#CBC9C2" d="M747.848 1209.429h881.133v375.891H747.848z"/><path fill="#ADA899" d="m2336.528 995.458-707.547 213.971v375.89l707.547-283.807zM1223.442 476.224a7.179 7.179 0 0 1-7.179 7.179h-97.171a7.179 7.179 0 0 1-7.179-7.179v-68.097a7.179 7.179 0 0 1 7.179-7.179h97.171a7.179 7.179 0 0 1 7.179 7.179v68.097z"/></svg>