<svg xmlns="http://www.w3.org/2000/svg" width="1354" height="1571" viewBox="835.469 37.944 1354 1571" xml:space="preserve"><linearGradient id="a" gradientUnits="userSpaceOnUse" x1="1510.459" y1="671.225" x2="1498.009" y2="314.694"><stop offset="0" style="stop-color:#371e05"/><stop offset=".381" style="stop-color:#432711"/><stop offset=".642" style="stop-color:#472b15"/></linearGradient><path fill="url(#a)" d="M2174.327 513.056c0-86.487-335.547-196.225-705.24-196.225-369.694 0-633.541 109.738-633.541 196.225 0 86.49 299.697 156.605 669.391 156.605 369.694 0 669.39-70.115 669.39-156.605z"/><linearGradient id="b" gradientUnits="userSpaceOnUse" x1="1575.725" y1="601.891" x2="2135.855" y2="386.877"><stop offset="0" style="stop-color:#83181a"/><stop offset=".626" style="stop-color:#991d21"/><stop offset="1" style="stop-color:#a11f24"/></linearGradient><path fill="url(#b)" d="M2151.876 430.31c-46.079-134.834-208.652-227.415-348.846-197.552-144.369 30.751-257.386 210.766-229.713 353.673 59.322 306.331 691.857 175.372 578.559-156.121-16.961-49.63 13.552 39.65 0 0z"/><linearGradient id="c" gradientUnits="userSpaceOnUse" x1="1730.754" y1="619.144" x2="2050.475" y2="360.238"><stop offset=".297" style="stop-color:#5c110f"/><stop offset=".348" style="stop-color:#631412"/><stop offset=".538" style="stop-color:#7c1a1b"/><stop offset=".716" style="stop-color:#901d20"/><stop offset=".875" style="stop-color:#9d1f23"/><stop offset="1" style="stop-color:#a11f24"/></linearGradient><path fill="url(#c)" d="M2140.733 543.175s-52.995-119.138-197.235-122.995c-60.938-1.629-109.802-83.682-144.926-147.682-22.798-41.54-39.011-39.439-69.164 43.313-22.645 62.184-30.646 140.965-29.497 206.968 1.466 84.285 53.024 135.396 127.714 166.682 83.693 35.057 165.98 32.619 246.146-10.106 50.616-26.98 89.233-70.437 99.185-166.599.887-8.58-15.03 19.635-32.223 30.419z"/><linearGradient id="d" gradientUnits="userSpaceOnUse" x1="1554.211" y1="666.142" x2="1444.041" y2="147.831"><stop offset="0" style="stop-color:#83181a"/><stop offset=".626" style="stop-color:#991d21"/><stop offset="1" style="stop-color:#a11f24"/></linearGradient><path fill="url(#d)" d="M1218.131 496.132c59.124 129.645 230.018 205.778 366.592 162.265 140.643-44.809 235.396-235.071 193.795-374.562-89.177-299.006-705.755-106.438-560.387 212.297 21.763 47.72-17.388-38.124 0 0z"/><linearGradient id="e" gradientUnits="userSpaceOnUse" x1="1561.204" y1="588.034" x2="1528.378" y2="212.825"><stop offset="0" style="stop-color:#5c110f"/><stop offset=".293" style="stop-color:#761919"/><stop offset=".583" style="stop-color:#8d1d1f"/><stop offset=".828" style="stop-color:#9c1e23"/><stop offset="1" style="stop-color:#a11f24"/></linearGradient><path fill="url(#e)" d="M1762.838 245.96c-7.916-16.713-12.025 11.481-22.068 25.443-12.833 17.84-6.954 51.726-9.208 72.499-1.727 15.863-6.709 30.746-15.006 44.265-19.285 31.402-39.826 39.766-73.186 27.112-32.022-12.143-59.303-28.575-94.449-31.145-34.207-2.502-67.608 21.031-89.309-6.653-43.143-55.038-135.395-110.694-170.143-136.507-43.116-32.03 28.042 68.95 45.913 92.063-32.341 26.219 9.607 64.949 21.095 90.296 20.374 52.739 16.381 108.592 89.452 104.697 41.475-2.211 79.977-6.439 121.322 2.786 47.941 10.697 95.742 68.918 139.045 37.592 64.08-46.357 105.174-185.464 81.674-265.34-3.266-11.096-12.873-31.228-25.132-57.108zm-70.27 168.993c-1.452 1.211-4.185 3.153 0 0zm-7.189 4.507c1.192-.524.81-.342 0 0zm-9.477 2.754c-1.822.357-5.521.661 0 0z"/><linearGradient id="f" gradientUnits="userSpaceOnUse" x1="1101.107" y1="726.578" x2="1183.941" y2="203.584"><stop offset="0" style="stop-color:#83181a"/><stop offset=".348" style="stop-color:#8a1a1d"/><stop offset=".928" style="stop-color:#9e1e23"/><stop offset="1" style="stop-color:#a11f24"/></linearGradient><path fill="url(#f)" d="M852.449 404.236c-113.298 331.493 519.237 462.452 578.559 156.121 27.673-142.907-85.344-322.922-229.713-353.673-140.194-29.862-302.767 62.718-348.846 197.552-13.552 39.651 16.961-49.63 0 0z"/><linearGradient id="g" gradientUnits="userSpaceOnUse" x1="1198.339" y1="660.958" x2="1077.794" y2="310.869"><stop offset="0" style="stop-color:#5c110f"/><stop offset=".175" style="stop-color:#611312"/><stop offset=".462" style="stop-color:#721818"/><stop offset=".821" style="stop-color:#901d20"/><stop offset="1" style="stop-color:#a11f24"/></linearGradient><path fill="url(#g)" d="M1431.04 446.944c-7.356-39.273-59.334-133.01-87.316-160.384-46.755-45.741-99.436-72.643-33.255-3.616 46.5 48.5-28.375 68.111-64.5 74.5-67.857 12-138.959 9.438-197.678 63.461-35.153 32.341-66.569 102.559-117.251 112.039-24.843 4.664-58.313 12.224-86.571-25.347-18.486-24.579 10.779 55.198 25.86 63.36 17.349 28.377 86.91 54.934 118.477 61.383 44.714 9.136 90.754 2.669 130.252-19.824 35.213-20.053 64.009-55.159 103.879-62.452 82.343-15.063 242.195 92.051 222.388-13.696-3.683-19.669-9.454-63.634-14.285-89.424z"/><linearGradient id="h" gradientUnits="userSpaceOnUse" x1="1127.323" y1="934.718" x2="1354.086" y2="400.498"><stop offset="0" style="stop-color:#83181a"/><stop offset=".626" style="stop-color:#991d21"/><stop offset="1" style="stop-color:#a11f24"/></linearGradient><path fill="url(#h)" d="M1191.821 381.862c-138.415 33.835-245.166 187.476-227.962 329.778 17.715 146.541 186.9 275.206 331.709 260.427 310.41-31.686 236.551-673.398-103.747-590.205-50.948 12.454 40.703-9.95 0 0z"/><linearGradient id="i" gradientUnits="userSpaceOnUse" x1="1316.39" y1="687.865" x2="1181.252" y2="487.515"><stop offset="0" style="stop-color:#5c110f"/><stop offset=".121" style="stop-color:#681514"/><stop offset=".365" style="stop-color:#801b1c"/><stop offset=".599" style="stop-color:#921e21"/><stop offset=".816" style="stop-color:#9d1f23"/><stop offset="1" style="stop-color:#a11f24"/></linearGradient><path fill="url(#i)" d="M1412.672 452.868c-17.396-18.786-35.542-39.436-83.089-62.982-14.41-7.136 33.52 35.674 16.258 89.979-18.866 59.348-35.811 102.748-90.123 124.712-53.632 21.875-151.586 13.515-207.734 13.134-39.918-.271-16.321 43.104 12.558 46.429 38.57 4.44 76.118 15.003 115.284 14.388a287.872 287.872 0 0 0 46.116-4.44c9.175 9.699 33.69 34.821 45.332 26.698 37.377-26.075-2.577 17.111 36.996-5.087 46.414-26.036 161.083-160.249 156.215-167.76-5.842-9.013-32.001-57.995-47.813-75.071z"/><linearGradient id="j" gradientUnits="userSpaceOnUse" x1="1661.726" y1="945.691" x2="1578.892" y2="422.697"><stop offset=".576" style="stop-color:#83181a"/><stop offset=".675" style="stop-color:#8d1b1d"/><stop offset=".867" style="stop-color:#9c1e22"/><stop offset="1" style="stop-color:#a11f24"/></linearGradient><path fill="url(#j)" d="M1910.383 623.35c-46.079-134.834-208.652-227.415-348.846-197.552-144.369 30.751-257.386 210.766-229.713 353.673 59.322 306.33 691.857 175.371 578.559-156.121-16.961-49.63 13.552 39.65 0 0z"/><path fill="#5C110F" d="M838.895 521.944c6.353 80.434 196.609 136.792 254.998 149.359 109.986 23.673 236.174 24.023 348.608 25.813 120.275 1.914 243.961-2.75 363.184-18.797 16.82-2.264 354.284-85.875 279.784-63.875-32.908 9.718-284.128 21.497-314.955 25.677-145.162 19.683-304.625 19.126-452.915 7.643-126.073-9.764-240.458-5.523-360.091-55.156-4.005-1.662-83.039-52.664-110.039-65.909-2.027-.994-8.574-4.755-8.574-4.755z"/><linearGradient id="k" gradientUnits="userSpaceOnUse" x1="933.156" y1="319.412" x2="1053.073" y2="400.296"><stop offset=".121" style="stop-color:#c72f29"/><stop offset="1" style="stop-color:#c72f29;stop-opacity:0"/></linearGradient><path fill="url(#k)" d="M1125.713 270.789c-31.206-102.625-305.179 81.053-228.304 208.433 45.255 74.992 116.992-80.79 137.537-107.636 23.163-30.202 103.936-57.488 90.767-100.797-4.067-13.377 2.945 9.684 0 0z"/><linearGradient id="l" gradientUnits="userSpaceOnUse" x1="1113.007" y1="444.178" x2="1184.648" y2="535.874"><stop offset=".121" style="stop-color:#c72f29"/><stop offset="1" style="stop-color:#c72f29;stop-opacity:0"/></linearGradient><path fill="url(#l)" d="M1259.929 423.213c-44.403-50.641-135.256 4.413-168.446 40.478-19.441 21.124-42.87 52.508-46.111 81.794-4.335 39.176 38.111 64.459 70.857 42.459 30.346-20.387 42.095-59.984 73.913-77.91 30.163-16.994 118.097-31.724 69.787-86.821-7.477-8.527 9.887 11.276 0 0zM1150.235 552.54c.991-1.291 2.738-3.533 0 0z"/><linearGradient id="m" gradientUnits="userSpaceOnUse" x1="1571.805" y1="464.564" x2="1599.209" y2="554.2"><stop offset=".121" style="stop-color:#c72f29"/><stop offset="1" style="stop-color:#c72f29;stop-opacity:0"/></linearGradient><path fill="url(#m)" d="M1702.311 484.863c-55.491-49.928-204.988-15.636-232.83 38.29-11.913 23.074.796 55.85 41.931 51.349 19.848-2.172 63.477-27.76 64.08-27.945 35.209-10.844 183.759-10.46 126.819-61.694-9.12-8.205 6.085 5.475 0 0z"/><linearGradient id="n" gradientUnits="userSpaceOnUse" x1="1947.594" y1="260.199" x2="1927.258" y2="364.819"><stop offset=".121" style="stop-color:#c72f29"/><stop offset="1" style="stop-color:#c72f29;stop-opacity:0"/></linearGradient><path fill="url(#n)" d="M2030.945 328.05c-23.537-46.15-74.343-69.772-124.083-74.959-39.563-4.126-115.645 39.757-58.131 78.203 32.616 21.8 80.352 9.888 114.084 31.444 46.923 29.983 98.462 24.782 68.13-34.688-10.557-20.701 7.381 14.47 0 0z"/><linearGradient id="o" gradientUnits="userSpaceOnUse" x1="1477.586" y1="177.167" x2="1520.408" y2="294.818"><stop offset=".121" style="stop-color:#c72f29"/><stop offset="1" style="stop-color:#c72f29;stop-opacity:0"/></linearGradient><path fill="url(#o)" d="M1633.174 203.829c-48.674-80.387-312.759-1.758-264.789 76.508 30.107 49.121 124.537 5.072 162.643-6.488 31.402-9.526 145.081.9 102.146-70.02-10.884-17.975 7.669 12.667 0 0z"/><path fill="#EA5331" d="M980.007 320.635c-24.625 2.487-58.183 60.996-22.038 57.734 30.135-2.719 60.854-61.655 22.038-57.734-2.865.289 5.979-.604 0 0zM939.974 393.837c-14.019 0-29.704 28.24-18.922 39.023 24.308 24.306 50.983-39.023 18.922-39.023-4.994 0 5.717 0 0 0zm-13.91 17.727-.014.209c-.321.397-.527.48.014-.209zm-.39 1.451c-.25.664-.471 1.118 0 0zM1199.675 431.603c-35.291-20.834-77.724 47.17-43.635 47.723 15.287.249 80.884-28.819 43.635-47.723-8.334-4.92 3.898 1.978 0 0zM1429.254 224.28c-16.713-.364-79.461 28.094-40.789 48.21 28.498 14.823 74.192-47.475 40.789-48.21-1.074-.024 10.806.238 0 0zM1905.485 276.041c-15.681-15.207-67.055-1.268-45.002 19.936 16.801 16.155 67.34 1.721 45.002-19.936-1.199-1.164 4.251 4.12 0 0zM1953.139 284.684c-6.567-7.897-38.864-13.329-31.435 5.106 4.82 11.958 44.586 10.711 31.435-5.106-5.896-7.09 4.371 5.257 0 0zM1530.977 500.926c-13.313 1.569-56.694 14.49-38.322 38.65 24.066 31.649 66.245-41.944 38.322-38.65-2.212.261 7.637-.901 0 0z"/><path fill="#83181A" d="M1445.298 555.104c-21.514-4.618-32.377 25.124-14.599 35.998 29.513 18.05 42.559-29.995 14.599-35.998-6.292-1.35 6.439 1.383 0 0zM1631.04 161.514c-29.355.492-26.779 38.877-5.38 31.371 18.263-2.052 30.614-31.795 5.38-31.371-3.528.059 8.139-.137 0 0zM2083.514 425.756c-14.389-14.389-36.62 5.286-27.616 20.807 11.78 20.106 44.749-3.67 27.616-20.807-4.222-4.221 3.009 3.011 0 0zm-.862 20.227c-.051.126-.355.682 0 0-.025.062-.052.101 0 0zM1273.361 392.873c-9.456 5.613-12.745 6.896-9.868 3.849-6.155 4.507-18.549 18.673-5.935 24.611 27.093 12.756 40.666-28.46 15.803-28.46-4.215 0 3.818 0 0 0z"/><linearGradient id="p" gradientUnits="userSpaceOnUse" x1="1721.05" y1="63.881" x2="1762.695" y2="178.3"><stop offset="0" style="stop-color:#4aa346"/><stop offset=".399" style="stop-color:#3b9945"/><stop offset=".812" style="stop-color:#238c43"/></linearGradient><path fill="url(#p)" d="M1853.934 41.831c-69.52-11.102-109.464 11.789-140.17 34.841-38.324 28.771-109.943 104.105-89.969 107.313 53.063 8.521 105.639 16.154 152.99-14.287 39.016-25.084 85.816-74.174 80.285-123.759-.322-2.886.553-3.519-3.136-4.108z"/><linearGradient id="q" gradientUnits="userSpaceOnUse" x1="1722.506" y1="109.267" x2="1763.615" y2="177.684"><stop offset="0" style="stop-color:#238c43"/><stop offset=".489" style="stop-color:#208640"/><stop offset="1" style="stop-color:#1e813e"/></linearGradient><path fill="url(#q)" d="M1776.785 169.698c29.165-18.75 62.678-50.916 75.432-86.675-5.35 5.266-10.395 10.845-15.447 16.389-5.953 6.53-11.917 13.029-18.615 18.812-6.965 6.012-14.293 11.194-22.398 16.148-16.408 10.027-33.634 17.342-51.797 23.252-19.248 6.262-39.285 11.131-59.401 13.463-9.451 1.096-18.925 1.733-28.437 1.515-3.948-.091-7.875-.146-11.808.155 7.019-5.446 14.161-10.738 21.3-16.012 8.641-6.384 17.473-12.533 25.955-19.127 8.211-6.381 16.602-12.54 25.07-18.573 10.726-7.64 21.727-14.85 33.164-21.381a348.15 348.15 0 0 1 17.442-9.314c2.968-1.479 5.763-3.281 8.765-4.706a297.416 297.416 0 0 1 9.74-4.4c1.383-.596.373-2.998-1.028-2.438-9.601 3.832-19.143 7.833-28.273 12.683-9.062 4.813-17.896 10.06-26.626 15.446-17.743 10.948-34.676 23.106-52.316 34.2-19.641 12.352-39.184 24.813-57.053 39.56-.462 2.968.536 4.841 3.342 5.292 53.062 8.52 105.638 16.153 152.989-14.289z"/><linearGradient id="r" gradientUnits="userSpaceOnUse" x1="1738.847" y1="66.116" x2="1752.835" y2="97.533"><stop offset="0" style="stop-color:#60bb48"/><stop offset="1" style="stop-color:#60bb48;stop-opacity:0"/></linearGradient><path fill="url(#r)" d="M1846.072 46.71c-24.673-2.156-49.373-3.563-72.871 4.944-36.92 13.366-48.585 24.64-58.457 33.284-130.111 113.928-15.04 23.734 49.608-14.982 26.948-16.139 46.327-16.057 59.798-17.629 1.207-.14 27.221-5.154 21.922-5.617-2.373-.207 1.94.17 0 0z"/><linearGradient id="s" gradientUnits="userSpaceOnUse" x1="1614.137" y1="66.959" x2="1671.594" y2="149.016"><stop offset="0" style="stop-color:#59391d"/><stop offset=".475" style="stop-color:#52341a"/><stop offset=".994" style="stop-color:#472b15"/></linearGradient><path fill="url(#s)" d="M1676.871 50.099c-8.543-2.002-33.07-9.515-38.389.971-4.889 9.639-5.92 21.677-7.766 32.18-5.01 28.509-19.301 62.503-14.111 91.701 5.594 31.469 29.113-35.265 30.217-39.003 5.588-18.933 12.166-36.801 21.608-54.164 3.566-6.555 16.963-29.688 8.441-31.685-6.152-1.443.772.18 0 0-10.703-2.509 2.553.597 0 0z"/><path opacity=".33" fill="#C19864" d="M1676.873 50.099c.395.093.488.114-.002 0a1.88 1.88 0 0 0-.002-.001c-8.545-2.003-33.068-9.513-38.387.972-.352.692-.68 1.398-.994 2.114 5.221 4.103 16.685 6.37 19.582 6.851 5.07.84 15.889 2.489 21.879-1.003 1.225-4.59 1.063-8.197-2.076-8.933zm-.596-.14-.195-.046.357.084-.162-.038zm-.92-.216-.047-.011.518.121-.184-.043-.287-.067zm-.24-.055zm-.502-.119c-.119-.027-.2-.047-.25-.059l.25.059zm-1.972-.462c-.012-.003-.012-.003 0 0z"/><linearGradient id="t" gradientUnits="userSpaceOnUse" x1="1846.517" y1="257.051" x2="1888.161" y2="371.468" gradientTransform="scale(-1 1) rotate(-15.332 376.191 11583.442)"><stop offset="0" style="stop-color:#4aa346"/><stop offset=".399" style="stop-color:#3b9945"/><stop offset=".812" style="stop-color:#238c43"/></linearGradient><path fill="url(#t)" d="M1074.09 218.106c-18.442 46.359 13.717 106.074 44.714 140.579 37.62 41.876 90.342 48.413 143.771 54.222 20.112 2.188-29.045-89.399-58.4-127.278-23.52-30.349-55.992-62.985-125.973-70.656-3.715-.408-3.038.434-4.112 3.133z"/><linearGradient id="u" gradientUnits="userSpaceOnUse" x1="1847.971" y1="302.437" x2="1889.08" y2="370.854" gradientTransform="scale(-1 1) rotate(-15.332 376.191 11583.442)"><stop offset="0" style="stop-color:#238c43"/><stop offset=".489" style="stop-color:#208640"/><stop offset="1" style="stop-color:#1e813e"/></linearGradient><path fill="url(#u)" d="M1118.804 358.685c-23.171-25.793-46.989-65.673-49.836-103.531 3.767 6.492 7.158 13.207 10.565 19.889 4.015 7.872 8.048 15.716 12.98 23.063 5.128 7.639 10.825 14.575 17.333 21.495 13.174 14.008 27.853 25.616 43.808 36.118 16.908 11.127 34.945 21.12 53.729 28.687 8.825 3.555 17.793 6.675 27.024 8.979 3.832.955 7.633 1.94 11.347 3.27-5.33-7.107-10.819-14.1-16.31-21.073-6.646-8.44-13.538-16.706-19.976-25.308-6.232-8.325-12.696-16.482-19.269-24.54-8.325-10.203-17.028-20.065-26.333-29.387a348.98 348.98 0 0 0-14.359-13.594c-2.472-2.21-4.69-4.688-7.209-6.855a294.432 294.432 0 0 0-8.23-6.818c-1.176-.94.433-2.99 1.636-2.08 8.246 6.233 16.391 12.615 23.915 19.706 7.467 7.037 14.6 14.432 21.596 21.936 14.218 15.249 27.334 31.45 41.415 46.813 15.677 17.104 31.23 34.288 44.565 53.235-.339 2.983-1.796 4.526-4.622 4.219-53.427-5.811-106.15-12.348-143.769-54.224z"/><linearGradient id="v" gradientUnits="userSpaceOnUse" x1="1864.313" y1="259.285" x2="1878.299" y2="290.697" gradientTransform="scale(-1 1) rotate(-15.332 376.191 11583.442)"><stop offset="0" style="stop-color:#60bb48"/><stop offset="1" style="stop-color:#60bb48;stop-opacity:0"/></linearGradient><path fill="url(#v)" d="M1084.493 221.756c24.365 4.443 48.558 9.616 68.972 24.032 32.073 22.651 40.343 36.607 47.579 47.553 95.366 144.27 8.231 26.866-43.883-27.563-21.724-22.688-40.435-27.732-53.011-32.81-1.127-.454-24.89-12.166-19.657-11.212 2.343.428-1.915-.348 0 0z"/><linearGradient id="w" gradientUnits="userSpaceOnUse" x1="1739.602" y1="260.121" x2="1797.057" y2="342.175" gradientTransform="scale(-1 1) rotate(-15.332 376.191 11583.442)"><stop offset="0" style="stop-color:#59391d"/><stop offset=".475" style="stop-color:#52341a"/><stop offset=".994" style="stop-color:#472b15"/></linearGradient><path fill="url(#w)" d="M1246.779 269.753c-.791-.03 6.315.235 0 0-8.746-.327-1.941 25.524-.235 32.789 4.516 19.242 6.137 38.213 6.521 57.95.076 3.897 5.118 74.473 18.832 45.603 12.723-26.787 7.927-63.35 10.631-92.169.997-10.617 3.184-22.5 1.018-33.088-2.358-11.519-27.998-10.757-36.767-11.085-2.619-.099 10.986.41 0 0z"/><path opacity=".33" fill="#C19864" d="M1242.414 277.818c4.854 4.952 15.724 6.221 20.836 6.751 2.921.302 14.577 1.146 20.696-1.431a41.904 41.904 0 0 0-.4-2.302c-2.358-11.517-27.994-10.757-36.764-11.084l.102.004a1.78 1.78 0 0 0-.104-.003c-.503-.02-.407-.016-.002 0-3.222-.12-4.332 3.316-4.364 8.065zm4.809-8.049.367.013-.2-.007-.167-.006zm.816.03a97.873 97.873 0 0 0 .343.013l-.048-.002-.295-.011zm1.006.038-.466-.018.466.018zm.307.011-.257-.009.257.009zm1.768.067c.011 0 .011 0 0 0z"/><linearGradient id="x" gradientUnits="userSpaceOnUse" x1="2056.594" y1="360.406" x2="2114.053" y2="442.466" gradientTransform="rotate(33.196 2127.962 466.488)"><stop offset="0" style="stop-color:#59391d"/><stop offset=".475" style="stop-color:#52341a"/><stop offset=".994" style="stop-color:#472b15"/></linearGradient><path fill="url(#x)" d="M2188.047 358.882c-6.053-6.353-22.465-26.067-32.655-20.205-9.368 5.389-16.821 14.898-24.116 22.677-19.8 21.114-50.37 41.738-62.013 69.012-12.547 29.396 43.669-13.571 46.639-16.095 15.042-12.785 30.329-24.136 47.737-33.496 6.571-3.532 30.446-15.556 24.408-21.893-4.359-4.575.547.574 0 0-7.583-7.959 1.809 1.898 0 0z"/><path opacity=".33" fill="#C19864" d="M2188.049 358.883c.279.293.346.363-.002-.001a2.551 2.551 0 0 0-.071-.076l.07.074c-6.054-6.354-22.464-26.064-32.654-20.203a40.84 40.84 0 0 0-1.989 1.225c2.122 6.291 10.475 14.465 12.636 16.453 3.783 3.479 11.934 10.782 18.858 11.139 3.536-3.169 5.375-6.276 3.152-8.611zm-.422-.443-.139-.145.254.266-.115-.121zm-.651-.684-.034-.035.367.385a30.535 30.535 0 0 1-.333-.35zm-.171-.178-.321-.337.321.337zm-.356-.374-.177-.186.177.186zm-1.397-1.466c-.009-.009-.009-.009 0 0z"/><linearGradient id="y" gradientUnits="userSpaceOnUse" x1="1561.399" y1="410.062" x2="1618.859" y2="492.122" gradientTransform="scale(-1 1) rotate(69.775 26.397 -1612.437)"><stop offset="0" style="stop-color:#59391d"/><stop offset=".475" style="stop-color:#52341a"/><stop offset=".994" style="stop-color:#472b15"/></linearGradient><path fill="url(#y)" d="M1303.155 580.14c-.097.786.774-6.272 0 0-1.072 8.686 25.266 4.113 32.648 3.034 19.558-2.857 38.598-2.853 58.294-1.55 3.89.257 74.639 1.259 47.045-14.87-25.603-14.963-62.443-13.307-90.925-18.461-10.493-1.9-22.146-5.093-32.88-3.838-11.677 1.364-13.107 26.976-14.182 35.685-.322 2.601 1.346-10.911 0 0z"/><path opacity=".33" fill="#C19864" d="M1310.818 585.178c5.348-4.414 7.541-15.135 8.505-20.184.551-2.884 2.386-14.425.341-20.742-.78.047-1.556.112-2.327.202-11.676 1.366-13.108 26.974-14.183 35.684l.013-.101a1.739 1.739 0 0 0-.012.104c-.063.5-.05.404 0 .002-.395 3.198 2.934 4.597 7.663 5.035zm-7.609-5.479.044-.364-.024.199-.02.165zm.1-.81-.023.187.065-.528-.006.048-.036.293zm.124-1-.058.463.058-.463zm.037-.304zm.217-1.756c.001-.012.001-.012 0 0z"/><linearGradient id="z" gradientUnits="userSpaceOnUse" x1="1504.938" y1="527.937" x2="1504.938" y2="1608.587"><stop offset=".151" style="stop-color:#926f40"/><stop offset=".994" style="stop-color:#845e39"/></linearGradient><path fill="url(#z)" d="M2171.273 528.538c-1.914 4.018-4.217 8.198-8.311 13.479-58.067 72.654-330.557 127.645-657.955 127.645-327.452 0-599.978-55.009-657.983-127.681-3.584-4.542-6.521-9.958-8.424-14.043l228.22 983.695c-.13.039-.234.082-.268.137 103.794 40.317 263.479 96.818 440.526 96.818 173.271 0 326.509-54.311 430.337-93.154l.839-3.664h.295l232.724-983.232z"/><path fill="#C49A6C" d="M1857.677 1570.713c.344.06.284.049 0 0zM1446.971 695.658c.192-.14-.343.137 0 0 .257-.188-.007.003 0 0z"/><linearGradient id="A" gradientUnits="userSpaceOnUse" x1="910.695" y1="1121.804" x2="1188.279" y2="1067.847"><stop offset="0" style="stop-color:#ad8147"/><stop offset=".139" style="stop-color:#af8349"/><stop offset=".242" style="stop-color:#b48951"/><stop offset=".334" style="stop-color:#be945f"/><stop offset=".358" style="stop-color:#c19864"/><stop offset=".42" style="stop-color:#bb915b"/><stop offset=".55" style="stop-color:#b3884f"/><stop offset=".711" style="stop-color:#af8349"/><stop offset="1" style="stop-color:#ad8147"/></linearGradient><path fill="url(#A)" d="M1139.663 1127.579c-12.036-71.491-21.974-143.346-31.833-215.165-4.379-31.898-8.927-63.785-14.677-95.47-4.378-24.124 2.032-40.148 6.083-58.65a4.834 4.834 0 0 1-.657-2.25c-1.023-26.446 3.168-52.604 5.084-78.903a253.916 253.916 0 0 1-11.932-1.838c-17.372-3.133-27.416-19.179-45.575-24.86-55.008-17.21-122.815-14.206-180.602-6.327l201.298 867.653c34.402 13.363 74.95 28.503 120.229 42.775-.44-10.478-2.223-21.872-3.861-33.846-17.279-130.853-21.616-262.795-43.557-393.119z"/><linearGradient id="B" gradientUnits="userSpaceOnUse" x1="1342.547" y1="1141.028" x2="1599.352" y2="1141.028"><stop offset=".436" style="stop-color:#845e39"/><stop offset=".497" style="stop-color:#986f40"/><stop offset=".559" style="stop-color:#a87c45"/><stop offset=".606" style="stop-color:#ad8147"/><stop offset=".662" style="stop-color:#aa7e46"/><stop offset=".708" style="stop-color:#a07643"/><stop offset=".75" style="stop-color:#91683e"/><stop offset=".776" style="stop-color:#845e39"/></linearGradient><path fill="url(#B)" d="M1568.255 1175.129c-.426-97.366 2.092-184.479 7.165-281.719.911-17.424 4.986-45.73 7.5-62.997 2.913-19.996.233-39.646 5.699-59.008 1.653-5.857 4.351-9.828 7.806-12.549-.146-20.927-.114-41.754 1.976-62.639-3.183.199-1.126-.816.338-3.13.102-.915.193-1.83.303-2.745.108-.911.209-1.971.311-3.136-.822-2.078-2.808-4.525-6.797-7.355-23.437-16.626-123.947 2.938-147.46 16.694-1.533.897-25.959-17.782-39.312 1.093l-.808 1.147c7.997 24.845 4.605 50.876-3.326 75.464.699-.008 1.396-.004 2.095-.014-7.529 113.614-24.91 194.626-18.814 282.667 6.76 97.657 14.651 203.613 15 301.485.231 64.862 5.988 173.854 10.772 244.807 31.461 3.438 63.768 5.393 96.677 5.393 26.784 0 53.088-1.301 78.807-3.639 10.568-38.746-8.927-104.676-11.166-133.956-7.496-97.886-6.337-197.712-6.766-295.863z"/><linearGradient id="C" gradientUnits="userSpaceOnUse" x1="1855.175" y1="1018.279" x2="2077.533" y2="1057.486"><stop offset="0" style="stop-color:#ad8147"/><stop offset=".359" style="stop-color:#ae8249"/><stop offset=".513" style="stop-color:#b2874e"/><stop offset=".627" style="stop-color:#ba8f59"/><stop offset=".697" style="stop-color:#c19864"/><stop offset=".798" style="stop-color:#bd945e"/><stop offset=".936" style="stop-color:#b3884f"/><stop offset="1" style="stop-color:#ad8147"/></linearGradient><path fill="url(#C)" d="M2166.724 536.736a76.13 76.13 0 0 1-3.761 5.28c-30.046 37.595-117.514 70.456-240.283 93.42.651 18.281.723 36.828-2.824 54.77l.303-.088c-17.394 80.41-18.055 159.634-30.258 240.979-12.889 85.919-24.038 177.287-31.987 263.797-5.862 63.801-1.553 123.422-5.278 187.535-2.101 36.132-4.148 72.212-8.001 108.206-3.168 17.599-14.819 43.505-10.462 61.26 38.279-12.311 73.045-25.054 103.543-36.464l.971-4.24 230.734-974.823c-.9.124-1.802.238-2.697.368z"/><linearGradient id="D" gradientUnits="userSpaceOnUse" x1="1556.508" y1="1119.422" x2="1851.211" y2="1129.714"><stop offset=".4" style="stop-color:#845e39"/><stop offset=".463" style="stop-color:#986f40"/><stop offset=".527" style="stop-color:#a87c45"/><stop offset=".576" style="stop-color:#ad8147"/><stop offset=".641" style="stop-color:#aa7e46"/><stop offset=".696" style="stop-color:#a07643"/><stop offset=".746" style="stop-color:#91683e"/><stop offset=".776" style="stop-color:#845e39"/></linearGradient><path fill="url(#D)" d="M1824.739 1160.106c5.175-97.768 4.708-194.419 17.13-291.802 3.82-29.949 8.412-59.785 12.453-89.702 1.641-11.628 4.535-24.281 6.074-36.904-2.438-9.082-2.493-18.401-2.914-27.788-.972-21.71-8.903-42.917-10.568-64.55-25.332 8.774-50.747 17.264-76.986 22.993-30.333 6.622-64.679 13.776-93.219 5.924-9.217-2.535-22.068 3.186-34.133 8.238.43 3.914.456 7.887.119 11.835-.481 5.645-1.429 11.202-2.646 16.705 1.44 8.936.367 18.379-1.858 27.472-.165 3.137-.648 6.27-1.376 9.333.975-.1 1.948-.209 2.92-.342-4.979 71.287-24.173 138.159-33.243 208.906-13.456 104.956-18.199 212.394-16.93 318.143 1.047 87.12 12.75 234.617 26.747 323.146 71.611-8.846 138.151-25.242 197.141-43.31-.986-40.7-5.801-86.626-4.565-105.737 6.295-97.379 10.696-195.094 15.854-292.56z"/><linearGradient id="E" gradientUnits="userSpaceOnUse" x1="1102.919" y1="1150.682" x2="1397.264" y2="1130.1"><stop offset=".255" style="stop-color:#845e39"/><stop offset=".347" style="stop-color:#986f40"/><stop offset=".442" style="stop-color:#a87c45"/><stop offset=".515" style="stop-color:#ad8147"/><stop offset=".603" style="stop-color:#aa7e46"/><stop offset=".675" style="stop-color:#a07643"/><stop offset=".742" style="stop-color:#91683e"/><stop offset=".782" style="stop-color:#845e39"/></linearGradient><path fill="url(#E)" d="M1359.431 1118.399c-2.787-115.746 10.274-229.413 4.607-344.838 1.186.059 2.371.095 3.557.147-1.843-8.875-2.403-18.104-2.403-26.884 0-10.518.714-21.221 2.487-31.698a813.703 813.703 0 0 0-3.565-.105c-12.485-16.338-74.965-10.326-93.821-10.761-40.212-7.841-80.104-18.051-120.896-22.555-6.283-.694-12.591-1.251-18.903-1.808.772 17.422 1.292 34.845.213 52.183 6.828 4.483 7.041 12.803 11.234 35.337 4.122 22.142 10.878 71.858 12 94.495 4.372 88.272 15.058 136.021 12 224.345-2.822 81.479 13.789 164.983 20.999 246.632 4.365 49.413 11.526 150.369 18.59 227.34 54.058 16.258 114.26 30.858 178.4 39.661 4.621-64.759-4.043-136.291-8.047-165.381-13.513-102.539-13.963-212.73-16.452-316.11z"/><linearGradient id="F" gradientUnits="userSpaceOnUse" x1="2040.976" y1="679.469" x2="2041.128" y2="679.49"><stop offset=".097" style="stop-color:#926f40;stop-opacity:.0714"/><stop offset=".103" style="stop-color:#926f40;stop-opacity:0"/><stop offset=".527" style="stop-color:#926f40"/><stop offset=".715" style="stop-color:#906c3f;stop-opacity:.5236"/><stop offset=".855" style="stop-color:#89643c;stop-opacity:.1671"/><stop offset=".921" style="stop-color:#845e39;stop-opacity:0"/></linearGradient><path fill="url(#F)" d="M2040.99 679.367c.154.276.179.321 0 0z"/><linearGradient id="G" gradientUnits="userSpaceOnUse" x1="2037.65" y1="673.401" x2="2037.706" y2="673.409"><stop offset=".097" style="stop-color:#926f40;stop-opacity:.0714"/><stop offset=".103" style="stop-color:#926f40;stop-opacity:0"/><stop offset=".527" style="stop-color:#926f40"/><stop offset=".715" style="stop-color:#906c3f;stop-opacity:.5236"/><stop offset=".855" style="stop-color:#89643c;stop-opacity:.1671"/><stop offset=".921" style="stop-color:#845e39;stop-opacity:0"/></linearGradient><path fill="url(#G)" d="M2037.701 673.446c-.059-.106-.062-.113 0 0z"/><linearGradient id="H" gradientUnits="userSpaceOnUse" x1="1700.319" y1="1100.138" x2="1989.364" y2="1140.761"><stop offset=".097" style="stop-color:#926f40;stop-opacity:.0714"/><stop offset=".103" style="stop-color:#926f40;stop-opacity:0"/><stop offset=".527" style="stop-color:#926f40"/><stop offset=".715" style="stop-color:#906c3f;stop-opacity:.5236"/><stop offset=".855" style="stop-color:#89643c;stop-opacity:.1671"/><stop offset=".921" style="stop-color:#845e39;stop-opacity:0"/></linearGradient><path fill="url(#H)" d="m2039.81 677.242 1.181 2.125-1.183-2.129-2.106-3.792 2.104 3.788c-23.623-42.507-115.951-27.031-155.796-23.695-7.721.646-21.992 4.963-36.337 9.884-16.721 2.286-55.908 17.32-71.288 23.197-34.58 13.219-28.09 122.844-31.404 150.943-8.771 74.34-9.668 149.743-12.582 224.499-5.416 139.029-14.982 276.941-26.818 415.583-2.336 27.359-11.719 70.368-15.15 111.876 32.491-6.939 63.528-15.065 92.827-23.702 50.982-13.577 97.444-29.288 138.054-44.004.578-6.275.951-12.205 1.34-17.37a754.369 754.369 0 0 1 1.826-20.292 6.12 6.12 0 0 0-.027.204l.033-.271c8.383-81.498 29.098-162.197 37.061-243.961 9.094-93.361 18.615-188.419 34.936-280.797 9.359-52.972 23.689-104.871 35.176-157.385 7.795-35.659 27.197-90.414 8.153-124.701z"/><linearGradient id="I" gradientUnits="userSpaceOnUse" x1="1924.933" y1="1480.479" x2="1924.993" y2="1480.487"><stop offset=".097" style="stop-color:#926f40;stop-opacity:.0714"/><stop offset=".103" style="stop-color:#926f40;stop-opacity:0"/><stop offset=".527" style="stop-color:#926f40"/><stop offset=".715" style="stop-color:#906c3f;stop-opacity:.5236"/><stop offset=".855" style="stop-color:#89643c;stop-opacity:.1671"/><stop offset=".921" style="stop-color:#845e39;stop-opacity:0"/></linearGradient><path fill="url(#I)" d="m1924.448 1484.358.027-.205v.001l.107-.799c1.75-13.033.5-3.999-.102.732l-.006.055c-.012.111-.024.196-.026.216z"/><linearGradient id="J" gradientUnits="userSpaceOnUse" x1="1735.977" y1="760.279" x2="1744.104" y2="760.705"><stop offset=".279" style="stop-color:#926f40;stop-opacity:0"/><stop offset=".308" style="stop-color:#926f40;stop-opacity:.1413"/><stop offset=".485" style="stop-color:#926f40"/><stop offset=".661" style="stop-color:#906c3f;stop-opacity:.5236"/><stop offset=".793" style="stop-color:#89643c;stop-opacity:.1671"/><stop offset=".855" style="stop-color:#845e39;stop-opacity:0"/></linearGradient><path fill="url(#J)" d="M1735.842 763.632c-1.274 4.045 19.664-17.142 0 0z"/><linearGradient id="K" gradientUnits="userSpaceOnUse" x1="1470.356" y1="1153.171" x2="1726.111" y2="1166.575"><stop offset=".279" style="stop-color:#926f40;stop-opacity:0"/><stop offset=".308" style="stop-color:#926f40;stop-opacity:.1413"/><stop offset=".485" style="stop-color:#926f40"/><stop offset=".661" style="stop-color:#906c3f;stop-opacity:.5236"/><stop offset=".793" style="stop-color:#89643c;stop-opacity:.1671"/><stop offset=".855" style="stop-color:#845e39;stop-opacity:0"/></linearGradient><path fill="url(#K)" d="M1691.585 711.719c-36.1-.727-71.878-.078-107.82 3.934-10.396.423-24.556-.425-35.042 3.175-20.054.308-48.576-.819-44.204 28.48-27.773 36.775-10.701 99.648-9.113 141.579 7.981 210.848 14.573 421.431 23.703 632.259 1.103 25.454-4.717 57.842-4.009 87.439 27.929-.709 55.293-2.782 81.969-5.916 31.62-2.667 62.376-6.914 92.059-12.291-.104-15.808-1.136-30.673-.769-40.8 2.235-61.623 2.883-123.288 5.705-184.892 4.859-106.094 13.7-212.049 25.193-317.621 5.056-46.445 8.186-210.618 11.23-257.243.374-5.727.521-9.744.519-12.477 1.089-2.478 2.65-6.772 4.836-13.716 38.453-33.519-22.452-51.47-44.257-51.91zm45.028 50.406c.169-.22-.086.102-.114.149.544-.887 2.274-2.952.114-.149z"/><linearGradient id="L" gradientUnits="userSpaceOnUse" x1="1506.836" y1="1503.123" x2="1506.837" y2="1503.123"><stop offset=".279" style="stop-color:#926f40;stop-opacity:0"/><stop offset=".308" style="stop-color:#926f40;stop-opacity:.1413"/><stop offset=".485" style="stop-color:#926f40"/><stop offset=".661" style="stop-color:#906c3f;stop-opacity:.5236"/><stop offset=".793" style="stop-color:#89643c;stop-opacity:.1671"/><stop offset=".855" style="stop-color:#845e39;stop-opacity:0"/></linearGradient><path fill="url(#L)" d="M1506.836 1503.204c.001-.206.001-.221 0 0z"/><linearGradient id="M" gradientUnits="userSpaceOnUse" x1="1506.828" y1="1504.598" x2="1506.836" y2="1504.598"><stop offset=".279" style="stop-color:#926f40;stop-opacity:0"/><stop offset=".308" style="stop-color:#926f40;stop-opacity:.1413"/><stop offset=".485" style="stop-color:#926f40"/><stop offset=".661" style="stop-color:#906c3f;stop-opacity:.5236"/><stop offset=".793" style="stop-color:#89643c;stop-opacity:.1671"/><stop offset=".855" style="stop-color:#845e39;stop-opacity:0"/></linearGradient><path fill="url(#M)" d="m1506.828 1505.993.008-2.789-.008 2.789z"/><linearGradient id="N" gradientUnits="userSpaceOnUse" x1="1506.816" y1="1507.92" x2="1506.828" y2="1507.92"><stop offset=".279" style="stop-color:#926f40;stop-opacity:0"/><stop offset=".308" style="stop-color:#926f40;stop-opacity:.1413"/><stop offset=".485" style="stop-color:#926f40"/><stop offset=".661" style="stop-color:#906c3f;stop-opacity:.5236"/><stop offset=".793" style="stop-color:#89643c;stop-opacity:.1671"/><stop offset=".855" style="stop-color:#845e39;stop-opacity:0"/></linearGradient><path fill="url(#N)" d="m1506.816 1509.848.012-3.855-.012 3.855z"/><linearGradient id="O" gradientUnits="userSpaceOnUse" x1="1506.813" y1="1510.457" x2="1506.816" y2="1510.457"><stop offset=".279" style="stop-color:#926f40;stop-opacity:0"/><stop offset=".308" style="stop-color:#926f40;stop-opacity:.1413"/><stop offset=".485" style="stop-color:#926f40"/><stop offset=".661" style="stop-color:#906c3f;stop-opacity:.5236"/><stop offset=".793" style="stop-color:#89643c;stop-opacity:.1671"/><stop offset=".855" style="stop-color:#845e39;stop-opacity:0"/></linearGradient><path fill="url(#O)" d="m1506.816 1509.848-.004 1.161v.057l.004-1.218z"/><linearGradient id="P" gradientUnits="userSpaceOnUse" x1="1270.197" y1="1155.873" x2="1506.937" y2="1155.873"><stop offset=".279" style="stop-color:#926f40;stop-opacity:0"/><stop offset=".308" style="stop-color:#926f40;stop-opacity:.1413"/><stop offset=".485" style="stop-color:#926f40"/><stop offset=".661" style="stop-color:#906c3f;stop-opacity:.5236"/><stop offset=".793" style="stop-color:#89643c;stop-opacity:.1671"/><stop offset=".855" style="stop-color:#845e39;stop-opacity:0"/></linearGradient><path fill="url(#P)" d="M1506.813 1511.066a385.757 385.757 0 0 1 0-.057c.271-88.683-6.769-181.366-18.846-269.189-10.579-76.946 1.885-164.756 3.615-242.609 1.769-79.564 17.706-166.991 5.89-245.641-7.072-25.209-42.192-33.364-78.053-35.45-24.194-4.875-53.127-4.748-76.072-3.927-3.099-11.449-15.063-8.011-20.542.889-3.687.166-6.971.3-9.735.363-.898-21.648-23.37-11.213-24.021 4.694-22.289 12.709-18.713 44.945-18.542 66.522.688 87.076 12.649 172.671 11.279 260.59-1.501 96.211 3.962 191.947 12.409 287.755 7.118 80.71 2.141 162.88 13.672 243.044-2.387-17.771.369-5.477 3.354 9.532 27.447 5.232 55.8 9.541 84.859 12.578 33.372 4.572 67.804 7.581 102.999 8.427 9.65-29.21 7.663-73.212 7.734-97.521zm-.01 3.099-.006 2.101.006-2.101z"/><linearGradient id="Q" gradientUnits="userSpaceOnUse" x1="1315.269" y1="1568.447" x2="1315.301" y2="1568.445"><stop offset=".054" style="stop-color:#926f40;stop-opacity:0"/><stop offset=".248" style="stop-color:#926f40"/><stop offset=".689" style="stop-color:#906d40;stop-opacity:.3786"/><stop offset=".848" style="stop-color:#8c673d;stop-opacity:.155"/><stop offset=".958" style="stop-color:#845e39;stop-opacity:0"/></linearGradient><path fill="url(#Q)" d="m1315.229 1567.882.111 1.126-.111-1.126z"/><linearGradient id="R" gradientUnits="userSpaceOnUse" x1="1315.611" y1="1571.954" x2="1315.651" y2="1571.951"><stop offset=".054" style="stop-color:#926f40;stop-opacity:0"/><stop offset=".248" style="stop-color:#926f40"/><stop offset=".689" style="stop-color:#906d40;stop-opacity:.3786"/><stop offset=".848" style="stop-color:#8c673d;stop-opacity:.155"/><stop offset=".958" style="stop-color:#845e39;stop-opacity:0"/></linearGradient><path fill="url(#R)" d="m1315.562 1571.251.139 1.401-.139-1.401z"/><linearGradient id="S" gradientUnits="userSpaceOnUse" x1="1028.797" y1="1117.439" x2="1282.842" y2="1099.674"><stop offset=".054" style="stop-color:#926f40;stop-opacity:0"/><stop offset=".248" style="stop-color:#926f40"/><stop offset=".689" style="stop-color:#906d40;stop-opacity:.3786"/><stop offset=".848" style="stop-color:#8c673d;stop-opacity:.155"/><stop offset=".958" style="stop-color:#845e39;stop-opacity:0"/></linearGradient><path fill="url(#S)" d="M1268.515 948.799c-11.04-86.576-9.864-175.729-24.308-261.334-2.237-13.257-15.863-17.255-32.091-17.279-16.847-17.909-73.626-1.011-87.032.634-10.505 1.289-21.05 2.413-31.617 3.167-5.548-11.841-13.67-27.441-21.123-31.854-10.582-6.265-18.772-7.871-25.101-6.234-.863-.772-1.722-1.428-2.572-1.932-54.854-32.477-45.694 59.848-43.704 83.812 4.602 55.409 11.924 110.397 19.529 165.463 17.74 128.458 35.173 261.789 42.902 391.011 4.365 72.986 2.64 168.424 24.57 245.755 36.225 13.459 77.503 27.705 122.644 40.517 32.826 10.051 67.991 19.549 105 27.534.795-2.466 1.096-5.216.791-8.294-8.771-88.777-24.598-176.285-30.578-265.39-8.171-121.724-1.848-244.322-17.31-365.576z"/><linearGradient id="T" gradientUnits="userSpaceOnUse" x1="1316.208" y1="1578.436" x2="1316.335" y2="1578.427"><stop offset=".054" style="stop-color:#926f40;stop-opacity:0"/><stop offset=".248" style="stop-color:#926f40"/><stop offset=".689" style="stop-color:#906d40;stop-opacity:.3786"/><stop offset=".848" style="stop-color:#8c673d;stop-opacity:.155"/><stop offset=".958" style="stop-color:#845e39;stop-opacity:0"/></linearGradient><path fill="url(#T)" d="m1316.053 1576.22.35 3.543.087.878-.437-4.421z"/><linearGradient id="U" gradientUnits="userSpaceOnUse" x1="1316.543" y1="1581.398" x2="1316.586" y2="1581.395"><stop offset=".054" style="stop-color:#926f40;stop-opacity:0"/><stop offset=".248" style="stop-color:#926f40"/><stop offset=".689" style="stop-color:#906d40;stop-opacity:.3786"/><stop offset=".848" style="stop-color:#8c673d;stop-opacity:.155"/><stop offset=".958" style="stop-color:#845e39;stop-opacity:0"/></linearGradient><path fill="url(#U)" d="m1316.489 1580.641.149 1.51-.149-1.51z"/><linearGradient id="V" gradientUnits="userSpaceOnUse" x1="1303.359" y1="1567.666" x2="1303.376" y2="1567.664"><stop offset="0" style="stop-color:#ad8147"/><stop offset=".533" style="stop-color:#c19864"/><stop offset=".753" style="stop-color:#b98f58"/><stop offset="1" style="stop-color:#ad8147"/></linearGradient><path fill="url(#V)" d="m1303.394 1567.938-.054-.547.054.547z"/><linearGradient id="W" gradientUnits="userSpaceOnUse" x1="1303.292" y1="1567.008" x2="1303.313" y2="1567.007"><stop offset="0" style="stop-color:#ad8147"/><stop offset=".533" style="stop-color:#c19864"/><stop offset=".753" style="stop-color:#b98f58"/><stop offset="1" style="stop-color:#ad8147"/></linearGradient><path fill="url(#W)" d="m1303.34 1567.391-.076-.77.076.77z"/><linearGradient id="X" gradientUnits="userSpaceOnUse" x1="1303.427" y1="1568.403" x2="1303.453" y2="1568.401"><stop offset="0" style="stop-color:#ad8147"/><stop offset=".533" style="stop-color:#c19864"/><stop offset=".753" style="stop-color:#b98f58"/><stop offset="1" style="stop-color:#ad8147"/></linearGradient><path fill="url(#X)" d="m1303.485 1568.865-.091-.927.091.927z"/><linearGradient id="Y" gradientUnits="userSpaceOnUse" x1="1303.805" y1="1572.276" x2="1303.841" y2="1572.273"><stop offset="0" style="stop-color:#ad8147"/><stop offset=".533" style="stop-color:#c19864"/><stop offset=".753" style="stop-color:#b98f58"/><stop offset="1" style="stop-color:#ad8147"/></linearGradient><path fill="url(#Y)" d="M1303.885 1572.911a776.85 776.85 0 0 1-.125-1.273l.125 1.273z"/><linearGradient id="Z" gradientUnits="userSpaceOnUse" x1="1303.193" y1="1566.061" x2="1303.226" y2="1566.059"><stop offset="0" style="stop-color:#ad8147"/><stop offset=".533" style="stop-color:#c19864"/><stop offset=".753" style="stop-color:#b98f58"/><stop offset="1" style="stop-color:#ad8147"/></linearGradient><path fill="url(#Z)" d="m1303.264 1566.622-.111-1.126.111 1.126z"/><linearGradient id="aa" gradientUnits="userSpaceOnUse" x1="1303.535" y1="1569.568" x2="1303.575" y2="1569.565"><stop offset="0" style="stop-color:#ad8147"/><stop offset=".533" style="stop-color:#c19864"/><stop offset=".753" style="stop-color:#b98f58"/><stop offset="1" style="stop-color:#ad8147"/></linearGradient><path fill="url(#aa)" d="m1303.624 1570.266-.139-1.401.139 1.401z"/><linearGradient id="ab" gradientUnits="userSpaceOnUse" x1="1303.672" y1="1570.954" x2="1303.712" y2="1570.951"><stop offset="0" style="stop-color:#ad8147"/><stop offset=".533" style="stop-color:#c19864"/><stop offset=".753" style="stop-color:#b98f58"/><stop offset="1" style="stop-color:#ad8147"/></linearGradient><path fill="url(#ab)" d="m1303.76 1571.637-.136-1.371.136 1.371z"/><linearGradient id="ac" gradientUnits="userSpaceOnUse" x1="1303.918" y1="1573.373" x2="1303.945" y2="1573.372"><stop offset="0" style="stop-color:#ad8147"/><stop offset=".533" style="stop-color:#c19864"/><stop offset=".753" style="stop-color:#b98f58"/><stop offset="1" style="stop-color:#ad8147"/></linearGradient><path fill="url(#ac)" d="m1303.977 1573.833-.091-.923c.03.31.06.619.091.923z"/><linearGradient id="ad" gradientUnits="userSpaceOnUse" x1="1303.14" y1="1565.394" x2="1303.146" y2="1565.394"><stop offset="0" style="stop-color:#ad8147"/><stop offset=".533" style="stop-color:#c19864"/><stop offset=".753" style="stop-color:#b98f58"/><stop offset="1" style="stop-color:#ad8147"/></linearGradient><path fill="url(#ad)" d="m1303.153 1565.496-.021-.205.021.205z"/><linearGradient id="ae" gradientUnits="userSpaceOnUse" x1="1044.043" y1="1118.193" x2="1271.118" y2="1102.314"><stop offset="0" style="stop-color:#ad8147"/><stop offset=".533" style="stop-color:#c19864"/><stop offset=".753" style="stop-color:#b98f58"/><stop offset="1" style="stop-color:#ad8147"/></linearGradient><path fill="url(#ae)" d="M1304.327 1577.376c-8.772-88.777-24.598-176.285-30.578-265.39-8.17-121.723-1.849-244.32-17.31-365.575-11.04-86.575-9.864-175.728-24.308-261.334-5.367-31.802-76.259-10.342-91.45-8.479-18.286 2.243-36.689 4.028-55.129 4.126-4.849-10.769-15.629-35.264-25.284-40.98-54.854-32.477-45.694 59.848-43.704 83.811 4.602 55.41 11.924 110.398 19.529 165.463 17.74 128.458 35.173 261.789 42.902 391.011 4.365 72.986 2.64 168.424 24.57 245.755 56.034 20.819 124.145 43.524 199.971 59.885.795-2.464 1.095-5.214.791-8.293z"/><linearGradient id="af" gradientUnits="userSpaceOnUse" x1="1304.566" y1="1579.814" x2="1304.569" y2="1579.814"><stop offset="0" style="stop-color:#ad8147"/><stop offset=".533" style="stop-color:#c19864"/><stop offset=".753" style="stop-color:#b98f58"/><stop offset="1" style="stop-color:#ad8147"/></linearGradient><path fill="url(#af)" d="m1304.563 1579.764.01.098a2.17 2.17 0 0 1-.01-.098z"/><linearGradient id="ag" gradientUnits="userSpaceOnUse" x1="1304.574" y1="1579.877" x2="1304.575" y2="1579.876"><stop offset="0" style="stop-color:#ad8147"/><stop offset=".533" style="stop-color:#c19864"/><stop offset=".753" style="stop-color:#b98f58"/><stop offset="1" style="stop-color:#ad8147"/></linearGradient><path fill="url(#ag)" d="M1304.572 1579.862c.004.04.004.039 0 0z"/><linearGradient id="ah" gradientUnits="userSpaceOnUse" x1="1303.123" y1="1565.208" x2="1303.127" y2="1565.208"><stop offset="0" style="stop-color:#ad8147"/><stop offset=".533" style="stop-color:#c19864"/><stop offset=".753" style="stop-color:#b98f58"/><stop offset="1" style="stop-color:#ad8147"/></linearGradient><path fill="url(#ah)" d="M1303.132 1565.291a13.473 13.473 0 0 1-.016-.166l.016.166z"/><linearGradient id="ai" gradientUnits="userSpaceOnUse" x1="1304.185" y1="1576.805" x2="1304.356" y2="1576.793"><stop offset="0" style="stop-color:#ad8147"/><stop offset=".533" style="stop-color:#c19864"/><stop offset=".753" style="stop-color:#b98f58"/><stop offset="1" style="stop-color:#ad8147"/></linearGradient><path fill="url(#ai)" d="m1303.977 1573.833.35 3.543.236 2.388-.586-5.931z"/><linearGradient id="aj" gradientUnits="userSpaceOnUse" x1="1303.114" y1="1565.108" x2="1303.115" y2="1565.108"><stop offset="0" style="stop-color:#ad8147"/><stop offset=".533" style="stop-color:#c19864"/><stop offset=".753" style="stop-color:#b98f58"/><stop offset="1" style="stop-color:#ad8147"/></linearGradient><path fill="url(#aj)" d="M1303.116 1565.125c-.005-.049-.005-.048 0 0z"/><linearGradient id="ak" gradientUnits="userSpaceOnUse" x1="2020.049" y1="680.045" x2="2020.049" y2="686.285"><stop offset=".261" style="stop-color:#a97c50"/><stop offset=".499" style="stop-color:#a6784e"/><stop offset=".734" style="stop-color:#9c6f47"/><stop offset=".967" style="stop-color:#8d603d"/><stop offset=".994" style="stop-color:#8b5e3c"/></linearGradient><path fill="url(#ak)" d="M2020.474 683.931c5.09 9.162-6.795-12.231 0 0z"/><linearGradient id="al" gradientUnits="userSpaceOnUse" x1="1726.605" y1="1109.869" x2="1985.58" y2="1137.088"><stop offset="0" style="stop-color:#ad8147"/><stop offset=".533" style="stop-color:#c19864"/><stop offset=".753" style="stop-color:#b98f58"/><stop offset="1" style="stop-color:#ad8147"/></linearGradient><path fill="url(#al)" d="M1977.145 966.022c9.358-52.972 23.689-104.871 35.175-157.385 7.8-35.662 27.204-90.42 8.154-124.706-23.618-42.513-115.952-27.035-155.799-23.699-15.459 1.294-57.186 17.306-73.173 23.414-34.581 13.22-28.09 122.844-31.405 150.944-8.771 74.339-9.668 149.743-12.581 224.499-5.416 139.029-14.982 276.941-26.819 415.583-2.336 27.359-11.719 70.368-15.15 111.876 74.186-15.844 140.796-37.879 196.431-58.039.577-6.275.95-12.205 1.34-17.37a754.361 754.361 0 0 1 1.825-20.292 43.95 43.95 0 0 0-.027.204l.034-.271c8.383-81.498 29.098-162.197 37.061-243.961 9.091-93.361 18.613-188.419 34.934-280.797z"/><linearGradient id="am" gradientUnits="userSpaceOnUse" x1="1905.63" y1="1483.302" x2="1905.63" y2="1491.05"><stop offset=".261" style="stop-color:#a97c50"/><stop offset=".499" style="stop-color:#a6784e"/><stop offset=".734" style="stop-color:#9c6f47"/><stop offset=".967" style="stop-color:#8d603d"/><stop offset=".994" style="stop-color:#8b5e3c"/></linearGradient><path fill="url(#am)" d="M1905.114 1491.05c.01-.072.019-.134.027-.205v.001c.058-.425.091-.676.107-.799 1.751-13.033.5-3.999-.101.732l-.006.055a8.779 8.779 0 0 1-.027.216z"/><linearGradient id="an" gradientUnits="userSpaceOnUse" x1="1492.118" y1="1502.87" x2="1492.118" y2="1502.87"><stop offset="0" style="stop-color:#a97c50"/><stop offset=".533" style="stop-color:#c49a6c"/><stop offset=".81" style="stop-color:#b4895c"/><stop offset="1" style="stop-color:#a97c50"/></linearGradient><path fill="url(#an)" d="M1492.118 1502.95c0-.221 0-.206 0 0z"/><linearGradient id="ao" gradientUnits="userSpaceOnUse" x1="1492.094" y1="1506.881" x2="1492.118" y2="1506.881"><stop offset="0" style="stop-color:#a97c50"/><stop offset=".533" style="stop-color:#c49a6c"/><stop offset=".81" style="stop-color:#b4895c"/><stop offset="1" style="stop-color:#a97c50"/></linearGradient><path fill="url(#ao)" d="m1492.118 1502.95-.024 7.806v.057l.024-7.863z"/><linearGradient id="ap" gradientUnits="userSpaceOnUse" x1="1286.478" y1="1157.495" x2="1492.218" y2="1157.495"><stop offset="0" style="stop-color:#ad8147"/><stop offset=".533" style="stop-color:#c19864"/><stop offset=".753" style="stop-color:#b98f58"/><stop offset="1" style="stop-color:#ad8147"/></linearGradient><path fill="url(#ap)" d="m1492.094 1510.812-.016 5.199.016-5.256c.271-88.683-6.769-181.366-18.846-269.189-10.579-76.946 1.885-164.756 3.616-242.609 1.769-79.564 17.706-166.991 5.89-245.641-12.959-46.197-120.11-35.126-153.401-34.375-.899-21.648-23.371-11.213-24.021 4.694-22.29 12.709-18.713 44.945-18.542 66.522.688 87.076 12.65 172.671 11.279 260.59-1.501 96.211 3.961 191.947 12.41 287.755 7.118 80.71 2.14 162.88 13.672 243.044-2.388-17.771.369-5.477 3.353 9.532 49.708 9.476 102.376 15.946 156.858 17.255 9.649-29.209 7.661-73.211 7.732-97.521zm-.016 5.252c0 .022 0 .019 0 0z"/><linearGradient id="aq" gradientUnits="userSpaceOnUse" x1="1726.045" y1="759.143" x2="1726.045" y2="766.464"><stop offset=".261" style="stop-color:#a97c50"/><stop offset=".499" style="stop-color:#a6784e"/><stop offset=".734" style="stop-color:#9c6f47"/><stop offset=".967" style="stop-color:#8d603d"/><stop offset=".994" style="stop-color:#8b5e3c"/></linearGradient><path fill="url(#aq)" d="M1721.842 765.938c-1.274 4.046 19.664-17.142 0 0z"/><linearGradient id="ar" gradientUnits="userSpaceOnUse" x1="1505.118" y1="1160.801" x2="1734.291" y2="1160.801"><stop offset="0" style="stop-color:#ad8147"/><stop offset=".533" style="stop-color:#c19864"/><stop offset=".753" style="stop-color:#b98f58"/><stop offset="1" style="stop-color:#ad8147"/></linearGradient><path fill="url(#ar)" d="M1677.585 714.026c-36.1-.727-71.878-.078-107.82 3.934-19.9.811-53.618-3.073-48.893 28.6-27.773 36.775-10.701 99.648-9.113 141.579 7.981 210.848 14.573 421.431 23.703 632.259 1.103 25.454-4.717 57.842-4.009 87.439 49.933-1.269 98.064-6.889 143.674-15.15-.104-15.808-1.136-30.673-.769-40.8 2.235-61.623 2.883-123.288 5.705-184.892 4.859-106.094 13.7-212.049 25.193-317.621 5.056-46.445 8.186-210.618 11.23-257.243.374-5.727.521-9.744.519-12.477 1.089-2.478 2.65-6.772 4.836-13.716 38.454-33.521-22.451-51.473-44.256-51.912zm44.914 50.555c.544-.887 2.274-2.953.114-.149a9.475 9.475 0 0 1-.114.149z"/><linearGradient id="as" gradientUnits="userSpaceOnUse" x1="1722.585" y1="764.356" x2="1722.585" y2="764.581"><stop offset=".261" style="stop-color:#a97c50"/><stop offset=".499" style="stop-color:#a6784e"/><stop offset=".734" style="stop-color:#9c6f47"/><stop offset=".967" style="stop-color:#8d603d"/><stop offset=".994" style="stop-color:#8b5e3c"/></linearGradient><path fill="url(#as)" d="m1722.499 764.581.114-.149c.169-.22-.086.102-.114.149z"/><radialGradient id="at" cx="1503.807" cy="695.575" r="480.229" gradientTransform="matrix(0 -1 6 0 -2669.642 2199.382)" gradientUnits="userSpaceOnUse"><stop offset=".194" style="stop-color:#845e39"/><stop offset=".321" style="stop-color:#845e39;stop-opacity:0"/></radialGradient><path opacity=".73" fill="url(#at)" d="M1505.869 683.141c-325.135 0-595.733-55.008-653.329-127.68-3.444-4.342-8.467-9.078-10.357-13.163l46.314 207.626c147.818 60.945 371.062 98.929 617.321 98.929 245.71 0 464.789-38.118 612.601-98.829l47.011-207.377c-1.721 4.698-2.858 6.583-6.732 11.696-57.657 72.653-327.746 128.798-652.829 128.798z"/><radialGradient id="au" cx="1385.253" cy="1208.566" r="480.229" gradientTransform="matrix(0 -1 3.8883 0 -3195.392 2593.82)" gradientUnits="userSpaceOnUse"><stop offset=".194" style="stop-color:#845e39"/><stop offset=".394" style="stop-color:#845e39;stop-opacity:0"/></radialGradient><path opacity=".73" fill="url(#au)" d="M1505.479 1196.132c-261.737 0-479.571-55.008-525.937-127.681-2.771-4.342-6.815-9.078-8.337-13.163l37.284 207.627c118.996 60.945 298.708 98.928 496.951 98.928 197.799 0 374.159-38.117 493.15-98.828l37.843-207.378c-1.385 4.697-2.301 6.582-5.419 11.696-46.415 72.655-263.839 128.799-525.535 128.799z"/><linearGradient id="av" gradientUnits="userSpaceOnUse" x1="838.6" y1="681.214" x2="2171.273" y2="681.214"><stop offset="0" style="stop-color:#926f40"/><stop offset=".173" style="stop-color:#a47e4e"/><stop offset=".421" style="stop-color:#b9915e"/><stop offset=".6" style="stop-color:#c19864"/><stop offset=".727" style="stop-color:#b78f5c"/><stop offset=".929" style="stop-color:#9c7848"/><stop offset="1" style="stop-color:#926f40"/></linearGradient><path fill="url(#av)" d="M1507.015 668.78c-327.452 0-599.978-55.009-657.983-127.681-3.468-4.342-8.527-9.078-10.431-13.163l46.644 207.627c148.872 60.945 373.705 98.928 621.719 98.928 247.461 0 468.101-38.119 616.965-98.829l47.346-207.377c-1.733 4.698-2.879 6.583-6.78 11.696-58.069 72.655-330.082 128.799-657.48 128.799z"/><linearGradient id="aw" gradientUnits="userSpaceOnUse" x1="952.455" y1="1180.63" x2="2052.811" y2="1180.63"><stop offset="0" style="stop-color:#926f40"/><stop offset=".173" style="stop-color:#a47e4e"/><stop offset=".421" style="stop-color:#b9915e"/><stop offset=".6" style="stop-color:#c19864"/><stop offset=".727" style="stop-color:#b78f5c"/><stop offset=".929" style="stop-color:#9c7848"/><stop offset="1" style="stop-color:#926f40"/></linearGradient><path fill="url(#aw)" d="M1506.517 1176.559c-269.357 0-493.533-55.009-541.249-127.681-3.315-3.961-11.247-25.803-12.813-29.888l49.204 225.806c122.46 60.945 300.803 97.474 504.815 97.474 203.559 0 376.849-34.324 499.304-95.034l47.033-218.514c-1.574 4.018-6.075 20.199-9.343 24.097-47.767 72.654-267.636 123.74-536.951 123.74z"/><linearGradient id="ax" gradientUnits="userSpaceOnUse" x1="1503.103" y1="493.112" x2="1513.144" y2="684.7"><stop offset="0" style="stop-color:#845e39"/><stop offset="1" style="stop-color:#ad8147"/></linearGradient><path fill="url(#ax)" d="M2164.493 539.981c-58.067 72.654-330.08 128.798-657.479 128.798-327.451 0-599.978-55.008-657.983-127.68-3.468-4.342-8.527-9.078-10.431-13.163l4.583 20.401c48.877 75.23 326.54 132.877 661.753 132.877 335.235 0 612.91-57.654 661.762-132.891l4.575-20.039c-1.733 4.699-2.878 6.584-6.78 11.697z"/><linearGradient id="ay" gradientUnits="userSpaceOnUse" x1="1504.937" y1="834.492" x2="1504.937" y2="527.937"><stop offset="0" style="stop-color:#845e39"/><stop offset=".636" style="stop-color:#845e39;stop-opacity:0"/></linearGradient><path fill="url(#ay)" d="M1507.015 668.78c-327.452 0-599.978-55.008-657.983-127.68-3.468-4.342-8.527-9.078-10.431-13.163l46.644 207.626c148.872 60.945 373.705 98.929 621.719 98.929 247.461 0 468.101-38.118 616.965-98.829l47.346-207.377c-1.733 4.698-2.879 6.583-6.78 11.696-58.069 72.653-330.082 128.798-657.48 128.798z"/><linearGradient id="az" gradientUnits="userSpaceOnUse" x1="1502.633" y1="1342.27" x2="1502.633" y2="1018.991"><stop offset="0" style="stop-color:#845e39"/><stop offset=".636" style="stop-color:#845e39;stop-opacity:0"/></linearGradient><path fill="url(#az)" d="M1506.517 1176.559c-269.357 0-493.533-55.009-541.249-127.681-3.315-3.961-11.247-25.803-12.813-29.888l49.204 225.806c122.46 60.945 300.803 97.474 504.815 97.474 203.559 0 376.849-34.324 499.304-95.034l47.033-218.514c-1.574 4.018-6.075 20.199-9.343 24.097-47.767 72.654-267.636 123.74-536.951 123.74z"/><linearGradient id="aA" gradientUnits="userSpaceOnUse" x1="838.782" y1="1067.024" x2="2171.455" y2="1067.024"><stop offset=".121" style="stop-color:#472b15"/><stop offset=".521" style="stop-color:#c2b59b"/><stop offset="1" style="stop-color:#472b15"/></linearGradient><path opacity=".13" fill="url(#aA)" d="M2171.455 527.3c-1.914 4.018-4.217 8.198-8.311 13.479-58.067 72.654-330.557 127.645-657.955 127.645-327.452 0-599.978-55.009-657.983-127.681-3.584-4.542-6.521-9.958-8.424-14.043l228.22 983.695c-.13.039-.234.082-.268.137 103.794 40.317 263.479 96.818 440.526 96.818 173.271 0 326.509-54.311 430.337-93.154l.839-3.664h.295L2171.455 527.3z"/></svg>