<svg xmlns="http://www.w3.org/2000/svg" width="198" height="198" viewBox="158.021 166.522 198 198" xml:space="preserve"><linearGradient id="a" gradientUnits="userSpaceOnUse" x1="242.89" y1="220.381" x2="271.152" y2="380.664"><stop offset="0" style="stop-color:#845e39"/><stop offset="1" style="stop-color:#744f2c"/></linearGradient><linearGradient id="b" gradientUnits="userSpaceOnUse" x1="254.928" y1="204.227" x2="254.928" y2="251.788"><stop offset="0" style="stop-color:#845e39"/><stop offset=".156" style="stop-color:#795533"/><stop offset=".486" style="stop-color:#674527"/><stop offset=".778" style="stop-color:#5d3c20"/><stop offset="1" style="stop-color:#59391d"/></linearGradient><linearGradient id="c" gradientUnits="userSpaceOnUse" x1="253.83" y1="220.284" x2="253.83" y2="276.883"><stop offset=".37" style="stop-color:#744f2c"/><stop offset=".988" style="stop-color:#845e39"/></linearGradient><path fill="none" stroke="#744F2C" stroke-miterlimit="10" d="M167.021 238.719v-63.103M166.552 175.522h62.825M347.021 238.124v-63.103M347.502 175.522h-62.825M167.015 292.881v63.103M166.546 355.522h62.825M347.015 292.862v63.104M347.496 355.522h-62.825M288.433 355.522h-62.824M288.433 175.522h-62.824M167.015 233.971v63.103M347.021 233.971v63.103"/><path fill="#744F2C" d="M166.649 176.444c.824 5.17-.377 10.198-.675 15.349-.269 4.658-.317 9.358-.364 14.022-.018 1.846.73 3.795 1.214 5.551.881 3.197.489 6.169-.029 9.375-.694 4.292.578 8.748-.233 13.104-.109.587.769.844.904.249.378-1.657.424-3.034.361-4.753-.125-3.4.813-6.344 1.648-9.608 1.189-4.65.22-9.221-.038-13.919-.291-5.286-.542-10.504-.973-15.793-.379-4.657.321-9.312-.573-13.921-.158-.823-1.37-.462-1.242.344zM168.287 175.829c3.466-.724 7.397.388 10.898.606 5.435.338 10.872.057 16.294.617 2.445.252 4.705.297 7.154.07 2.415-.224 4.291-1.34 6.827-1.53 4.241-.319 8.542 1.237 12.644.482.319-.059.278-.52 0-.603-4.009-1.195-8.54-.626-12.644-.186-5.31.57-10.521-.702-15.802-1.312-5.401-.623-10.889-.234-16.304-.118-2.958.063-6.413.651-9.113 1.866-.063.029-.016.121.046.108zM289.74 176.135c3.711 1.242 7.833.796 11.715.944 5.138.195 10.277.538 15.413.799 9.192.468 18.574-1.051 27.653-2.196.522-.066.533-.766 0-.82-9.11-.931-18.474.227-27.653.205-4.49-.011-8.982-.012-13.472.049-4.441.06-9.408-.612-13.656.794a.117.117 0 0 0 0 .225zM346.537 176.522c.335 4.897-.895 9.694-.895 14.586 0 5.506.638 10.656.097 16.208-.491 5.041-.949 10.075-1.04 15.142-.053 2.927-.338 7.584 2.239 9.646.081.064.192.025.2-.083.606-8.777.58-17.537 1.426-26.336.498-5.183.169-9.766-.727-14.875-.49-2.8-.9-5.161-.679-8.008.169-2.174.211-4.202-.162-6.344-.044-.258-.477-.198-.459.064zM347.134 297.522c-.499 4.246-2.254 8.739-2.288 13-.044 5.347.71 10.634 1.103 15.957.348 4.716-.439 9.358-.835 14.043-.418 4.947 1.571 9.39 1.142 14.25-.101 1.136 1.827 1.401 1.995.27.63-4.248-.27-8.489-.137-12.77.165-5.319 1.135-10.441.774-15.793-.36-5.344-1.438-10.598-1.692-15.957-.206-4.36.815-8.7.207-13.036-.024-.166-.252-.102-.269.036zM288.521 355.812l1.5.02c.075.001.075-.118 0-.117l-1.5.02c-.051-.001-.051.076 0 .077z"/><path fill="#744F2C" d="M303.974 355.942c6.067 2.206 13.476 1.209 19.768.686 3.629-.302 7.222-.51 10.865-.513 3.804-.002 7.846.646 11.486-.579a.275.275 0 0 0 0-.527c-6.096-2.13-14.473-1.086-20.822-.469-7.184.698-14.036 1.323-21.25 1.057-.209-.008-.225.28-.047.345zM166.983 309.762c-1.111 6.897-1.127 13.616-.973 20.596.179 8.056-.263 16.122-.068 24.165.035 1.44 2.38 1.883 2.609.354 1.111-7.435.661-15.146.441-22.635-.222-7.594-.675-14.992-1.935-22.479-.005-.038-.068-.038-.074-.001z"/><path fill="#744F2C" d="M223.021 355.054c-9.523-1.125-19.351.257-28.921.173-4.984-.044-10.047.057-15.015-.23-3.742-.217-8.052-.735-11.704.268-.504.139-.504.879 0 1.018 3.106.854 6.663.128 9.846.016 4.989-.176 9.974.378 14.965.477 10.248.203 20.586-.476 30.829-.782.619-.021.586-.871 0-.94zM227.781 175.81c4.053-.759 8.781 0 12.824.495 4.778.584 9.204.612 14.018.451 4.945-.167 9.885-.452 14.831-.62 2.77-.094 8.046.956 10.288-.892.123-.102.123-.341 0-.442-2.269-1.87-7.557-.571-10.288-.428-5.567.292-11.117.66-16.693.768-8.202.158-17.618-4.156-25.009.598-.039.024-.014.078.029.07zM348.271 235.072c.064 0 .064-.1 0-.1s-.064.1 0 .1zM347.23 237.231c-1.918 2.029-1.3 5.706-1.181 8.272.197 4.287.42 8.771.987 13.019.026.197.331.361.437.118 1.238-2.841.687-6.269.405-9.268-.201-2.135-.403-4.26-.486-6.404-.075-1.915.467-3.865-.064-5.712-.012-.041-.068-.058-.098-.025zM347.408 265.741c-1.269 3.459-.938 7.359-.887 10.98.073 5.174-.664 10.366.779 15.431.131.459.818.474.941 0 1.184-4.561.271-9.46.339-14.13.06-4.144-1.292-8.115-.942-12.25.012-.14-.187-.147-.23-.031zM166.88 240.272c-.384 8.5-.409 16.994-.864 25.5-.258 4.825.713 9.483-.064 14.308-.577 3.581-.216 6.09.252 9.692.068.521.745.819 1.056.286 1.701-2.923.412-5.982.884-9.375.522-3.751.165-7.461-.087-11.219-.648-9.653.082-19.494-.396-29.192-.024-.502-.758-.503-.781 0zM230.771 356.062h.25c.05 0 .05-.078 0-.078h-.25c-.05-.001-.05.078 0 .078zM235.162 356.168c6.523 1.04 13.4.404 19.984.291 3.315-.058 6.629-.35 9.938-.562 3.417-.22 6.689.588 10.036-.268.354-.09.355-.626 0-.715-2.734-.688-5.245-.346-8.049-.04-3.83.418-8.056-.293-11.925-.289-6.563.007-13.499-.268-19.984.791-.392.065-.394.729 0 .792zM167.057 175.333c1.273-.792.986-3.126.168-4.154-1.435-1.803-3.588-2.064-5.704-2.34-.131-.017-.192.129-.177.232.229 1.541.128 3.678 1.179 4.953.927 1.125 3.416 1.626 4.748 1.564.287-.013.467-.451.16-.59-1.377-.619-3.271-.345-4.443-1.438-1.083-1.01-1.109-3.256-1.289-4.587l-.226.226c1.581.227 3.42.908 4.688 1.894a2.923 2.923 0 0 1 1.13 2.027c.08.775-.406 1.412-.339 2.152.003.051.056.092.105.061z"/><path fill="#744F2C" d="M163.658 171.304c.364.924.988 1.644 1.632 2.387.402.465.813.922 1.21 1.391.308.363.54.811.964 1.037.094.05.176-.031.164-.126-.109-.809-1.084-1.579-1.605-2.159-.754-.839-1.507-1.692-2.151-2.62-.071-.103-.266-.042-.214.09z"/><path fill="#744F2C" d="M167.322 175.552c1.961-4.085 6.649-1.143 9.914-2.924 2.822-1.54 1.121-6.075-1.989-5.51-1.786.324-4.006 2.702-1.354 3.567 1.756.573 2.469-1.375.659-1.776-.107-.024-.173.079-.132.172.228.521.885 1.208-.146 1.026-1.873-.33-.261-1.79.73-2.152 2.355-.859 3.507 2.619 1.792 3.92-.833.632-2.08.615-3.072.635-2.423.048-6.352-.381-6.511 3.011-.003.058.083.084.109.031zM167.606 176.499c-.491-1.555-3.616.445-4.167 1.031-1.039 1.105-1.195 3.011-.9 4.419.488 2.326 1.853 4.589-.091 6.714l-2.41-1.215c.003-.529.187-.974.551-1.336.813-.94 1.421-.208.833.707-.283.441.415.842.698.408.777-1.19.76-3.344-1.247-2.313-2.104 1.082-2.165 3.787-.174 5.043.982.62 2.169-.512 2.73-1.151 1.355-1.544.967-3.272.328-5.039-.851-2.352-1.057-4.954 1.334-6.357.231-.136 2.219-.883 2.384-.813.067.029.156-.016.131-.098zM348.014 175.21c.065-.726-.349-1.394-.339-2.152.012-.826.543-1.508 1.13-2.027 1.165-1.029 3.177-1.677 4.688-1.894l-.226-.226c-.193 1.423-.236 3.465-1.289 4.587-1.064 1.133-3.129.847-4.444 1.438-.307.139-.127.577.16.59 1.423.066 3.717-.469 4.748-1.564 1.089-1.157.965-3.512 1.179-4.953.016-.103-.046-.25-.177-.232-2.051.267-4.044.508-5.538 2.131-.941 1.023-1.368 3.51.003 4.363.049.03.1-.01.105-.061z"/><path fill="#744F2C" d="M351.092 171.151c-.644.928-1.396 1.781-2.15 2.62-.521.58-1.496 1.351-1.605 2.159-.013.095.069.176.164.126.422-.226.662-.672.964-1.037.392-.473.806-.928 1.21-1.391.647-.739 1.27-1.465 1.633-2.387.051-.131-.144-.192-.216-.09z"/><path fill="#744F2C" d="M347.752 175.46c-.158-3.364-4.089-3.005-6.512-3.011-.945-.002-1.899-.07-2.773-.46-2.439-1.088-.939-4.463 1.493-4.095 1.037.157 2.438 1.558.937 2.097-1.157.416-.618-.365-.352-.972.041-.093-.025-.196-.133-.172-1.849.41-1.084 2.185.659 1.776 2.808-.658.255-3.275-1.354-3.567-3.351-.608-4.444 3.754-1.989 5.51 3.156 2.256 7.819-1.439 9.914 2.924.026.053.113.027.11-.03zM347.488 176.536c.066-.028 1.725.534 1.908.595 2.65.894 2.598 3.614 2.047 5.893-.461 1.91-1.352 3.267-.313 5.145.643 1.164 1.7 1.987 3.035 1.769 2.485-.406 1.59-3.997.199-4.946-1.975-1.348-2.432.776-1.519 2.173.283.434.98.033.697-.408-.317-.495-.511-1.518.401-1.046.632.327.938.991.982 1.675l-2.41 1.215c-.923-.836-1.275-1.927-1.058-3.271.148-.938.601-1.85.827-2.775.411-1.687.403-3.564-.69-4.997-.511-.668-3.743-2.682-4.236-1.121-.025.082.065.127.13.099zM166.49 355.899c-.066.727.349 1.394.339 2.152-.011.826-.543 1.508-1.13 2.027-1.165 1.029-3.176 1.676-4.688 1.893l.226.227c.192-1.423.236-3.465 1.289-4.587 1.064-1.133 3.128-.847 4.443-1.438.308-.139.127-.576-.16-.59-1.422-.066-3.717.469-4.748 1.564-1.089 1.156-.965 3.512-1.179 4.953-.015.104.046.25.177.232 2.05-.268 4.044-.508 5.538-2.131.942-1.023 1.369-3.51-.002-4.363-.048-.029-.101.011-.105.061z"/><path fill="#744F2C" d="M163.411 359.958c.644-.928 1.397-1.781 2.151-2.619.521-.58 1.496-1.352 1.605-2.16.013-.094-.07-.176-.164-.125-.423.225-.663.672-.964 1.037-.392.473-.806.928-1.21 1.391-.646.738-1.269 1.465-1.632 2.387-.051.13.143.192.214.089z"/><path fill="#744F2C" d="M166.751 355.649c.158 3.364 4.088 3.005 6.511 3.012.946.002 1.9.07 2.774.46 2.439 1.089.939 4.463-1.494 4.095-1.037-.156-2.438-1.558-.937-2.098 1.158-.416.619.365.353.973-.041.093.025.195.132.172 1.849-.41 1.084-2.186-.659-1.776-2.808.658-.255 3.274 1.354 3.567 3.35.607 4.444-3.755 1.989-5.51-3.155-2.256-7.819 1.439-9.914-2.924-.025-.053-.111-.027-.109.029zM167.016 354.573c-.066.029-1.724-.533-1.907-.595-2.651-.894-2.599-3.614-2.048-5.893.461-1.91 1.352-3.267.314-5.145-.643-1.163-1.701-1.987-3.036-1.769-2.486.406-1.59 3.996-.2 4.945 1.975 1.348 2.432-.775 1.52-2.173-.284-.435-.981-.032-.698.408.318.495.512 1.519-.401 1.046-.632-.327-.938-.99-.983-1.675l2.41-1.216c.923.837 1.276 1.928 1.059 3.271-.149.938-.602 1.85-.828 2.775-.411 1.686-.403 3.564.69 4.996.51.668 3.744 2.682 4.236 1.121.026-.078-.063-.123-.128-.096zM347.448 355.901c-1.274.792-.987 3.126-.169 4.154 1.436 1.803 3.589 2.063 5.704 2.34.131.017.192-.13.177-.232-.229-1.541-.128-3.679-1.179-4.953-.928-1.126-3.416-1.627-4.748-1.564-.287.013-.467.451-.16.59 1.378.619 3.271.344 4.444 1.438 1.082 1.01 1.108 3.256 1.289 4.588l.226-.227c-1.58-.227-3.421-.908-4.688-1.894a2.923 2.923 0 0 1-1.13-2.026c-.08-.775.406-1.412.339-2.152-.005-.052-.056-.093-.105-.062z"/><path fill="#744F2C" d="M350.846 359.931c-.364-.925-.988-1.645-1.633-2.388-.401-.465-.813-.923-1.21-1.391-.309-.363-.539-.811-.964-1.037-.095-.05-.177.031-.164.126.109.809 1.084 1.579 1.605 2.159.753.839 1.507 1.692 2.15 2.62.073.102.268.042.216-.089z"/><path fill="#744F2C" d="M347.182 355.682c-1.961 4.085-6.649 1.143-9.913 2.924-2.822 1.54-1.122 6.075 1.988 5.51 1.786-.324 4.006-2.702 1.354-3.567-1.756-.572-2.469 1.375-.659 1.776.107.024.174-.079.133-.172-.229-.521-.886-1.208.146-1.026 1.872.33.261 1.79-.731 2.152-2.355.859-3.507-2.619-1.791-3.921.832-.632 2.079-.615 3.072-.635 2.422-.048 6.352.382 6.511-3.011.002-.057-.084-.083-.11-.03zM346.898 354.735c.491 1.555 3.616-.445 4.167-1.031 1.038-1.105 1.195-3.011.899-4.419-.487-2.326-1.853-4.589.092-6.714l2.409 1.215a1.825 1.825 0 0 1-.551 1.336c-.813.94-1.421.209-.833-.707.283-.44-.414-.842-.697-.408-.777 1.19-.76 3.345 1.246 2.313 2.104-1.082 2.165-3.787.174-5.044-.981-.619-2.17.512-2.73 1.151-1.355 1.544-.967 3.272-.328 5.038.851 2.352 1.057 4.955-1.334 6.357-.231.136-2.219.883-2.385.813-.065-.028-.154.018-.129.1zM184.837 173.956c-.511-.399-1.223-.472-1.457-1.16-.205-.603.277-1.377.558-1.874.544-.96 1.252-1.814 1.804-2.771l-.469-.198c-.38 2.325 1.229 5.335-1.591 6.496-.398.164-.251.711.178.645 3.425-.531 1.483-4.835 1.909-7.004.055-.282-.311-.454-.469-.198-.86 1.387-2.135 2.604-2.467 4.261-.231 1.153.832 2.181 1.963 1.959.065-.012.096-.113.041-.156zM167.759 177.522c-.313 7.149-3.097 13.919-2.942 21.205.13 6.124 3.087 11.481 2.372 17.795-.011.096.134.105.161.022 1.746-5.405-1.258-10.991-1.964-16.34-1.013-7.681 2.628-15.103 2.396-22.682 0-.015-.022-.015-.023 0z"/><path fill="#744F2C" d="M168.465 176.369c6.639 3.28 13.931 1.806 20.827.102 5.269-1.302 9.928-2.412 15.414-1.663 4.409.602 8.579 1.818 13.065 1.473.328-.025.336-.508 0-.516-7.736-.179-15.352-2.733-23.065-1.227-8.79 1.716-17.284 5.315-26.155 1.627-.117-.048-.198.148-.086.204zM235.579 174.981c6.585-2.451 13.471-2.468 20.325-1.219 6.251 1.139 12.25 3.884 18.685 2.503.275-.06.217-.522-.067-.495-12.933 1.216-26.479-7.785-39.109-1.185-.217.113-.066.483.166.396zM297.521 176.704c10.03-.886 19.508-3.949 29.611-1.725 7.245 1.596 14.572 4.637 21.763 1.255.252-.118.072-.544-.189-.45-9.161 3.319-17.02-1.623-26.042-2.365-8.512-.701-16.864 1.491-25.19 2.927-.203.036-.156.376.047.358z"/><path fill="#744F2C" d="M347.088 175.59c-2.958 3.78.478 7.834.965 12.088.813 7.091-2.057 13.645-2.499 20.594-.016.247.367.292.426.058 1.318-5.239 2.503-10.66 2.894-16.058.142-1.952.059-4.224-.322-6.146-.624-3.15-3.309-7.053-1.058-10.225.169-.236-.225-.541-.406-.311zM346.481 211.749c-1.847 2.569-3.751 5.043-4.168 8.255-.342 2.632 1.646 5.822 2.288 8.315.054.206.324.139.346-.047.237-2.091-.864-3.879-1.577-5.788-1.455-3.894 1.648-7.362 3.191-10.689.026-.054-.045-.095-.08-.046zM166.986 245.022c.796 9.713 3.581 18.536-1.781 27.503-3.52 5.885-.451 10.338 2.008 15.928.163.37.794.103.653-.275-1.285-3.45-3.415-6.362-3.707-10.155-.27-3.503 3.039-6.976 4.188-10.16 2.542-7.045-.182-15.777-1.292-22.849-.006-.04-.073-.031-.069.008zM166.986 318.522c-.125 5.928-4.599 12.157-3.118 18.111 1.673 6.726 8.212 11.909 7 19.277-.051.311.182.598.515.515 2.768-.689 5.614-.552 8.404-1.097.066-.013.049-.116-.016-.115-2.453.033-7.901 1.351-7.824-1.844.076-3.108-1.865-6.227-3.367-8.779-2.734-4.646-4.659-8.441-3.54-14.017.841-4.188 2.286-7.708 2.015-12.052-.002-.043-.068-.044-.069.001z"/><path fill="#744F2C" d="M177.696 355.544c5.104.768 9.68 3.507 14.86 3.752 2.208.104 4.259-.926 6.214-1.802 5.25-2.353 9.652-3.515 15.184-1.229.263.108.453-.344.194-.461-5.568-2.507-10.117-.869-15.517 1.361-7.817 3.229-13.305-1.563-20.86-2.175-.314-.024-.388.506-.075.554zM242.271 356.069c4.621.441 8.902 2.287 13.574 2.182 5.885-.133 9.645-3.623 15.904-2.149.105.024.139-.119.043-.158-4.066-1.683-7.288-.685-11.298.703-6.511 2.254-11.807-.623-18.224-.671-.061 0-.058.087.001.093zM311.771 356.116c3.834-.306 6.741-2.02 10.338-3.275 4.73-1.653 8.587 1.232 12.807 2.815 3.188 1.196 8.437 3.134 11.304.343 1.197-1.166.62-3.511.427-4.87-.769-5.4-2.465-10.462-2.245-15.997.183-4.612 2.489-8.414 4.161-12.574 1.578-3.926-.503-7.628-.934-11.535-.05-.448-.747-.466-.715 0 .239 3.471 1.819 6.454 1.305 10.059-.461 3.228-2.789 6.25-3.669 9.433-2.124 7.679.62 14.924 1.577 22.509.978 7.743-15.204.075-17.146-.651-6.203-2.319-11.403 2.459-17.235 3.561-.104.017-.08.191.025.182zM347.215 250.74c-2.13 4.966-2.777 10.014-1.919 15.354.435 2.703 1.636 5.131 2.893 7.521.908 1.729 1.715 3.437 2.384 5.281 1.124 3.102-1.155 6.017-1.994 8.824-.065.221.248.344.364.153 2.601-4.272 3.301-7.38 1.277-11.959-1.492-3.377-3.325-6.377-4.209-10.018-1.228-5.051.122-10.207 1.322-15.107.017-.068-.088-.119-.118-.049zM167.747 186.585c.238-.601.247-1.256.736-1.731.382-.371 1.032-.479 1.531-.583 1.019-.211 2.084-.282 2.972-.878l-.585-.585c-.668 1.002-1.101 2.141-1.718 3.175-.337.565-.771 1.06-1.465 1.104-.718.046-1.242-.562-1.947-.525-.17.009-.249.17-.182.317.551 1.218 2.455 1.162 3.366.433 1.228-.981 1.625-2.792 2.619-3.987.294-.354-.083-.949-.518-.671-1.163.74-2.664.54-3.925 1.024-1.179.453-1.899 1.777-1.311 2.963.098.201.36.114.427-.056zM264.928 174.865c-.939-.874-.852-1.562-.151-2.543.595-.834 1.422-1.437 2.064-2.229.069-.085-.016-.213-.12-.156-1.579.851-5.101 3.931-2.063 5.278.217.096.469-.165.27-.35z"/><path fill="#744F2C" d="M266.476 170.26c-.207.812-.159 1.635-.147 2.465.019 1.451-.535 2.088-1.854 2.628-.209.085-.133.377.094.339 2.907-.491 1.652-3.417 1.998-5.407.01-.058-.076-.084-.091-.025zM250.021 176.196c-3.113.05-2.104 4.672-3.468 6.358l.436.436c1.374-1.726 7.345-3.874 4.252-6.688-.296-.269-.739.173-.439.439 2.539 2.255-3.129 4.352-4.296 5.875-.212.277.27.649.484.374.701-.9.891-1.917 1.02-3.027.087-.75.161-1.49.476-2.185.318-.701 1.019-1.007 1.59-1.453.053-.041.006-.13-.055-.129zM167.741 285.462c-.452-2.676 3.668-2.327 5.185-3.424l-.373-.483c-1.157 1.485-2.076 5.206-4.561 4.088-.506-.227-.95.481-.443.76 3.04 1.668 4.329-2.545 5.487-4.475.178-.296-.248-.638-.483-.373-1.32 1.486-6.685.689-5.23 4.083.11.256.458.058.418-.176zM166.049 253.921c-.829-.142-1.74-.073-2.422-.648-.531-.448-.647-1.27-.748-1.913-.221-1.412-.151-2.854-.706-4.198l-.762.321c.817 1.072 1.842 1.851 2.899 2.668 1.501 1.161 1.87 2.252 1.859 4.122-.002.406.573.467.69.093 1.164-3.703-2.965-5.029-4.794-7.388-.25-.322-.856.028-.697.406.721 1.709.408 3.628 1.042 5.357.563 1.537 2.231 2.031 3.664 1.374.081-.038.062-.179-.025-.194zM177.551 354.79c.417-.581.242-1.413.538-2.077.3-.673.971-1.054 1.605-1.354 1.232-.583 2.493-.963 3.555-1.857l-.507-.392c-.542 1.124-.819 2.329-1.252 3.492-.695 1.866-2.212 1.617-3.888 1.377-.383-.055-.54.453-.162.588 1.364.485 3.108.556 4.09-.676.981-1.23 1.099-3.058 1.77-4.455a.325.325 0 0 0-.507-.392c-1.262 1.068-2.974 1.255-4.319 2.178-.932.638-2 2.612-.977 3.575.017.016.041.012.054-.007zM200.097 356.474c-1.152.622-1.902 1.55-1.845 2.896.063 1.47 1.168 2.554.184 3.956l.67.393c.933-1.468 2.496-2.698 3.044-4.403.533-1.657-.408-2.892-1.687-3.872-.343-.263-.794.325-.462.599 1.378 1.133 2.104 2.364 1.2 4.077-.612 1.16-1.765 2.228-2.705 3.129-.362.347.185.892.549.549.743-.7.796-1.574.58-2.526-.133-.583-.363-1.139-.494-1.724-.265-1.181.551-1.869 1.384-2.53.319-.254-.087-.723-.418-.544zM262.284 355.119c-.797-1.397.069-1.985 1.218-2.703.432-.269.871-.531 1.269-.849.271-.217.664-.674.751-.68l-.365-.365c-.052 1.169-.271 2.482-.637 3.595-.189.576-.526 1.09-1.019 1.447-.632.459-1.376.207-2.048.459-.208.078-.26.345-.062.472 1.201.769 2.833-.219 3.441-1.302.793-1.409.534-3.096 1.041-4.574.081-.237-.13-.447-.353-.462-.629-.041-.934.572-1.424.918-.663.468-1.423.795-2.059 1.303-1.147.916-1.236 2.052-.233 3.11.243.255.65-.072.48-.369zM331.907 355.54c-1.344-.627-2.425-.046-2.688 1.395-.148.813-.071 1.666-.015 2.485.049.707.282 1.729-.028 2.4-.179.386.31.854.629.485.996-1.147 2.525-2.184 3.09-3.646.456-1.183.132-2.659-1.031-3.295-.132-.071-.321.048-.267.205.434 1.262 1.189 1.997.339 3.336-.682 1.074-1.821 1.923-2.697 2.833l.629.485c.495-.918.154-2.276.08-3.257-.051-.67-.086-1.354.027-2.02.169-.989.867-1.041 1.726-.916.273.042.507-.349.206-.49zM348.986 323.213c-.612-2.068 3.393-1.947 4.62-2.131l-.313-.537c-.745.78-1.237 1.761-1.81 2.666-.311.493-.686 1.057-1.257 1.269-.667.246-1.352-.826-1.695-1.218-.277-.317-.803.096-.579.447.636 1.002 1.852 1.985 2.978 1.05 1.211-1.006 1.745-2.622 2.818-3.759.235-.25-.006-.587-.313-.537-1.471.234-6.141.301-4.857 2.922.113.229.478.067.408-.172zM348.163 272.562c.414-1.183.618-2.086 1.887-2.562.926-.348 1.908-.48 2.821-.865l-.424-.552c-.644.932-.94 2.03-1.385 3.06-.725 1.678-1.956 1.196-3.372.592-.386-.165-.718.349-.338.576 1.124.674 2.743 1.216 3.749.08.956-1.08 1.029-2.708 1.936-3.853.218-.274.028-.742-.365-.628-1.91.556-6.199 1.097-4.777 4.187.058.125.23.072.268-.035zM346.553 242.194c-1-3.124-4.841-1.394-7.032-1.112-.382.049-.667.609-.223.821 2.19 1.044 5.389 3.972 7.266.791.164-.276-.179-.674-.465-.465-1.296.948-2.175 1.247-3.655.488-.929-.477-1.759-1.118-2.7-1.575l-.223.821c.977-.119 1.915-.373 2.87-.598.661-.156 1.329-.248 2.004-.134.745.126 1.174.755 1.669 1.249.202.202.581-.001.489-.286zM329.679 175.022c.05-.509-.366-.683-.547-1.143-.229-.586.191-1.424.429-1.942.484-1.058 1.429-1.955 1.727-3.092l-.533-.146c-.236 1.065-.052 2.123.2 3.171.149.625.278 1.286.134 1.924-.141.617-.924.863-1.285 1.351-.126.171.051.36.218.379 1.18.132 1.908-1.053 1.962-2.104.083-1.601-1.129-2.913-.695-4.575.082-.317-.328-.46-.505-.212-.911 1.277-2.569 3.024-2.669 4.659-.036.596.111 1.44.681 1.784.179.11.839.397.883-.054zM347.303 210.578c3.496-2 4.623 2.785 7.257 4.055l.211-.779c-1.442.071-2.904.113-4.303-.302-1.855-.552-1.871-2.255-2.272-3.828-.036-.142-.267-.191-.332-.043-.7 1.587-.182 3.278 1.208 4.276 1.541 1.107 3.936.866 5.699.734.372-.028.624-.592.211-.779-2.661-1.2-4.53-6.4-7.757-3.435-.055.05.016.137.078.101z"/></svg>