<svg xmlns="http://www.w3.org/2000/svg" width="1402" height="654" viewBox="299 850 1402 654" xml:space="preserve"><linearGradient id="a" gradientUnits="userSpaceOnUse" x1="931.978" y1="880.587" x2="1047.677" y2="1536.746"><stop offset=".006" style="stop-color:#f2fafe"/><stop offset="1" style="stop-color:#f2fafe"/></linearGradient><path fill="url(#a)" d="M1699.061 1209.747c-5.938-70.358-83.162-98.433-143.512-105.317-16.436-1.874-33.077-2.171-49.547-.548-7.687.757-14.638 5.47-18.752-2.217-4.065-7.594-7.806-15.356-11.418-23.174-15.503-33.557-29.96-66.366-53.756-95.097-90.489-109.252-240.844-157.944-377.386-121.322-69.764 18.712-130.969 49.73-185.755 96.766a645.57 645.57 0 0 0-18.031 16.058c-8.788 8.135-9.01 2.992-18.697-1.65-13.395-6.418-28.002-9.537-42.575-11.912-33.833-5.514-68.052-6.661-101.982-1.233-64.886 10.378-127.947 41.436-171.15 91.569-10.832 12.569-20.477 26.05-28.593 40.53-3.194 5.699-6.259 11.505-9.063 17.407-8.803 1.25-17.417 3.645-25.685 6.896-31.47 12.372-59.366 35.775-82.188 60.308-42.344 45.517-82.438 116.727-49.724 178.356 30.172 56.842 102.761 75.885 162.341 77.503a286.863 286.863 0 0 0 49.796-2.994c10.157 12.21 22.083 22.657 35.455 31.22 28.769 18.422 62.722 28.435 96.67 30.828 31.67 2.231 63.979-2.126 93.755-13.219 14.36-5.349 28.177-12.276 40.845-20.916a179.495 179.495 0 0 0 16.863-13.042c5.827 5.158 12.239 9.43 19.063 13.155 61.153 33.385 141.958 46.699 211.028 45.965 36.25-.386 72.436-5.719 107.563-14.551 16.165-4.064 32.123-8.965 47.762-14.735a438.59 438.59 0 0 0 23.234-9.328c13.926-6.062 14.692-6.258 28.423-.646 60.95 24.915 141.78 19.497 202.754-2.813 30.09-11.011 57.375-28.457 79.914-51.243 11.02-11.14 20.997-23.435 29.499-36.603 3.669-5.682 7.025-11.567 9.984-17.649 9.941-3.062 19.734-6.615 29.286-10.736 53.591-23.12 108.974-71.664 103.579-135.616-2.084-24.693 4.672 55.382 0 0z"/><linearGradient id="b" gradientUnits="userSpaceOnUse" x1="1036.696" y1="1252.914" x2="1063.835" y2="1511.122"><stop offset=".006" style="stop-color:#f2fafe"/><stop offset=".179" style="stop-color:#e9f7fd"/><stop offset=".669" style="stop-color:#d5f0fb"/><stop offset="1" style="stop-color:#ceedfa"/></linearGradient><path fill="url(#b)" d="m1697.914 1209.761 1.668 19.768-1.669-19.781c-.642-7.606-.444-5.267-.001-.012-.785-9.29-2.824-17.836-5.892-25.699-25.416 83.465-108.472 162.149-196.627 129.241 0 0-13.942 57.609-84.726 98.057-23.333 13.333-48 30.333-109.667 20.666-22.851-3.582-67.569-24.913-85-40-21.404-18.526 6.438-17.95-55.565 24-47.859 32.38-113.17 39.886-170.413 37.917-47.743-1.643-103.822-8.642-144.356-36.118-4.85-3.288-28.505-32.033-33.398-28.771-5.532 2.532-8.148 19.99-11.718 25.186-7.499 10.912-19.559 18.894-30.988 25.058-54.473 29.378-177.683 44.937-211.176-25.644-3.345-7.548-4.623-15.634-4.675-23.833-.171-27.165-32.483 7.146-37.06 10.03-35.757 22.537-84.506 23.687-128.493 17.856 27.301 9.896 57.142 14.251 84.284 14.988a286.863 286.863 0 0 0 49.796-2.994c10.157 12.21 22.083 22.657 35.455 31.22 28.769 18.422 62.722 28.435 96.67 30.828 31.67 2.231 63.979-2.126 93.755-13.219 14.36-5.349 28.177-12.276 40.845-20.916a179.495 179.495 0 0 0 16.863-13.042c5.827 5.158 12.239 9.43 19.063 13.155 61.153 33.385 141.958 46.699 211.028 45.965 36.25-.386 72.436-5.719 107.563-14.551 16.165-4.064 32.123-8.965 47.762-14.735a438.59 438.59 0 0 0 23.234-9.328c13.926-6.062 14.692-6.258 28.423-.646 60.95 24.915 141.78 19.497 202.754-2.813 30.09-11.011 57.375-28.457 79.914-51.243 11.02-11.14 20.997-23.435 29.499-36.603 3.669-5.682 7.025-11.567 9.984-17.649 9.941-3.062 19.734-6.615 29.286-10.736 53.586-23.118 108.965-71.657 103.578-135.602z"/></svg>