<svg xmlns="http://www.w3.org/2000/svg" width="1487" height="669" viewBox="283 140 1487 669" xml:space="preserve"><linearGradient id="a" gradientUnits="userSpaceOnUse" x1="1095.26" y1="904.698" x2="891.291" y2="193.374"><stop offset=".006" style="stop-color:#f2fafe"/><stop offset=".875" style="stop-color:#f9fcff"/><stop offset="1" style="stop-color:#fafdff"/></linearGradient><path fill="url(#a)" d="M1766.174 623.999c-9.664-49.382-67.534-84.716-117.053-90.498 27.913-123.354-33.614-275.751-144.45-339.23-57.601-32.99-125.674-40.751-190.868-34.149a513.883 513.883 0 0 0-50.24 7.632 505.852 505.852 0 0 0-24.895 5.698 494.705 494.705 0 0 0-12.331 3.322c-6.143 1.74-8.997-2.512-14.136-5.832-27.982-18.076-60.885-27.584-93.972-29.867-67.763-4.674-125.727 23.693-173.268 70.393-10.807 10.616-21.309 21.743-30.067 34.139-7.818 11.065-18.944 28.069-17.212 42.434-31.446 8.058-61.288 21.871-88.762 39.045-28.244 17.655-55.585 38.788-76.104 65.255-4.014 5.178-7.803 14.742-14.196 14.393-8.33-.455-16.67-.813-25.014-.836-18.11-.052-36.243 1.336-54.077 4.537-61.178 10.982-117.121 44.445-156.625 92.309-21.302 25.81-37.965 55.472-48.72 87.168-1.161 3.422-.662 8.016-4.856 7.5-3.961-.486-7.976-.354-11.947-.112-8.355.508-16.681 1.108-24.936 2.555-16.795 2.945-33.207 8.112-48.328 16.039-24.252 12.713-53.918 33.975-60.08 62.42-6.383 29.471 18.184 51.331 42.329 62.635 59.876 28.033 130.043 23.114 193.673 14.541 12.883-1.736 29.397-2.477 40.646-9.645 3.674-2.343 15.646 2.353 20.27 3.246 9.437 1.822 18.901 3.424 28.438 4.631 35.86 4.54 71.829 2.603 107.653-1.474 17.32-1.971 34.551-4.776 51.563-8.586 6.685-1.498 10.66 2.695 16.639 5.771 8.308 4.273 16.897 7.978 25.614 11.332 32.167 12.377 65.703 21.883 99.646 27.864 69.423 12.234 141.662 6.295 208.337-16.623 6.912-2.376 15.776 5.058 22.436 8.056a263.882 263.882 0 0 0 23.046 9.128c16.665 5.693 33.906 9.55 51.28 12.329 35.283 5.643 71.376 8.067 107.091 6.899 68.99-2.255 136.94-20.09 196.663-55.052 11.656-6.824 23.161-14.021 33.945-22.167a198.913 198.913 0 0 0 6.418-5.053c4.614-3.793 4.847-1.371 9.988.529 6.142 2.27 12.64 3.669 19.087 4.734 28.552 4.715 60.374 4.321 89.129 1.429 49.985-5.029 78.476-12.838 89.827-68.169 2.668-13.003 2.557-19.524-1.581-40.67zm-1232.94 88.18c.124.144.296.331.071.119-.013-.012-.04.025-.071-.119z"/><linearGradient id="b" gradientUnits="userSpaceOnUse" x1="888.51" y1="394.005" x2="1256.55" y2="1006.527"><stop offset=".006" style="stop-color:#f2fafe"/><stop offset=".33" style="stop-color:#ebf8fd"/><stop offset=".783" style="stop-color:#d9f1fb"/><stop offset="1" style="stop-color:#ceedfa"/></linearGradient><path fill="url(#b)" d="M1767.756 664.666c2.667-13 2.556-19.521-1.582-40.667-9.664-49.382-67.534-84.716-117.053-90.498 27.913-123.354-33.614-275.751-144.45-339.23-36.081-20.665-76.271-31.428-117.288-34.965 3.068 1.863 6.146 3.706 9.259 5.476 10.536 5.99 20.98 12.166 31.348 18.443 20.245 12.258 39.851 25.737 57.757 41.243 17.761 15.379 33.603 32.864 46.416 52.58 13.928 21.43 23.072 44.819 29.905 69.348 15.088 54.162 20.82 116.499-1.846 169.474-2.931 6.849.354 15.265 8.778 15.298 17.409.068 35.542 2.341 50.607 9.88 13.438 6.725 23.208 17.158 33.875 27.271 6.35 13.567 9.008 28.906 7.34 43.951-.676 6.101-3.197 13.605-7.53 18.953-6.558 8.091-15.362 13.419-25.235 16.463-10.165 3.133-20.898 3.426-31.41 2.316-5.219-.551-10.25-1.98-15.335-3.195-5.166-1.232-10.188-3.445-15.465-1.991a4.086 4.086 0 0 0-2.208 1.476c-2.311.275-4.584 1.573-6.275 4.245-10.488 16.57-23.047 30.331-39.211 41.578-17.497 12.175-37.051 21.181-57.087 28.282-39.161 13.883-80.639 21.469-122.065 23.984-33.759 2.05-67.131-2.688-100.215-8.955-16.625-3.148-33.174-6.693-49.784-9.922-4.938-.959-9.982-1.975-15.077-2.904-10.358-5.916-20.58-12.092-30.523-18.59-16.198-10.586-34.049-21.646-45.274-37.844-3.095-4.466-7.449-9.594-8.095-15.166-.364-3.144-5.183-4.422-5.954-.806-1.688 7.92-.642 15.199 3.112 22.364 2.979 5.688 7.14 10.911 11.587 15.752 1.493 4.046 4.294 7.828 6.693 11.156 5.184 7.188 10.956 13.831 17.222 20.092a139.051 139.051 0 0 0 4.871 4.633c-48.415 18.893-98.596 31.195-150.891 31.618-28.783.233-57.483-2.921-85.801-7.897-1.709-.301-3.407-.629-5.126-.86l-.056-.009a56.108 56.108 0 0 1-2.703-.501c-2.617-.532-5.21-1.185-7.796-1.849-6.955-1.784-13.839-3.825-20.734-5.824-22.593-6.551-45.005-14.493-67.803-20.548.295-.306.596-.607.889-.915 14.479-15.198 29.326-33.521 35.177-54.045a97.062 97.062 0 0 0 4.88-10.061c3.022-7.276 3.118-14.596 3.541-22.301.153-2.794-4.006-2.693-4.281 0-.706 6.899-4.69 13.766-7.97 19.74-3.806 6.934-8.846 13.067-14.248 18.806-11.922 12.663-26.059 23.017-40.895 31.987-14.934 9.03-30.484 17.09-46.673 23.629-5.147 2.08-10.367 3.972-15.619 5.768-45.862 6.813-94.899-5.834-132.391-32.881-3.147-2.271-7.083-.837-9.755 1.259-1.382 1.084-1.188.957-2.957 2.228-1.4 1.006-2.84 1.955-4.289 2.889-3.346 2.156-6.828 4.096-10.356 5.934-7.361 3.832-15.04 6.969-22.843 9.774-18.744 6.739-38.371 10.974-57.989 14.236-41.215 6.854-83.838 8.913-125.442 4.663a260.053 260.053 0 0 1-17.249-2.34 111.707 111.707 0 0 0 8.182 4.256c59.876 28.033 130.043 23.113 193.673 14.541 12.883-1.736 29.397-2.478 40.646-9.646 3.674-2.343 15.646 2.353 20.27 3.245 9.437 1.822 18.901 3.425 28.438 4.632 35.86 4.54 71.829 2.603 107.653-1.474 17.32-1.972 34.551-4.776 51.564-8.586 6.685-1.498 10.659 2.695 16.639 5.771 8.308 4.273 16.897 7.977 25.613 11.331 32.168 12.378 65.703 21.883 99.646 27.864 69.424 12.234 141.662 6.295 208.338-16.623 6.912-2.376 15.776 5.059 22.436 8.057a264.198 264.198 0 0 0 23.046 9.128c16.665 5.692 33.906 9.55 51.28 12.329 35.283 5.643 71.376 8.066 107.091 6.898 68.99-2.254 136.94-20.09 196.663-55.052 11.656-6.823 23.161-14.021 33.945-22.167a200.32 200.32 0 0 0 6.418-5.053c4.614-3.793 4.847-1.371 9.988.528 6.142 2.27 12.64 3.669 19.087 4.733 28.552 4.715 60.374 4.322 89.129 1.43 49.985-5.026 78.475-12.836 89.827-68.167z"/></svg>