<svg xmlns="http://www.w3.org/2000/svg" width="176" height="104" viewBox="166.021 173.522 176 104" xml:space="preserve"><linearGradient id="a" gradientUnits="userSpaceOnUse" x1="242.89" y1="220.381" x2="271.152" y2="380.664"><stop offset="0" style="stop-color:#835e39"/><stop offset="1" style="stop-color:#744f2c"/></linearGradient><linearGradient id="b" gradientUnits="userSpaceOnUse" x1="254.928" y1="204.227" x2="254.928" y2="251.788"><stop offset="0" style="stop-color:#835e39"/><stop offset=".326" style="stop-color:#6f4d2c"/><stop offset=".709" style="stop-color:#5f3e21"/><stop offset="1" style="stop-color:#59391d"/></linearGradient><path fill="url(#b)" d="M335.259 231.63c-3.853-5.783-13.313-9.021-19.533-11.32-2.88-1.064-6.059-1.973-9.258-2.337-.066-.155-.119-.304-.204-.468-.411-.797-1.298-1.417-2.431-1.915-1.402-1.564-2.934-2.562-5.478-3.088-3.604-.746-7.322-1.026-10.986-.676-.292-.07-.585-.138-.877-.207-.315-.562-.785-1.09-1.462-1.535-5.173-3.401-14.063-5.218-20.841-3.047a30.932 30.932 0 0 0-2.406-.14 53.953 53.953 0 0 0-5.628-.25 12.538 12.538 0 0 0-.928.016l-.082.002c-.293.009-.587.033-.881.046a33.684 33.684 0 0 0-3.953-.895c-.731-.996-1.859-1.66-3.291-1.583-2.386.127-4.829.571-7.171 1.042-1.98.397-2.956 1.849-3.122 3.451-.194.005-.388.012-.583.019-9.956-3.642-22.281-.343-30.395 6.951-4.718-.113-6.845-.312-10.896-.255-2.328.032-4.943 4.046-6.976 5.083-2.774 1.417-5.597 2.302-5.773 3.954-1.03.496-1.327.749-2.335 1.212-1.184.544 2.385 2.578 1.766 3.379-4.647 2.056-8.803 5.848-7.275 11.273 1.565 5.558 6.152 7.921 11.369 9.178 11.573 2.789 23.389 2.3 35.238 2.115 16.72-.261 33.396-.037 50.112-.828a557.985 557.985 0 0 0 56.872-5.636c4.431-.668 5.485-4.642 4.51-8.142 2.512-.346 4.689-2.71 2.898-5.399z"/><path fill="#59391D" d="M301.271 237.772c-7.78-1.032-15.047-4.288-22.533-6.53-9.935-2.975-21.102-.608-31.105.693-6.276.816-13.671-1.013-20.925 1.836-19.013-3.206-16.185 4.574-17 4.125-7.336-4.039-1.349 3.277 5.288 7.84.101 2.192 2.558 3.403 4.671 2.918 6.634 4.195 12.745 8.101 21.248 8.682 8.645.59 16.525-4.553 24.918-5.247 4.92 1.062 10.104 2.402 15.275 3.164 9.796 2.916 21.321 5.464 22.909-3.913 4.967-3.661 3.061-12.797-2.746-13.568z"/><path fill="#248B44" d="M249.854 246.439h6c-.245-9.297-1.712-20.205-2.482-29.517-.109-1.324-3.164-1.342-3.105 0 .411 9.3-.334 20.209-.413 29.517z"/><linearGradient id="c" gradientUnits="userSpaceOnUse" x1="253.83" y1="220.284" x2="253.83" y2="276.883"><stop offset=".37" style="stop-color:#744f2c"/><stop offset=".988" style="stop-color:#835e39"/></linearGradient><path fill="url(#c)" d="M339.328 232.443c-3.663-6.372-11.164-13.569-19.057-11.921-2.962.619-12.648 1.715-13.787 6.975-1.088 5.025-1.373 3.137-6.338 8.15-5.005 5.055-4.009 8.503-13.137 8.582-6.604.057-5.806-2.917-12.736-.607-4.966 1.655-5.994.771-11.127 1.775-6.497-.244-9.315-6.125-20.375-1.125-1.719.777-7.539-.201-9.375-.375-7.44-2.591-4.72-.248-9.625-4.125-8.913-7.046-8.375-2.75-19.5-10.25-4.907-3.308-5.125-9-17.75-4.125-4.597.78-6.25-5.125-12.665 2.262-5.275 1.51-7.658 11.323-7.256 16.064 2.035 23.958 33.975 29.425 52.84 30.707 26.691 1.812 55.941 3.652 82.579 1.438 11.15-.927 22.37-6.127 29.187-15.164 5.572-7.386 13.465-18.963 8.122-28.261l1.329 2.313c-2.789-4.854-.728-1.266 0 0l-1.329-2.313c-1.036-1.8 3.495 6.082 0 0z"/><linearGradient id="d" gradientUnits="userSpaceOnUse" x1="277.794" y1="181.677" x2="282.442" y2="225.898"><stop offset="0" style="stop-color:#94c73f"/><stop offset=".268" style="stop-color:#90c640"/><stop offset=".558" style="stop-color:#83c342"/><stop offset=".857" style="stop-color:#6dbe45"/><stop offset="1" style="stop-color:#60bb47"/></linearGradient><path fill="url(#d)" d="M298.597 194.499c-.468 1.67 18.674-20.804.176-14.386-14.659 5.086-32.377 3.722-45.297 18.501-7.038 8.05 3.746 26.367 14.584 27.98 19.384 2.884 26.082-16.168 30.537-32.095.161-.576-2.279 8.147 0 0z"/><linearGradient id="e" gradientUnits="userSpaceOnUse" x1="282.319" y1="229.499" x2="280.437" y2="175.614"><stop offset="0" style="stop-color:#248b44"/><stop offset=".553" style="stop-color:#3c9a46"/><stop offset="1" style="stop-color:#4aa347"/></linearGradient><path fill="url(#e)" d="M288.966 221.299c8.237-10.418 11.721-23.884 18.131-35.377 1.497-2.68 3.758-5.187 4.926-8.007.09-.219.124-.437.113-.645.209-.344.379-.711.496-1.107.242-.825-.485-1.634-1.301-1.626-2.24.021-4.293 1.379-6.34 2.169-2.644 1.02-5.389 1.768-8.133 2.463-6.414 1.626-12.922 2.854-19.337 4.479-10.517 2.662-24.978 6.915-27.821 19.031-.611 2.604-.472 5.273-.037 7.889.421 2.532 1.274 6.063 2.973 8.315-.898 1.428-1.889 3.045-2.031 4.695-.121 1.412 3.314 5.599 3.18 1.941-.03-.825-.265-1.788.779-2.822.04.029.078.063.119.093 5.809 4.073 13.127 7.676 20.431 6.916 5.718-.597 10.367-3.998 13.852-8.407zm-9.068 1.816c-4.966 2.943-10.875 1.656-15.889-.71-2.377-1.123-4.63-2.517-6.841-3.933a58.399 58.399 0 0 1 1.901-2.621 64.962 64.962 0 0 1 7.746-8.371c2.859-2.599 5.979-4.92 9.203-7.047 1.641-1.083 3.357-2.028 5.078-2.976 1.553-.855 3.285-1.675 4.483-3.007.736-.818.131-1.885-.864-1.985-3.549-.358-7.428 2.303-10.301 4.087-3.594 2.233-6.863 4.926-9.925 7.835a75.612 75.612 0 0 0-8.391 9.402c-.194.257-.382.518-.571.777a31.212 31.212 0 0 1-.486-1.292c-.537-1.561-.949-3.186-1.129-4.827-.273-2.484.014-4.997 1.103-7.261 2.229-4.633 7.251-7.437 11.842-9.352 11.933-4.981 25.034-6.031 37.257-10.059.367-.119.756-.245 1.161-.379-.444.668-.866 1.33-1.269 1.947-1.839 2.821-3.472 5.787-4.947 8.813-2.979 6.106-5.577 12.395-8.789 18.386-2.556 4.768-5.673 9.785-10.372 12.573z"/><linearGradient id="f" gradientUnits="userSpaceOnUse" x1="239.097" y1="179.96" x2="230.958" y2="221.831"><stop offset="0" style="stop-color:#94c73f"/><stop offset=".268" style="stop-color:#90c640"/><stop offset=".558" style="stop-color:#83c342"/><stop offset=".857" style="stop-color:#6dbe45"/><stop offset="1" style="stop-color:#60bb47"/></linearGradient><path fill="url(#f)" d="M231.069 185.751c1.295.452-19.965-21.396-11.355-.857 4.748 11.327-1.043 29.657 12.356 36.704 7.49 3.938 21.013-1.645 22.828-10.125 3.244-15.169-11.471-21.41-23.829-25.722-.447-.156 6.321 2.207 0 0z"/><linearGradient id="g" gradientUnits="userSpaceOnUse" x1="225.358" y1="220.736" x2="241.028" y2="183.821"><stop offset="0" style="stop-color:#248b44"/><stop offset=".553" style="stop-color:#3c9a46"/><stop offset="1" style="stop-color:#4aa347"/></linearGradient><path fill="url(#g)" d="M251.757 194.694c-7.818-7.026-18.281-10.449-27.04-16.085-2.042-1.317-3.909-3.227-6.079-4.29a1.174 1.174 0 0 0-.503-.121 3.703 3.703 0 0 0-.85-.447c-.64-.232-1.314.302-1.349.946-.095 1.771.875 3.459 1.397 5.116.674 2.139 1.128 4.345 1.54 6.547.964 5.148 1.611 10.349 2.574 15.497 1.578 8.44 4.217 20.075 13.645 22.924 2.027.613 4.142.636 6.229.424 2.021-.207 4.853-.705 6.717-1.934 1.083.781 1.983.98 2.436 2.211 1.271 3.456 2.639-1.613 2.087-2.328-.366-.473-.875-.859-1.414-1.217.025-.03.053-.057.079-.088 3.506-4.385 6.717-9.986 6.481-15.792-.186-4.548-2.641-8.391-5.95-11.363zm.983 7.254c2.078 4.068.767 8.671-1.352 12.515-1.006 1.822-2.22 3.532-3.448 5.208a46.462 46.462 0 0 1-1.976-1.632 51.503 51.503 0 0 1-6.226-6.536c-1.911-2.388-3.589-4.968-5.108-7.621-.773-1.351-1.434-2.753-2.097-4.16-.599-1.27-1.159-2.678-2.151-3.691-.61-.622-1.482-.197-1.611.583-.46 2.785 1.449 5.982 2.714 8.34 1.585 2.951 3.549 5.667 5.694 8.23a59.929 59.929 0 0 0 7.009 7.097c.193.167.39.328.585.489-.351.114-.7.225-1.044.32-1.26.346-2.563.59-3.869.652-1.976.092-3.947-.262-5.681-1.233-3.548-1.992-5.512-6.097-6.796-9.82-3.34-9.673-3.517-20.075-6.088-29.93-.076-.295-.156-.609-.242-.936.506.385 1.008.751 1.475 1.1 2.137 1.593 4.398 3.03 6.715 4.346 4.675 2.658 9.513 5.023 14.085 7.86 3.636 2.254 7.444 4.967 9.412 8.819z"/><linearGradient id="h" gradientUnits="userSpaceOnUse" x1="194.974" y1="246.585" x2="194.974" y2="251.546"><stop offset="0" style="stop-color:#83a646"/><stop offset="1" style="stop-color:#557d39"/></linearGradient><linearGradient id="i" gradientUnits="userSpaceOnUse" x1="197.085" y1="195.838" x2="197.085" y2="196.797"><stop offset="0" style="stop-color:#83a646"/><stop offset="1" style="stop-color:#557d39"/></linearGradient><linearGradient id="j" gradientUnits="userSpaceOnUse" x1="195.54" y1="245.345" x2="195.54" y2="246.585"><stop offset="0" style="stop-color:#83a646"/><stop offset="1" style="stop-color:#557d39"/></linearGradient><linearGradient id="k" gradientUnits="userSpaceOnUse" x1="195.471" y1="246.039" x2="195.471" y2="246.647"><stop offset="0" style="stop-color:#83a646"/><stop offset="1" style="stop-color:#557d39"/></linearGradient><linearGradient id="l" gradientUnits="userSpaceOnUse" x1="178.316" y1="196.797" x2="178.316" y2="363.883"><stop offset="0" style="stop-color:#83a646"/><stop offset="1" style="stop-color:#557d39"/></linearGradient><linearGradient id="m" gradientUnits="userSpaceOnUse" x1="213.465" y1="181.898" x2="213.465" y2="182.93"><stop offset="0" style="stop-color:#83a646"/><stop offset="1" style="stop-color:#557d39"/></linearGradient><linearGradient id="n" gradientUnits="userSpaceOnUse" x1="215.617" y1="235.237" x2="215.617" y2="241.923"><stop offset="0" style="stop-color:#83a646"/><stop offset="1" style="stop-color:#557d39"/></linearGradient><linearGradient id="o" gradientUnits="userSpaceOnUse" x1="233.879" y1="182.93" x2="233.879" y2="363.891"><stop offset="0" style="stop-color:#83a646"/><stop offset="1" style="stop-color:#557d39"/></linearGradient><linearGradient id="p" gradientUnits="userSpaceOnUse" x1="205.015" y1="193.98" x2="205.015" y2="363.905"><stop offset="0" style="stop-color:#83a646"/><stop offset="1" style="stop-color:#557d39"/></linearGradient><linearGradient id="q" gradientUnits="userSpaceOnUse" x1="166.867" y1="262.779" x2="166.867" y2="358.627"><stop offset="0" style="stop-color:#83a646"/><stop offset="1" style="stop-color:#557d39"/></linearGradient><linearGradient id="r" gradientUnits="userSpaceOnUse" x1="245.449" y1="196.08" x2="245.449" y2="363.784"><stop offset="0" style="stop-color:#83a646"/><stop offset=".021" style="stop-color:#80a345"/><stop offset=".174" style="stop-color:#6d9240"/><stop offset=".353" style="stop-color:#5f863c"/><stop offset=".578" style="stop-color:#577f3a"/><stop offset="1" style="stop-color:#557d39"/></linearGradient><linearGradient id="s" gradientUnits="userSpaceOnUse" x1="256.84" y1="187.127" x2="256.84" y2="363.735"><stop offset="0" style="stop-color:#83a646"/><stop offset="1" style="stop-color:#557d39"/></linearGradient><linearGradient id="t" gradientUnits="userSpaceOnUse" x1="266.563" y1="227.465" x2="266.563" y2="357.127" gradientTransform="rotate(5.789 265.245 270.413)"><stop offset="0" style="stop-color:#83a646"/><stop offset="1" style="stop-color:#557d39"/></linearGradient><linearGradient id="u" gradientUnits="userSpaceOnUse" x1="215.245" y1="236.123" x2="215.245" y2="352.213" gradientTransform="rotate(-2.688 210.99 282.205)"><stop offset="0" style="stop-color:#83a646"/><stop offset=".021" style="stop-color:#80a345"/><stop offset=".174" style="stop-color:#6d9240"/><stop offset=".353" style="stop-color:#5f863c"/><stop offset=".578" style="stop-color:#577f3a"/><stop offset="1" style="stop-color:#557d39"/></linearGradient><linearGradient id="v" gradientUnits="userSpaceOnUse" x1="351.38" y1="212.688" x2="351.38" y2="360.907" gradientTransform="matrix(-1 0 0 1 520.032 0)"><stop offset="0" style="stop-color:#83a646"/><stop offset=".021" style="stop-color:#80a345"/><stop offset=".174" style="stop-color:#6d9240"/><stop offset=".353" style="stop-color:#5f863c"/><stop offset=".578" style="stop-color:#577f3a"/><stop offset="1" style="stop-color:#557d39"/></linearGradient><linearGradient id="w" gradientUnits="userSpaceOnUse" x1="278.248" y1="230.756" x2="278.248" y2="355.604"><stop offset="0" style="stop-color:#83a646"/><stop offset="1" style="stop-color:#557d39"/></linearGradient><linearGradient id="x" gradientUnits="userSpaceOnUse" x1="290.056" y1="251.539" x2="290.056" y2="251.614"><stop offset="0" style="stop-color:#83a646"/><stop offset="1" style="stop-color:#557d39"/></linearGradient><linearGradient id="y" gradientUnits="userSpaceOnUse" x1="290.029" y1="247.19" x2="290.029" y2="251.488"><stop offset="0" style="stop-color:#83a646"/><stop offset="1" style="stop-color:#557d39"/></linearGradient><linearGradient id="z" gradientUnits="userSpaceOnUse" x1="291.091" y1="202.996" x2="291.091" y2="361.544"><stop offset="0" style="stop-color:#83a646"/><stop offset="1" style="stop-color:#557d39"/></linearGradient><linearGradient id="A" gradientUnits="userSpaceOnUse" x1="290" y1="246.432" x2="290" y2="247.315"><stop offset="0" style="stop-color:#83a646"/><stop offset="1" style="stop-color:#557d39"/></linearGradient><linearGradient id="B" gradientUnits="userSpaceOnUse" x1="289.998" y1="246.106" x2="289.998" y2="247.19"><stop offset="0" style="stop-color:#83a646"/><stop offset="1" style="stop-color:#557d39"/></linearGradient><linearGradient id="C" gradientUnits="userSpaceOnUse" x1="310.611" y1="219.414" x2="310.611" y2="346.728"><stop offset="0" style="stop-color:#83a646"/><stop offset="1" style="stop-color:#557d39"/></linearGradient><linearGradient id="D" gradientUnits="userSpaceOnUse" x1="317.906" y1="198.998" x2="317.906" y2="340.425"><stop offset="0" style="stop-color:#83a646"/><stop offset=".021" style="stop-color:#80a345"/><stop offset=".174" style="stop-color:#6d9240"/><stop offset=".353" style="stop-color:#5f863c"/><stop offset=".578" style="stop-color:#577f3a"/><stop offset="1" style="stop-color:#557d39"/></linearGradient><linearGradient id="E" gradientUnits="userSpaceOnUse" x1="335.892" y1="188.525" x2="335.892" y2="362.405"><stop offset="0" style="stop-color:#83a646"/><stop offset="1" style="stop-color:#557d39"/></linearGradient><linearGradient id="F" gradientUnits="userSpaceOnUse" x1="284.525" y1="233.731" x2="284.525" y2="349.822" gradientTransform="rotate(3.714 451.323 314.531)"><stop offset="0" style="stop-color:#83a646"/><stop offset=".021" style="stop-color:#80a345"/><stop offset=".174" style="stop-color:#6d9240"/><stop offset=".353" style="stop-color:#5f863c"/><stop offset=".578" style="stop-color:#577f3a"/><stop offset="1" style="stop-color:#557d39"/></linearGradient><linearGradient id="G" gradientUnits="userSpaceOnUse" x1="179.275" y1="273.684" x2="179.275" y2="268.96"><stop offset="0" style="stop-color:#83a646"/><stop offset="1" style="stop-color:#96b766"/></linearGradient><linearGradient id="H" gradientUnits="userSpaceOnUse" x1="178.843" y1="268.96" x2="178.843" y2="268.948"><stop offset="0" style="stop-color:#83a646"/><stop offset="1" style="stop-color:#96b766"/></linearGradient><linearGradient id="I" gradientUnits="userSpaceOnUse" x1="192.207" y1="363.91" x2="192.207" y2="231.159"><stop offset="0" style="stop-color:#83a646"/><stop offset="1" style="stop-color:#96b766"/></linearGradient><linearGradient id="J" gradientUnits="userSpaceOnUse" x1="227.041" y1="363.875" x2="227.041" y2="217.397"><stop offset="0" style="stop-color:#83a646"/><stop offset="1" style="stop-color:#96b766"/></linearGradient><linearGradient id="K" gradientUnits="userSpaceOnUse" x1="248.329" y1="263.789" x2="248.329" y2="258.764"><stop offset="0" style="stop-color:#83a646"/><stop offset="1" style="stop-color:#96b766"/></linearGradient><linearGradient id="L" gradientUnits="userSpaceOnUse" x1="262.049" y1="363.664" x2="262.049" y2="218.674"><stop offset="0" style="stop-color:#83a646"/><stop offset="1" style="stop-color:#96b766"/></linearGradient><linearGradient id="M" gradientUnits="userSpaceOnUse" x1="318.867" y1="361.729" x2="318.867" y2="211.864"><stop offset="0" style="stop-color:#83a646"/><stop offset="1" style="stop-color:#96b766"/></linearGradient><linearGradient id="N" gradientUnits="userSpaceOnUse" x1="207.776" y1="263.973" x2="207.776" y2="263.96"><stop offset="0" style="stop-color:#83a646"/><stop offset=".258" style="stop-color:#8daf4e"/><stop offset=".701" style="stop-color:#a9c664"/><stop offset="1" style="stop-color:#bfd975"/></linearGradient><linearGradient id="O" gradientUnits="userSpaceOnUse" x1="194.412" y1="363.47" x2="194.412" y2="226.169"><stop offset="0" style="stop-color:#83a646"/><stop offset=".258" style="stop-color:#8daf4e"/><stop offset=".701" style="stop-color:#a9c664"/><stop offset="1" style="stop-color:#bfd975"/></linearGradient><linearGradient id="P" gradientUnits="userSpaceOnUse" x1="207.344" y1="268.695" x2="207.344" y2="263.973"><stop offset="0" style="stop-color:#83a646"/><stop offset=".258" style="stop-color:#8daf4e"/><stop offset=".701" style="stop-color:#a9c664"/><stop offset="1" style="stop-color:#bfd975"/></linearGradient><linearGradient id="Q" gradientUnits="userSpaceOnUse" x1="358.649" y1="352.64" x2="358.649" y2="237.898" gradientTransform="scale(-1 1) rotate(5.561 8.864 -5102.198)"><stop offset="0" style="stop-color:#83a646"/><stop offset="1" style="stop-color:#96b766"/></linearGradient><linearGradient id="R" gradientUnits="userSpaceOnUse" x1="270.459" y1="363.55" x2="270.459" y2="204.801"><stop offset="0" style="stop-color:#83a646"/><stop offset=".258" style="stop-color:#8daf4e"/><stop offset=".701" style="stop-color:#a9c664"/><stop offset="1" style="stop-color:#bfd975"/></linearGradient><linearGradient id="S" gradientUnits="userSpaceOnUse" x1="296.844" y1="358.629" x2="296.844" y2="221.329" gradientTransform="translate(-7.877)"><stop offset="0" style="stop-color:#83a646"/><stop offset="1" style="stop-color:#96b766"/></linearGradient><linearGradient id="T" gradientUnits="userSpaceOnUse" x1="237.208" y1="273.684" x2="237.208" y2="268.96"><stop offset="0" style="stop-color:#83a646"/><stop offset="1" style="stop-color:#96b766"/></linearGradient><linearGradient id="U" gradientUnits="userSpaceOnUse" x1="236.775" y1="268.96" x2="236.775" y2="268.948"><stop offset="0" style="stop-color:#83a646"/><stop offset="1" style="stop-color:#96b766"/></linearGradient><linearGradient id="V" gradientUnits="userSpaceOnUse" x1="250.14" y1="363.801" x2="250.14" y2="231.159"><stop offset="0" style="stop-color:#83a646"/><stop offset="1" style="stop-color:#96b766"/></linearGradient><linearGradient id="W" gradientUnits="userSpaceOnUse" x1="330.002" y1="362.465" x2="330.002" y2="249.583"><stop offset="0" style="stop-color:#83a646"/><stop offset=".258" style="stop-color:#8daf4e"/><stop offset=".701" style="stop-color:#a9c664"/><stop offset="1" style="stop-color:#bfd975"/></linearGradient><linearGradient id="X" gradientUnits="userSpaceOnUse" x1="208.582" y1="361.107" x2="208.582" y2="255.971" gradientTransform="scale(-1 1) rotate(-9.91 -53.412 3289.084)"><stop offset="0" style="stop-color:#83a646"/><stop offset=".258" style="stop-color:#8daf4e"/><stop offset=".701" style="stop-color:#a9c664"/><stop offset="1" style="stop-color:#bfd975"/></linearGradient><linearGradient id="Y" gradientUnits="userSpaceOnUse" x1="172.751" y1="357.328" x2="172.751" y2="228.751" gradientTransform="matrix(-1 0 0 1 520.032 0)"><stop offset="0" style="stop-color:#83a646"/><stop offset="1" style="stop-color:#96b766"/></linearGradient><linearGradient id="Z" gradientUnits="userSpaceOnUse" x1="221.894" y1="361.866" x2="221.894" y2="262.222" gradientTransform="rotate(7.735 257.904 187.327)"><stop offset="0" style="stop-color:#83a646"/><stop offset="1" style="stop-color:#96b766"/></linearGradient></svg>