<svg xmlns="http://www.w3.org/2000/svg" width="176" height="74" viewBox="9 -0.704 176 74" xml:space="preserve"><linearGradient id="a" gradientUnits="userSpaceOnUse" x1="85.869" y1="16.155" x2="114.131" y2="176.437"><stop offset="0" style="stop-color:#845e39"/><stop offset="1" style="stop-color:#744f2c"/></linearGradient><linearGradient id="b" gradientUnits="userSpaceOnUse" x1="97.907" y1="0" x2="97.907" y2="47.562"><stop offset="0" style="stop-color:#845e39"/><stop offset=".156" style="stop-color:#795533"/><stop offset=".486" style="stop-color:#674527"/><stop offset=".778" style="stop-color:#5d3c20"/><stop offset="1" style="stop-color:#59391d"/></linearGradient><path fill="url(#b)" d="M178.238 27.403c-3.853-5.783-13.313-9.021-19.533-11.32-2.88-1.064-6.059-1.973-9.258-2.337-.066-.155-.119-.304-.204-.468-.411-.797-1.298-1.417-2.431-1.915-1.402-1.564-2.934-2.562-5.478-3.088-3.604-.746-7.322-1.026-10.986-.676-.292-.07-.585-.138-.877-.207-.315-.562-.785-1.09-1.462-1.535-5.173-3.401-14.063-5.218-20.841-3.047a30.932 30.932 0 0 0-2.406-.14 53.953 53.953 0 0 0-5.628-.25 12.538 12.538 0 0 0-.928.016l-.082.002c-.293.009-.587.033-.881.046a33.684 33.684 0 0 0-3.953-.895C92.56.594 91.432-.071 90 .006c-2.386.127-4.829.571-7.171 1.042-1.98.397-2.956 1.849-3.122 3.451-.194.005-.388.012-.583.019-9.956-3.642-22.281-.343-30.395 6.951-4.718-.113-6.845-.312-10.896-.255-2.328.032-4.943 4.046-6.976 5.083-2.774 1.417-5.597 2.302-5.773 3.954-1.03.496-1.327.749-2.335 1.212-1.184.544 2.385 2.578 1.766 3.379-4.647 2.056-8.803 5.848-7.275 11.273 1.565 5.558 6.152 7.921 11.369 9.178 11.573 2.789 23.389 2.3 35.238 2.115 16.72-.261 33.396-.037 50.112-.828a557.985 557.985 0 0 0 56.872-5.636c4.431-.668 5.485-4.642 4.51-8.142 2.511-.345 4.688-2.709 2.897-5.399z"/><path fill="#59391D" d="M144.25 33.546c-7.78-1.032-15.047-4.288-22.533-6.53-9.935-2.975-21.102-.608-31.105.693-6.276.816-13.671-1.013-20.925 1.836-19.013-3.206-16.185 4.574-17 4.125-7.336-4.039-1.349 3.277 5.288 7.84.101 2.192 2.558 3.403 4.671 2.918 6.634 4.195 12.745 8.101 21.248 8.682 8.645.59 16.525-4.553 24.918-5.247 4.92 1.062 10.104 2.402 15.275 3.164 9.796 2.916 21.321 5.464 22.909-3.913 4.967-3.662 3.061-12.798-2.746-13.568z"/><linearGradient id="c" gradientUnits="userSpaceOnUse" x1="96.809" y1="16.057" x2="96.809" y2="72.657"><stop offset=".37" style="stop-color:#744f2c"/><stop offset=".988" style="stop-color:#845e39"/></linearGradient><path fill="url(#c)" d="M182.307 28.217c-3.663-6.372-11.164-13.569-19.057-11.921-2.962.619-12.648 1.715-13.787 6.975-1.088 5.025-1.373 3.137-6.338 8.15-5.005 5.055-4.009 8.503-13.137 8.582-6.604.057-5.806-2.917-12.736-.607-4.966 1.655-5.994.771-11.127 1.775-6.497-.244-9.315-6.125-20.375-1.125-1.719.777-7.539-.201-9.375-.375-7.44-2.591-4.72-.248-9.625-4.125-8.913-7.046-8.375-2.75-19.5-10.25-4.907-3.308-5.125-9-17.75-4.125-4.597.78-6.25-5.125-12.665 2.262-5.275 1.51-7.658 11.323-7.256 16.064 2.035 23.958 33.975 29.425 52.84 30.707 26.691 1.812 55.941 3.652 82.579 1.438 11.15-.927 22.37-6.127 29.187-15.164 5.572-7.386 13.465-18.963 8.122-28.261l1.329 2.313c-2.789-4.854-.728-1.266 0 0l-1.329-2.313c-1.036-1.801 3.495 6.081 0 0z"/><path fill="#926F40" d="M99.504 22.846c.155-.166.313-.328.475-.487l-1.311.543c.722-.024 1.519-.114 2.025-.708.08-.098.164-.193.253-.283.398-.423-.417.24.04-.026a1.18 1.18 0 0 1-.667.182c-.583.049-.31-.057-.016.014-.414-.192-.292-.145.364.143.5.138.955.086 1.449-.036h-1.219c-.196-.013-.16.045.108.176.771.592 2.03.288 2.663-.344.851-.851.84-2.255 0-3.107-.184-.186-.372-.357-.542-.555l.59 1.011c-.398-1.823-2.7-2.643-4.343-2.09-1.717.577-3.252 2.421-2.494 4.263v-.985c-.053.226-.101.452-.145.679-.294 1.53 1.558 2.904 2.77 1.61zM160.636 54.195c.135-1.057-.167-2.19-.944-2.956-.979-.963-2.166-1.055-3.447-.866-1.268.186-2.15 1.644-2.15 2.824 0 1.253.888 2.543 2.15 2.824.126.028.253.045.374.09l-.711-.3c.529.272-1.142-1.431-.899-.896l-.303-.717a.494.494 0 0 1 .025.114l-.107-.801c.031.413.09.822.149 1.232l-.106-.797.032.249c.106.823.258 1.488.869 2.099.555.554 1.315.87 2.1.87s1.545-.315 2.1-.87c.609-.61.762-1.276.868-2.099zM63.99 59.018c-1.082-.196-2.075-.328-3.167-.145-1.323.222-3.407 1.53-2.82 3.162.229.634.642 1.126 1.31 1.31.365.101.832.071 1.195-.02.076-.02.851-.187.46-.139 1.021-.125 2.011-.428 3.022-.612 1.766-.324 1.768-3.235 0-3.556zM57.754 12.796a26.57 26.57 0 0 0 2.298 1.814c1.135.782 2.491 1.046 3.838.857.991-.14 1.268-1.408.877-2.158-.242-.466-.506-.885-.901-1.238-.235-.209-.674-.767-1.023-1.078-.58-.516-1.09-1.104-1.598-1.689-.882-1.017-2.591-.901-3.491 0-.9.901-1.018 2.61 0 3.492z" opacity=".07"/><path fill="#59391D" d="M110.526 54.389c.412-.461 1.022-.976 1.151-1.59.256-1.217-.73-2.204-1.948-1.949-.614.129-1.129.739-1.59 1.152-.686.614-.623 1.763 0 2.387.624.623 1.773.685 2.387 0zM23.808 40.695c1.063-2.243 1.792-5.457.024-7.501-.877-1.014-2.787-1.014-3.664 0-1.768 2.044-1.039 5.258.024 7.501.648 1.368 2.968 1.368 3.616 0zM176.625 36.138c.061-.582-.066-1.168-.16-1.741l-.028-.174c.092.669.077.553-.045-.348-.03-.108-.06-.217-.088-.326.041.478.067.563.077.255.089-1.222-.915-2.374-2.044-2.685-1.497-.412-2.978.496-3.425 1.945-.319 1.033-.203 2.051.235 3.021.095.208.198.409.303.611.126.263.104.202-.065-.181.038.104.065.21.084.319.241 1.133 1.416 1.927 2.531 1.927 1.544.002 2.476-1.2 2.625-2.623zM130.167 23.286c1.448 0 2.656-1.208 2.656-2.656s-1.208-2.656-2.656-2.656-2.656 1.208-2.656 2.656 1.208 2.656 2.656 2.656z" opacity=".07"/></svg>