<svg xmlns="http://www.w3.org/2000/svg" width="1874" height="1839" viewBox="476.4 68 1874 1839" xml:space="preserve"><linearGradient id="a" gradientUnits="userSpaceOnUse" x1="419.447" y1="1000" x2="2419.447" y2="1000"><stop offset="0" style="stop-color:#60bb48"/><stop offset=".138" style="stop-color:#6bbe46"/><stop offset=".687" style="stop-color:#8bc641"/><stop offset="1" style="stop-color:#96c93f"/></linearGradient><linearGradient id="b" gradientUnits="userSpaceOnUse" x1="561.124" y1="933.83" x2="2293.416" y2="933.83"><stop offset="0" style="stop-color:#60bb48"/><stop offset=".138" style="stop-color:#6bbe46"/><stop offset=".687" style="stop-color:#8bc641"/><stop offset="1" style="stop-color:#96c93f"/></linearGradient><linearGradient id="c" gradientUnits="userSpaceOnUse" x1="1549.352" y1="937.591" x2="1890.046" y2="1167.392"><stop offset="0" style="stop-color:#4aa447"/><stop offset="1" style="stop-color:#60bb48"/></linearGradient><linearGradient id="d" gradientUnits="userSpaceOnUse" x1="1227.713" y1="1068.227" x2="784.557" y2="1220.818"><stop offset="0" style="stop-color:#4aa447"/><stop offset="1" style="stop-color:#60bb48"/></linearGradient><linearGradient id="e" gradientUnits="userSpaceOnUse" x1="1360.27" y1="804.302" x2="1568.098" y2="79.521"><stop offset="0" style="stop-color:#60bb48"/><stop offset=".163" style="stop-color:#75c046"/><stop offset=".496" style="stop-color:#93c844"/><stop offset=".785" style="stop-color:#a4ce43"/><stop offset=".994" style="stop-color:#aad043"/></linearGradient><linearGradient id="f" gradientUnits="userSpaceOnUse" x1="1434.823" y1="136.172" x2="1425.457" y2="672.766"><stop offset=".012" style="stop-color:#c5dc70"/><stop offset=".381" style="stop-color:#c3db6e"/><stop offset=".582" style="stop-color:#bed968"/><stop offset=".742" style="stop-color:#b5d55d"/><stop offset=".879" style="stop-color:#a7d04e"/><stop offset="1" style="stop-color:#96c93f"/></linearGradient><linearGradient id="g" gradientUnits="userSpaceOnUse" x1="818.507" y1="137.962" x2="810.856" y2="576.282"><stop offset=".012" style="stop-color:#c5dc70"/><stop offset=".018" style="stop-color:#c5dc70"/><stop offset=".418" style="stop-color:#b7d556"/><stop offset=".759" style="stop-color:#aed148"/><stop offset="1" style="stop-color:#aad043"/></linearGradient><linearGradient id="h" gradientUnits="userSpaceOnUse" x1="2076.686" y1="219.914" x2="2003.839" y2="491.781"><stop offset=".012" style="stop-color:#c5dc70"/><stop offset=".018" style="stop-color:#c5dc70"/><stop offset=".418" style="stop-color:#b7d556"/><stop offset=".759" style="stop-color:#aed148"/><stop offset="1" style="stop-color:#aad043"/></linearGradient><linearGradient id="i" gradientUnits="userSpaceOnUse" x1="1406.365" y1="362.288" x2="1449.669" y2="88.876"><stop offset=".012" style="stop-color:#c5dc70"/><stop offset="1" style="stop-color:#c5dc70"/></linearGradient><linearGradient id="j" gradientUnits="userSpaceOnUse" x1="2262.866" y1="259.711" x2="956.713" y2="1477.719"><stop offset="0" style="stop-color:#aad043"/><stop offset=".484" style="stop-color:#9ecc40"/><stop offset=".988" style="stop-color:#96c93f"/></linearGradient><path fill="url(#j)" d="M1652 68.5 874.8 321.1 477.4 963.8l1341.7 942.7 530.4-1553.8z"/><linearGradient id="k" gradientUnits="userSpaceOnUse" x1="1766.363" y1="1151.664" x2="2402.237" y2="1107.199"><stop offset="0" style="stop-color:#248c44"/><stop offset=".003" style="stop-color:#258d44"/><stop offset=".214" style="stop-color:#419e46"/><stop offset=".437" style="stop-color:#53ac47"/><stop offset=".682" style="stop-color:#5db747"/><stop offset=".988" style="stop-color:#60bb48"/></linearGradient><path fill="url(#k)" d="m2349.5 352.4-536 174.1 5.6 1380z"/><path fill="#248C44" d="m477.4 963.8 536-174.2 805.7 1116.9z"/><linearGradient id="l" gradientUnits="userSpaceOnUse" x1="1423.094" y1="934.269" x2="1393.178" y2="77.584"><stop offset="0" style="stop-color:#c5dc70"/><stop offset=".353" style="stop-color:#c8de7d"/><stop offset=".988" style="stop-color:#cee299"/></linearGradient><path fill="url(#l)" d="M1652 68.5 874.8 321.1 477.4 963.8l3.9 2.9c242.5-2.4 589.6-66.5 962.1-187.6 383.7-124.7 710.1-282.4 906-426.5L1652 68.5z"/><linearGradient id="m" gradientUnits="userSpaceOnUse" x1="1325.02" y1="434.321" x2="2327.462" y2="239.466"><stop offset="0" style="stop-color:#60bb48"/><stop offset=".187" style="stop-color:#79c145"/><stop offset=".409" style="stop-color:#89c642"/><stop offset=".658" style="stop-color:#93c840"/><stop offset=".988" style="stop-color:#96c93f"/></linearGradient><path fill="url(#m)" d="m1652 68.5-374.4 121.7c18.3 68.7 39.3 131.9 56.1 199.5 47.4 17 407.7 176.1 409.5 175.5 1.3-.4 42.2 44.6 70.8 76.3 221.1-93.3 406.6-194.1 535.5-288.9L1652 68.5z"/><linearGradient id="n" gradientUnits="userSpaceOnUse" x1="781.981" y1="362.437" x2="1024.057" y2="906.148"><stop offset="0" style="stop-color:#60bb48"/><stop offset=".359" style="stop-color:#5db647"/><stop offset=".802" style="stop-color:#51aa47"/><stop offset=".988" style="stop-color:#4aa447"/></linearGradient><path fill="url(#n)" d="M874.8 321.1 477.4 963.8l3.9 2.9c160.7-1.6 367.5-30.3 597.2-84.8l8.6-62.9s232.7-430 241.6-430.7c.5 0 2.2.5 5 1.5-16.8-67.6-37.8-130.8-56.1-199.5L874.8 321.1z"/><path fill="#96C93F" d="m920.1 389.9 192.4-53.4 287.7 35-320.3 510.1L879 406.3l48.9-43.9z"/><linearGradient id="o" gradientUnits="userSpaceOnUse" x1="1785.826" y1="379.172" x2="1339.499" y2="532.855"><stop offset="0" style="stop-color:#aad043"/><stop offset=".484" style="stop-color:#9ecc40"/><stop offset=".988" style="stop-color:#96c93f"/></linearGradient><path fill="url(#o)" d="m1655.5 151.6-187 70-173.8 181 519.2 239.3-110.8-503-98.3 31.7z"/><path fill="#4AA447" d="M879.6 407 477.4 963.8l397.4-642.7z"/><path fill="#60BB48" d="m1703.1 138.9 646.4 213.5L1652 68.5z"/><linearGradient id="p" gradientUnits="userSpaceOnUse" x1="1270.326" y1="440.71" x2="1305.538" y2="38.234"><stop offset="0" style="stop-color:#c5dc70"/><stop offset=".353" style="stop-color:#c8de7d"/><stop offset=".988" style="stop-color:#cee299"/></linearGradient><path fill="url(#p)" d="m874.8 321.1 4.6 85.4 481.8 26.7 341.6-294.5-50.8-70.2z"/><path fill="#CEE299" fill-opacity=".4" d="M1360.5 433.2 1288 1533.8l530.4 372.7 206.1-604.1z"/><path fill="#4AA447" fill-opacity=".4" d="M1765.2 1711.2 1288 1533.8l530.4 372.7 206.1-604.1z"/><path fill="#C5DC70" fill-opacity=".2" d="m1813.2 641.9 392.1 130.9 144.9-417.9L2000 237.2z"/><path fill="#AAD043" fill-opacity=".2" d="m476.7 963.3 376.5 265 226-346.7-370.4-239.2z"/></svg>