<svg xmlns="http://www.w3.org/2000/svg" width="200" height="184" viewBox="157.021 181.522 200 184" xml:space="preserve"><linearGradient id="a" gradientUnits="userSpaceOnUse" x1="242.89" y1="220.381" x2="271.152" y2="380.664"><stop offset="0" style="stop-color:#845e39"/><stop offset="1" style="stop-color:#744f2c"/></linearGradient><linearGradient id="b" gradientUnits="userSpaceOnUse" x1="254.928" y1="204.227" x2="254.928" y2="251.788"><stop offset="0" style="stop-color:#845e39"/><stop offset=".156" style="stop-color:#795533"/><stop offset=".486" style="stop-color:#674527"/><stop offset=".778" style="stop-color:#5d3c20"/><stop offset="1" style="stop-color:#59391d"/></linearGradient><linearGradient id="c" gradientUnits="userSpaceOnUse" x1="253.83" y1="220.284" x2="253.83" y2="276.883"><stop offset=".37" style="stop-color:#744f2c"/><stop offset=".988" style="stop-color:#845e39"/></linearGradient><linearGradient id="d" gradientUnits="userSpaceOnUse" x1="194.974" y1="246.585" x2="194.974" y2="251.546"><stop offset="0" style="stop-color:#84a746"/><stop offset="1" style="stop-color:#557d39"/></linearGradient><path fill="url(#d)" d="m195.427 246.585-.011.062c-.547 2.988-1.714 9.376.011-.062z"/><linearGradient id="e" gradientUnits="userSpaceOnUse" x1="197.085" y1="195.838" x2="197.085" y2="196.797"><stop offset="0" style="stop-color:#84a746"/><stop offset="1" style="stop-color:#557d39"/></linearGradient><path fill="url(#e)" d="M197.226 196.797a13.826 13.826 0 0 0-.282-.959c.105.314.184.641.282.959z"/><linearGradient id="f" gradientUnits="userSpaceOnUse" x1="195.54" y1="245.345" x2="195.54" y2="246.585"><stop offset="0" style="stop-color:#84a746"/><stop offset="1" style="stop-color:#557d39"/></linearGradient><path fill="url(#f)" d="m195.526 246.039-.1.546.1-.546z"/><linearGradient id="g" gradientUnits="userSpaceOnUse" x1="195.471" y1="246.039" x2="195.471" y2="246.647"><stop offset="0" style="stop-color:#84a746"/><stop offset="1" style="stop-color:#557d39"/></linearGradient><path fill="url(#g)" d="m195.427 246.585.1-.546a169.01 169.01 0 0 0-.1.546z"/><linearGradient id="h" gradientUnits="userSpaceOnUse" x1="178.316" y1="196.797" x2="178.316" y2="363.883"><stop offset="0" style="stop-color:#84a746"/><stop offset="1" style="stop-color:#557d39"/></linearGradient><path fill="url(#h)" d="M191.242 346.154c-9.594-33.027-1.65-66.711 4.345-99.507l.111-.608c2.749-15.036 6.29-34.298 1.7-49.242 2.466 9.598-3.985 25.053-7.114 33.691-5.789 15.979-12.461 31.623-18.113 47.658-8.174 23.192-22.529 60.726-10.589 85.488 11.618.133 23.256.218 34.915.248-.366-5.276-3.465-11.569-5.255-17.728z"/><linearGradient id="i" gradientUnits="userSpaceOnUse" x1="350.507" y1="221.328" x2="350.507" y2="358.622"><stop offset="0" style="stop-color:#84a746"/><stop offset="1" style="stop-color:#557d39"/></linearGradient><path fill="url(#i)" d="M357.021 263.254c-2.013-5.141-4.016-10.285-5.896-15.476-2.47-6.818-7.651-19.2-5.215-26.451-3.897 11.638-.993 26.96 1.158 38.738 4.577 25.05 10.652 50.78 3.325 76.007-2.684 9.237-9.246 18.874 3.8 22.23.713.184 1.695.291 2.828.317v-95.365z"/><linearGradient id="j" gradientUnits="userSpaceOnUse" x1="347.329" y1="259.132" x2="347.329" y2="263.854"><stop offset="0" style="stop-color:#84a746"/><stop offset="1" style="stop-color:#557d39"/></linearGradient><path fill="url(#j)" d="M347.068 260.066a4162.177 4162.177 0 0 0 0 0z"/><linearGradient id="k" gradientUnits="userSpaceOnUse" x1="346.896" y1="259.119" x2="346.896" y2="259.132"><stop offset="0" style="stop-color:#84a746"/><stop offset="1" style="stop-color:#557d39"/></linearGradient><path fill="url(#k)" d="M346.897 259.132c-.003-.016-.003-.018 0 0z"/><linearGradient id="l" gradientUnits="userSpaceOnUse" x1="213.465" y1="181.898" x2="213.465" y2="182.93"><stop offset="0" style="stop-color:#84a746"/><stop offset="1" style="stop-color:#557d39"/></linearGradient><path fill="url(#l)" d="M213.313 182.93c.105-.342.19-.694.303-1.032-.112.335-.212.681-.303 1.032z"/><linearGradient id="m" gradientUnits="userSpaceOnUse" x1="215.617" y1="235.237" x2="215.617" y2="241.923"><stop offset="0" style="stop-color:#84a746"/><stop offset="1" style="stop-color:#557d39"/></linearGradient><path fill="url(#m)" d="M215.252 236.577c-1.231-6.735 2.717 14.875 0 0z"/><linearGradient id="n" gradientUnits="userSpaceOnUse" x1="233.879" y1="182.93" x2="233.879" y2="363.891"><stop offset="0" style="stop-color:#84a746"/><stop offset="1" style="stop-color:#557d39"/></linearGradient><path fill="url(#n)" d="M240.494 270.585c-6.089-17.277-13.278-34.133-19.516-51.352-3.371-9.308-10.322-25.961-7.665-36.304-5.006 16.295-1.037 37.365 1.938 53.647 6.46 35.36 15.036 71.678 4.693 107.287-2.034 7-5.64 14.16-5.7 20.026 12.388-.02 24.784-.084 37.185-.203 13.738-26.661-2.018-67.803-10.935-93.101z"/><linearGradient id="o" gradientUnits="userSpaceOnUse" x1="215.977" y1="330.038" x2="215.977" y2="332.975"><stop offset="0" style="stop-color:#84a746"/><stop offset="1" style="stop-color:#557d39"/></linearGradient><path fill="url(#o)" d="m215.883 330.604-.059-.566c.241 2.324.513 4.963.059.566z"/><linearGradient id="p" gradientUnits="userSpaceOnUse" x1="215.733" y1="327.703" x2="215.733" y2="330.604"><stop offset="0" style="stop-color:#84a746"/><stop offset="1" style="stop-color:#557d39"/></linearGradient><path fill="url(#p)" d="m215.825 330.038.059.566c-.487-4.704-.288-2.778-.059-.566z"/><linearGradient id="q" gradientUnits="userSpaceOnUse" x1="205.015" y1="193.98" x2="205.015" y2="363.905"><stop offset="0" style="stop-color:#84a746"/><stop offset="1" style="stop-color:#557d39"/></linearGradient><path fill="url(#q)" d="M212.058 363.896c1.387-.959 2.532-2.073 3.153-3.112 4.889-8.18 1.586-21.339.672-30.179.454 4.396.182 1.758-.059-.566-2.342-22.657-4.705-45.325-7.024-67.989-2.304-22.514-1.3-45.944-6.559-68.069 1.373 5.79-.68 18.268-.885 25.189-.301 10.153-1.148 20.295-2.133 30.401-2.18 22.367-2.534 44.749-4.474 67.082-1.262 14.525-7.549 35.769 6.099 46.832.061.147.128.283.196.418 3.669.005 7.341-.004 11.014-.007z"/><linearGradient id="r" gradientUnits="userSpaceOnUse" x1="166.867" y1="262.779" x2="166.867" y2="358.627"><stop offset="0" style="stop-color:#84a746"/><stop offset="1" style="stop-color:#557d39"/></linearGradient><path fill="url(#r)" d="M165.137 284.158c-2.535-7.192-5.338-14.281-8.116-21.379v95.837c5.443.171 14.713-1.653 14.918-6.8 11.366-18.799-.293-49.189-6.802-67.658z"/><linearGradient id="s" gradientUnits="userSpaceOnUse" x1="256.374" y1="331.489" x2="256.374" y2="335.073"><stop offset="0" style="stop-color:#84a746"/><stop offset=".146" style="stop-color:#709440"/><stop offset=".331" style="stop-color:#61863b"/><stop offset=".564" style="stop-color:#587f39"/><stop offset="1" style="stop-color:#557d39"/></linearGradient><path fill="url(#s)" d="m256.314 332.704-.126-1.215c.249 2.407.624 6.03.126 1.215z"/><linearGradient id="t" gradientUnits="userSpaceOnUse" x1="256.165" y1="329.803" x2="256.165" y2="332.704"><stop offset="0" style="stop-color:#84a746"/><stop offset=".146" style="stop-color:#709440"/><stop offset=".331" style="stop-color:#61863b"/><stop offset=".564" style="stop-color:#587f39"/><stop offset="1" style="stop-color:#557d39"/></linearGradient><path fill="url(#t)" d="m256.188 331.489.126 1.215c-.437-4.234-.32-3.097-.126-1.215z"/><linearGradient id="u" gradientUnits="userSpaceOnUse" x1="245.449" y1="196.08" x2="245.449" y2="363.784"><stop offset="0" style="stop-color:#84a746"/><stop offset=".146" style="stop-color:#709440"/><stop offset=".331" style="stop-color:#61863b"/><stop offset=".564" style="stop-color:#587f39"/><stop offset="1" style="stop-color:#557d39"/></linearGradient><path fill="url(#u)" d="M255.643 362.883c4.889-8.18 1.585-21.339.672-30.179.497 4.814.123 1.191-.126-1.215-2.32-22.44-4.66-44.894-6.957-67.34-2.304-22.514-1.3-45.944-6.559-68.069 1.373 5.79-.68 18.268-.885 25.189-.301 10.153-1.148 20.295-2.133 30.401-2.18 22.367-2.534 44.749-4.474 67.082-1.197 13.774-6.9 33.585 4.151 45.031 5.254-.037 10.507-.07 15.762-.124a7.09 7.09 0 0 0 .549-.776z"/><linearGradient id="v" gradientUnits="userSpaceOnUse" x1="245.434" y1="329.358" x2="245.434" y2="332.47"><stop offset="0" style="stop-color:#84a746"/><stop offset="1" style="stop-color:#557d39"/></linearGradient><path fill="url(#v)" d="m245.273 332.47.003-.025c.562-5.449.262-2.538-.003.025z"/><linearGradient id="w" gradientUnits="userSpaceOnUse" x1="256.84" y1="187.127" x2="256.84" y2="363.735"><stop offset="0" style="stop-color:#84a746"/><stop offset="1" style="stop-color:#557d39"/></linearGradient><path fill="url(#w)" d="M267.754 317.604c-2.063-23.754-2.439-47.561-4.759-71.35-1.047-10.75-1.949-21.537-2.269-32.335-.219-7.362-2.402-20.633-.941-26.792-5.594 23.533-4.526 48.454-6.977 72.4-2.487 24.306-5.022 48.617-7.533 72.917-.442 4.281-.237 2.289-.003.025-.947 9.121-4.246 22.533.298 31.265 6.488-.055 12.975-.119 19.463-.199 9.445-12.381 3.927-32.041 2.721-45.931z"/><linearGradient id="x" gradientUnits="userSpaceOnUse" x1="266.305" y1="227.613" x2="266.305" y2="357.274" gradientTransform="rotate(5.789 266.534 272.942)"><stop offset="0" style="stop-color:#84a746"/><stop offset="1" style="stop-color:#557d39"/></linearGradient><path fill="url(#x)" d="M279.59 265.468c3.144-10.861 7.33-24.98 4.775-36.286 1.599 7.043-4.447 18.185-7.416 24.355-5.313 11.041-11.236 21.775-16.455 32.865-7.873 16.732-21.719 44.176-12.829 62.92-.354 5.796 11.881 8.375 15.881 7.768 12.577-1.912 7.328-11.591 5.687-20.525-4.483-24.401 3.673-47.997 10.357-71.097 1.275-4.4-2.811 9.718 0 0z"/><linearGradient id="y" gradientUnits="userSpaceOnUse" x1="215.141" y1="235.855" x2="215.141" y2="351.943" gradientTransform="rotate(-2.688 216.568 279.871)"><stop offset="0" style="stop-color:#84a746"/><stop offset=".146" style="stop-color:#709440"/><stop offset=".331" style="stop-color:#61863b"/><stop offset=".564" style="stop-color:#587f39"/><stop offset="1" style="stop-color:#557d39"/></linearGradient><path fill="url(#y)" d="M224.684 327.547c-2.303-15.295-4.62-30.597-6.907-45.897-2.253-15.072-2.31-30.866-6.539-45.586 1.105 3.853.113 12.311.191 16.973.115 6.839-.138 13.688-.485 20.519-.768 15.114-.307 30.183-.914 45.267-.395 9.812-3.961 24.298 5.565 31.313 1.869 4.03 8.143.413 9.579-2.265 3.034-5.656.4-14.406-.49-20.324-.973-6.458.864 5.745 0 0z"/><linearGradient id="z" gradientUnits="userSpaceOnUse" x1="351.38" y1="212.688" x2="351.38" y2="360.907" gradientTransform="matrix(-1 0 0 1 520.032 0)"><stop offset="0" style="stop-color:#84a746"/><stop offset=".146" style="stop-color:#709440"/><stop offset=".331" style="stop-color:#61863b"/><stop offset=".564" style="stop-color:#587f39"/><stop offset="1" style="stop-color:#557d39"/></linearGradient><path fill="url(#z)" d="M159.308 330.163c2.029-19.645 4.079-39.298 6.09-58.947 1.98-19.358 1.118-39.504 5.64-58.528-1.181 4.979.584 15.707.761 21.658.258 8.73.988 17.451 1.834 26.141 1.875 19.232 2.179 38.478 3.848 57.68 1.084 12.49 6.49 30.756-5.244 40.269-2.144 5.249-10.36 1.008-12.351-2.323-4.204-7.034-1.365-18.349-.578-25.95.857-8.295-.763 7.38 0 0z"/><linearGradient id="A" gradientUnits="userSpaceOnUse" x1="278.248" y1="230.756" x2="278.248" y2="355.604"><stop offset="0" style="stop-color:#84a746"/><stop offset="1" style="stop-color:#557d39"/></linearGradient><path fill="url(#A)" d="M286.12 329.709c-1.711-16.547-3.437-33.102-5.131-49.652-1.668-16.307-.94-33.276-4.75-49.301.994 4.193-.492 13.23-.642 18.244-.218 7.353-.831 14.699-1.545 22.019-1.579 16.198-1.836 32.409-3.24 48.583-.914 10.521-5.468 25.908 4.416 33.92 1.807 4.422 8.727.85 10.404-1.957 3.541-5.924 1.149-15.454.488-21.856-.724-6.988.641 6.215 0 0z"/><linearGradient id="B" gradientUnits="userSpaceOnUse" x1="290.056" y1="251.539" x2="290.056" y2="251.614"><stop offset="0" style="stop-color:#84a746"/><stop offset="1" style="stop-color:#557d39"/></linearGradient><path fill="url(#B)" d="M290.055 251.539c.002.102.001.098 0 0z"/><linearGradient id="C" gradientUnits="userSpaceOnUse" x1="290.029" y1="247.19" x2="290.029" y2="251.488"><stop offset="0" style="stop-color:#84a746"/><stop offset="1" style="stop-color:#557d39"/></linearGradient><path fill="url(#C)" d="m290.055 251.488-.05-4.174-.002-.125.052 4.299z"/><linearGradient id="D" gradientUnits="userSpaceOnUse" x1="291.091" y1="202.996" x2="291.091" y2="361.544"><stop offset="0" style="stop-color:#84a746"/><stop offset="1" style="stop-color:#557d39"/></linearGradient><path fill="url(#D)" d="M279.089 360.075c4.502 2.014 19.721 2.959 21.187-3.968 16.538-19.139 9.182-55.889 5.366-78.111-2.528-14.728-6-29.268-8.656-43.968-1.484-8.217-4.971-23.274-.803-31.032-6.555 12.232-6.354 29.755-6.188 43.436l.011.883c.354 29.281 2.248 59.613-10.931 86.792-4.833 9.965-14.146 19.634.014 25.968z"/><linearGradient id="E" gradientUnits="userSpaceOnUse" x1="290" y1="246.432" x2="290" y2="247.315"><stop offset="0" style="stop-color:#84a746"/><stop offset="1" style="stop-color:#557d39"/></linearGradient><path fill="url(#E)" d="m290.003 247.189.002.125-.011-.883c.004.251.006.51.009.758z"/><linearGradient id="F" gradientUnits="userSpaceOnUse" x1="289.998" y1="246.106" x2="289.998" y2="247.19"><stop offset="0" style="stop-color:#84a746"/><stop offset="1" style="stop-color:#557d39"/></linearGradient><path fill="url(#F)" d="m289.991 246.106.013 1.083-.009-.758-.004-.325z"/><linearGradient id="G" gradientUnits="userSpaceOnUse" x1="310.611" y1="219.414" x2="310.611" y2="346.728"><stop offset="0" style="stop-color:#84a746"/><stop offset="1" style="stop-color:#557d39"/></linearGradient><path fill="url(#G)" d="M318.637 320.32c-1.744-16.873-3.504-33.755-5.23-50.633-1.702-16.628-.961-33.932-4.846-50.273 1.015 4.276-.502 13.492-.653 18.604-.222 7.499-.849 14.989-1.575 22.453-1.61 16.52-1.872 33.05-3.305 49.544-.932 10.728-5.576 26.417 4.504 34.589 1.842 4.509 8.898.866 10.609-1.995 3.611-6.041 1.172-15.76.496-22.289-.736-7.125.655 6.338 0 0z"/><linearGradient id="H" gradientUnits="userSpaceOnUse" x1="317.906" y1="198.998" x2="317.906" y2="340.425"><stop offset="0" style="stop-color:#84a746"/><stop offset=".146" style="stop-color:#709440"/><stop offset=".331" style="stop-color:#61863b"/><stop offset=".564" style="stop-color:#587f39"/><stop offset="1" style="stop-color:#557d39"/></linearGradient><path fill="url(#H)" d="M331.495 238.9c2.217-12.131 5.207-27.914 1.193-39.902 2.509 7.468-2.828 20.223-5.372 27.246-4.552 12.564-9.798 24.865-14.242 37.473-6.705 19.023-18.715 50.326-7.007 69.69.252 6.329 13.815 7.782 18.088 6.683 13.438-3.457 6.68-13.384 3.915-22.899-7.548-25.986-1.29-52.488 3.425-78.291.898-4.915-1.983 10.854 0 0z"/><linearGradient id="I" gradientUnits="userSpaceOnUse" x1="324.882" y1="325.902" x2="324.882" y2="328.935"><stop offset="0" style="stop-color:#84a746"/><stop offset="1" style="stop-color:#557d39"/></linearGradient><path fill="url(#I)" d="m324.726 328.935.006-.051c.545-5.281.25-2.431-.006.051z"/><linearGradient id="J" gradientUnits="userSpaceOnUse" x1="335.892" y1="188.525" x2="335.892" y2="362.405"><stop offset="0" style="stop-color:#84a746"/><stop offset="1" style="stop-color:#557d39"/></linearGradient><path fill="url(#J)" d="M346.443 314.55c-1.993-22.943-2.355-45.938-4.597-68.915-1.012-10.383-1.883-20.802-2.19-31.232-.211-7.11-2.32-19.929-.909-25.877-5.403 22.73-4.373 46.8-6.738 69.929-2.403 23.476-4.853 46.958-7.276 70.429-.426 4.118-.23 2.227-.006.051-.946 9.08-4.318 22.564.694 30.952.496.83 1.318 1.706 2.327 2.518 4.366-.103 8.729-.206 13.089-.317 13.137-11.513 6.881-32.86 5.606-47.538z"/><linearGradient id="K" gradientUnits="userSpaceOnUse" x1="284.646" y1="233.216" x2="284.646" y2="349.304" gradientTransform="rotate(3.714 443.647 312.505)"><stop offset="0" style="stop-color:#84a746"/><stop offset=".146" style="stop-color:#709440"/><stop offset=".331" style="stop-color:#61863b"/><stop offset=".564" style="stop-color:#587f39"/><stop offset="1" style="stop-color:#557d39"/></linearGradient><path fill="url(#K)" d="M291.458 315.449c-.597-15.456-1.207-30.92-1.787-46.38-.57-15.229 1.121-30.933-1.454-46.03.673 3.951-1.249 12.248-1.688 16.89-.643 6.81-1.653 13.589-2.752 20.338-2.437 14.937-3.646 29.964-5.918 44.888-1.479 9.708-6.627 23.71 2.064 31.737 1.412 4.212 8.047 1.312 9.772-1.19 3.641-5.285 1.994-14.272 1.763-20.253-.251-6.526.222 5.806 0 0z"/><linearGradient id="L" gradientUnits="userSpaceOnUse" x1="179.275" y1="273.684" x2="179.275" y2="268.96"><stop offset="0" style="stop-color:#84a746"/><stop offset="1" style="stop-color:#97b866"/></linearGradient><path fill="url(#L)" d="m179.015 269.896-.171-.936.171.936z"/><linearGradient id="M" gradientUnits="userSpaceOnUse" x1="178.843" y1="268.96" x2="178.843" y2="268.948"><stop offset="0" style="stop-color:#84a746"/><stop offset="1" style="stop-color:#97b866"/></linearGradient><path fill="url(#M)" d="M178.844 268.96c-.003-.016-.004-.017 0 0z"/><linearGradient id="N" gradientUnits="userSpaceOnUse" x1="192.207" y1="363.91" x2="192.207" y2="231.159"><stop offset="0" style="stop-color:#84a746"/><stop offset="1" style="stop-color:#97b866"/></linearGradient><path fill="url(#N)" d="M203.701 361.646c11.365-18.8-.293-49.189-6.803-67.658-4.314-12.24-9.407-24.181-13.827-36.379-2.469-6.818-7.651-19.2-5.215-26.451-3.897 11.638-.994 26.96 1.158 38.737 4.577 25.051 10.652 50.78 3.325 76.008-1.909 6.569-5.772 13.339-3.155 17.91 7.904.054 15.816.088 23.736.097.463-.671.747-1.421.781-2.264z"/><linearGradient id="O" gradientUnits="userSpaceOnUse" x1="217.823" y1="334.912" x2="217.823" y2="332.377"><stop offset="0" style="stop-color:#84a746"/><stop offset="1" style="stop-color:#97b866"/></linearGradient><path fill="url(#O)" d="M217.692 334.912a.546.546 0 0 1 .005-.04c.456-4.418.21-2.036-.005.04z"/><linearGradient id="P" gradientUnits="userSpaceOnUse" x1="227.041" y1="363.875" x2="227.041" y2="217.397"><stop offset="0" style="stop-color:#84a746"/><stop offset="1" style="stop-color:#97b866"/></linearGradient><path fill="url(#P)" d="M230.625 363.144c11.734-9.513 6.328-27.778 5.244-40.269-1.669-19.202-1.973-38.447-3.848-57.68-.847-8.69-1.575-17.411-1.834-26.141-.177-5.951-1.942-16.68-.761-21.658-4.522 19.024-3.659 39.17-5.64 58.528-2.011 19.649-4.061 39.303-6.09 58.947-.356 3.449-.193 1.862-.005.04-.792 7.601-3.614 18.888.582 25.908.618 1.034 1.838 2.156 3.289 3.055 2.894-.01 5.785-.005 8.68-.02.139-.218.274-.444.383-.71z"/><linearGradient id="Q" gradientUnits="userSpaceOnUse" x1="248.329" y1="263.789" x2="248.329" y2="258.764"><stop offset="0" style="stop-color:#84a746"/><stop offset="1" style="stop-color:#97b866"/></linearGradient><path fill="url(#Q)" d="M248.054 259.771c-.925-5.063 2.042 11.179 0 0z"/><linearGradient id="R" gradientUnits="userSpaceOnUse" x1="262.049" y1="363.664" x2="262.049" y2="218.674"><stop offset="0" style="stop-color:#84a746"/><stop offset="1" style="stop-color:#97b866"/></linearGradient><path fill="url(#R)" d="M274.244 357.11c12.058-19.944-.312-52.186-7.217-71.779-4.577-12.985-9.98-25.654-14.669-38.596-2.62-7.233-8.117-20.37-5.533-28.062-4.135 12.347-1.054 28.602 1.229 41.097 4.856 26.577 11.302 53.873 3.527 80.637-2.764 9.514-9.403 19.428 2.878 23.256 3.868-.04 7.734-.095 11.603-.143 4.246-1.015 8.047-3.04 8.182-6.41z"/><linearGradient id="S" gradientUnits="userSpaceOnUse" x1="260.26" y1="364.337" x2="260.26" y2="363.522"><stop offset="0" style="stop-color:#84a746"/><stop offset="1" style="stop-color:#97b866"/></linearGradient><path fill="url(#S)" d="M266.062 363.521c-3.868.048-7.734.103-11.603.143.369.114.751.226 1.154.329 2.126.547 6.482.478 10.449-.472z"/><linearGradient id="T" gradientUnits="userSpaceOnUse" x1="328.187" y1="330.675" x2="328.187" y2="328.122"><stop offset="0" style="stop-color:#84a746"/><stop offset="1" style="stop-color:#97b866"/></linearGradient><path fill="url(#T)" d="m328.315 330.645.004.03c-.217-2.097-.465-4.49-.004-.03z"/><linearGradient id="U" gradientUnits="userSpaceOnUse" x1="318.867" y1="361.729" x2="318.867" y2="211.864"><stop offset="0" style="stop-color:#84a746"/><stop offset="1" style="stop-color:#97b866"/></linearGradient><path fill="url(#U)" d="M315.243 359.229c2.169 5.309 10.476 1.021 12.488-2.348 4.244-7.103 1.387-18.521.588-26.207l.207 2.008c.002.022.002.022 0 0l-.211-2.038c-2.053-19.862-4.124-39.734-6.157-59.602-2.003-19.574-1.13-39.943-5.702-59.179 1.193 5.034-.592 15.882-.771 21.899-.261 8.827-.998 17.644-1.854 26.431-1.896 19.446-2.202 38.905-3.89 58.321-1.097 12.629-6.564 31.097 5.302 40.715z"/><linearGradient id="V" gradientUnits="userSpaceOnUse" x1="328.527" y1="332.699" x2="328.527" y2="332.683"><stop offset="0" style="stop-color:#84a746"/><stop offset="1" style="stop-color:#97b866"/></linearGradient><path fill="url(#V)" d="M328.526 332.683c.002.022.002.022 0 0z"/><linearGradient id="W" gradientUnits="userSpaceOnUse" x1="207.776" y1="263.973" x2="207.776" y2="263.96"><stop offset="0" style="stop-color:#84a746"/><stop offset=".241" style="stop-color:#8dad4c"/><stop offset=".654" style="stop-color:#a5c15e"/><stop offset="1" style="stop-color:#c0da75"/></linearGradient><path fill="url(#W)" d="M207.775 263.973c.003-.018.003-.016 0 0z"/><linearGradient id="X" gradientUnits="userSpaceOnUse" x1="194.412" y1="363.47" x2="194.412" y2="226.169"><stop offset="0" style="stop-color:#84a746"/><stop offset=".241" style="stop-color:#8dad4c"/><stop offset=".654" style="stop-color:#a5c15e"/><stop offset="1" style="stop-color:#c0da75"/></linearGradient><path fill="url(#X)" d="M200.479 363.145c13.047-3.356 6.484-12.993 3.801-22.23-7.328-25.228-1.253-50.957 3.324-76.007 2.152-11.778 5.056-27.1 1.158-38.738 2.437 7.25-2.745 19.632-5.215 26.451-4.419 12.198-9.512 24.139-13.826 36.379-6.51 18.469-18.168 48.858-6.803 67.658.247 6.143 13.413 7.554 17.561 6.487z"/><linearGradient id="Y" gradientUnits="userSpaceOnUse" x1="207.344" y1="268.695" x2="207.344" y2="263.973"><stop offset="0" style="stop-color:#84a746"/><stop offset=".241" style="stop-color:#8dad4c"/><stop offset=".654" style="stop-color:#a5c15e"/><stop offset="1" style="stop-color:#c0da75"/></linearGradient><path fill="url(#Y)" d="m207.775 263.973-.171.934c-1.618 8.858.1-.545.171-.934z"/><linearGradient id="Z" gradientUnits="userSpaceOnUse" x1="359.016" y1="352.37" x2="359.016" y2="237.627" gradientTransform="scale(-1 1) rotate(5.561 6.379 -5105.938)"><stop offset="0" style="stop-color:#84a746"/><stop offset="1" style="stop-color:#97b866"/></linearGradient><path fill="url(#Z)" d="M162.062 337.88c.089-15.288.194-30.585.269-45.876.073-15.063-2.104-30.521-.047-45.519-.537 3.924 1.629 12.059 2.211 16.63.854 6.707 2.07 13.372 3.375 20.004 2.888 14.678 4.565 29.484 7.293 44.154 1.772 9.542 7.309 23.21-1.019 31.42-1.258 4.205-7.907 1.554-9.691-.863-3.766-5.102-2.427-14.034-2.391-19.95.038-6.455-.034 5.744 0 0z"/><linearGradient id="aa" gradientUnits="userSpaceOnUse" x1="280.656" y1="334.786" x2="280.656" y2="332.018"><stop offset="0" style="stop-color:#84a746"/><stop offset=".241" style="stop-color:#8dad4c"/><stop offset=".654" style="stop-color:#a5c15e"/><stop offset="1" style="stop-color:#c0da75"/></linearGradient><path fill="url(#aa)" d="m280.797 334.778.001.008c-.236-2.288-.504-4.87-.001-.008z"/><linearGradient id="ab" gradientUnits="userSpaceOnUse" x1="270.459" y1="363.55" x2="270.459" y2="204.801"><stop offset="0" style="stop-color:#84a746"/><stop offset=".241" style="stop-color:#8dad4c"/><stop offset=".654" style="stop-color:#a5c15e"/><stop offset="1" style="stop-color:#c0da75"/></linearGradient><path fill="url(#ab)" d="M280.798 334.786c.21 2.031.396 3.831-.001-.008-2.246-21.735-4.513-43.48-6.737-65.221-2.192-21.418-1.237-43.708-6.24-64.757 1.307 5.509-.647 17.379-.843 23.964-.286 9.659-1.093 19.307-2.029 28.922-2.074 21.278-2.41 42.572-4.257 63.818-1.11 12.791-6.307 31.051 3.222 42.045 5.442-.066 10.885-.133 16.325-.216 4.521-7.788 1.426-20.191.56-28.547z"/><linearGradient id="ac" gradientUnits="userSpaceOnUse" x1="296.844" y1="358.629" x2="296.844" y2="221.329" gradientTransform="translate(-7.877)"><stop offset="0" style="stop-color:#84a746"/><stop offset="1" style="stop-color:#97b866"/></linearGradient><path fill="url(#ac)" d="M302.159 260.066c2.152-11.778 5.056-27.1 1.158-38.738 2.437 7.25-2.745 19.632-5.215 26.451-4.419 12.198-9.512 24.139-13.826 36.379-6.51 18.469-18.168 48.858-6.803 67.658.246 6.144 13.412 7.555 17.561 6.487 13.047-3.356 6.484-12.993 3.801-22.23-7.329-25.227-1.253-50.957 3.324-76.007.872-4.772-1.925 10.538 0 0z"/><linearGradient id="ad" gradientUnits="userSpaceOnUse" x1="237.208" y1="273.684" x2="237.208" y2="268.96"><stop offset="0" style="stop-color:#84a746"/><stop offset="1" style="stop-color:#97b866"/></linearGradient><path fill="url(#ad)" d="m236.948 269.896-.171-.936.171.936z"/><linearGradient id="ae" gradientUnits="userSpaceOnUse" x1="236.775" y1="268.96" x2="236.775" y2="268.948"><stop offset="0" style="stop-color:#84a746"/><stop offset="1" style="stop-color:#97b866"/></linearGradient><path fill="url(#ae)" d="M236.777 268.96c-.003-.016-.004-.017 0 0z"/><linearGradient id="af" gradientUnits="userSpaceOnUse" x1="250.14" y1="363.801" x2="250.14" y2="231.159"><stop offset="0" style="stop-color:#84a746"/><stop offset="1" style="stop-color:#97b866"/></linearGradient><path fill="url(#af)" d="M261.633 361.646c11.365-18.8-.293-49.189-6.803-67.658-4.313-12.24-9.407-24.181-13.826-36.379-2.469-6.818-7.651-19.2-5.215-26.451-3.897 11.638-.994 26.96 1.158 38.737 4.577 25.051 10.652 50.78 3.325 76.008-1.907 6.563-5.765 13.327-3.162 17.897 7.982-.053 15.964-.121 23.948-.213.34-.587.547-1.231.575-1.941z"/><linearGradient id="ag" gradientUnits="userSpaceOnUse" x1="322.71" y1="342.172" x2="322.71" y2="338.666"><stop offset="0" style="stop-color:#84a746"/><stop offset=".241" style="stop-color:#8dad4c"/><stop offset=".654" style="stop-color:#a5c15e"/><stop offset="1" style="stop-color:#c0da75"/></linearGradient><path fill="url(#ag)" d="m322.816 339.313-.122 1.279.122-1.279z"/><linearGradient id="ah" gradientUnits="userSpaceOnUse" x1="322.754" y1="340.592" x2="322.754" y2="339.313"><stop offset="0" style="stop-color:#84a746"/><stop offset=".241" style="stop-color:#8dad4c"/><stop offset=".654" style="stop-color:#a5c15e"/><stop offset="1" style="stop-color:#c0da75"/></linearGradient><path fill="url(#ah)" d="m322.694 340.592.122-1.279-.122 1.279z"/><linearGradient id="ai" gradientUnits="userSpaceOnUse" x1="330" y1="362.465" x2="330" y2="249.583"><stop offset="0" style="stop-color:#84a746"/><stop offset=".241" style="stop-color:#8dad4c"/><stop offset=".654" style="stop-color:#a5c15e"/><stop offset="1" style="stop-color:#c0da75"/></linearGradient><path fill="url(#ai)" d="M336.69 331.198c-1.405-14.854-1.755-29.752-3.319-44.629-.707-6.722-1.323-13.469-1.575-20.226-.171-4.605-1.602-12.9-.717-16.761-3.388 14.754-2.602 30.344-4.019 45.341-1.4 14.796-2.829 29.596-4.244 44.389l-.122 1.279c-.563 5.89-2.696 14.666.6 20.085.361.594.988 1.222 1.748 1.788 2.653-.061 5.31-.115 7.961-.18 8.844-7.462 4.596-21.473 3.687-31.086z"/><linearGradient id="aj" gradientUnits="userSpaceOnUse" x1="208.405" y1="361.614" x2="208.405" y2="256.476" gradientTransform="scale(-1 1) rotate(-9.91 -56.32 3288.352)"><stop offset="0" style="stop-color:#84a746"/><stop offset=".241" style="stop-color:#8dad4c"/><stop offset=".654" style="stop-color:#a5c15e"/><stop offset="1" style="stop-color:#c0da75"/></linearGradient><path fill="url(#aj)" d="M302.265 283.624c.151 19.5 1.342 39.709-7.51 57.773-3.243 6.614-9.464 13.019-.064 17.27 2.988 1.353 13.105 2.022 14.103-2.578 11.051-12.684 6.263-37.144 3.786-51.934-1.642-9.802-3.909-19.48-5.635-29.265-.964-5.468-3.24-15.491-.447-20.64-4.474 8.267-4.303 20.207-4.233 29.374.064 8.203-.029-3.713 0 0z"/><linearGradient id="ak" gradientUnits="userSpaceOnUse" x1="172.751" y1="357.328" x2="172.751" y2="228.751" gradientTransform="matrix(-1 0 0 1 520.032 0)"><stop offset="0" style="stop-color:#84a746"/><stop offset="1" style="stop-color:#97b866"/></linearGradient><path fill="url(#ak)" d="M339.175 330.658c1.759-17.04 3.538-34.09 5.282-51.135 1.719-16.792.97-34.269 4.893-50.772-1.024 4.319.507 13.625.66 18.789.224 7.572.855 15.138 1.591 22.675 1.626 16.685 1.89 33.38 3.337 50.037.941 10.835 5.631 26.68-4.549 34.932-1.86 4.554-8.986.874-10.714-2.015-3.645-6.101-1.182-15.916-.5-22.511.743-7.195-.663 6.403 0 0z"/><linearGradient id="al" gradientUnits="userSpaceOnUse" x1="221.789" y1="361.971" x2="221.789" y2="262.326" gradientTransform="rotate(7.735 258.602 188.126)"><stop offset="0" style="stop-color:#84a746"/><stop offset="1" style="stop-color:#97b866"/></linearGradient><path fill="url(#al)" d="M217.844 285.839c2.697-8.26 6.282-18.994 4.616-27.745 1.044 5.452-3.893 13.85-6.334 18.512-4.369 8.341-9.198 16.431-13.496 24.812-6.486 12.646-17.838 33.362-11.501 47.991-.423 4.441 8.908 6.743 11.995 6.381 9.711-1.14 5.933-8.711 4.904-15.616-2.805-18.858 4.076-36.768 9.816-54.335 1.093-3.347-2.414 7.39 0 0z"/><linearGradient id="am" gradientUnits="userSpaceOnUse" x1="257.021" y1="318.161" x2="257.021" y2="365.522"><stop offset="0" style="stop-color:#84a746;stop-opacity:0"/><stop offset=".703" style="stop-color:#84a746"/></linearGradient><path fill="url(#am)" d="M157.021 318.161h200v47.361h-200z"/></svg>