<svg xmlns="http://www.w3.org/2000/svg" width="201" height="133" xml:space="preserve"><linearGradient id="a" gradientUnits="userSpaceOnUse" x1="85.869" y1="-12.141" x2="114.131" y2="148.141"><stop offset="0" style="stop-color:#845e39"/><stop offset="1" style="stop-color:#744f2c"/></linearGradient><path fill="url(#a)" d="M200 10.949V3h-5.958c-.826-.221-1.645-.397-2.357-.568-.396-.094-.798-.166-1.197-.246-2.185-1.258-5.06-1.148-7.487-.828a6.714 6.714 0 0 0-2.039.606c-6.197-2.077-15.813-.056-20.385.837-3.287.643-6.535 1.514-9.762 2.457-3.481-.609-7.167-.582-10.189-.483-3.883.126-7.763.653-11.597 1.3-9.137-1.897-18.273-4.16-27.397-6.075H75.159c-4.862.857-9.703 2.069-14.556 3.446C54 2.573 46.968 3.219 40.732 4.688c-10.809-2.421-22.784-6.23-33.381-2.67A7.22 7.22 0 0 0 5.427 3H0v130h200V15.053c.793-1.191.978-2.672 0-4.104z"/><path fill="#926F40" d="M169.171 79.171c.155-.165.313-.328.475-.487l-1.311.543c.722-.023 1.518-.113 2.024-.708.08-.099.164-.192.254-.283.398-.423-.417.24.04-.025a1.182 1.182 0 0 1-.667.182c-.584.05-.311-.058-.017.014-.414-.191-.293-.145.364.143.5.138.955.086 1.449-.036h-1.219c-.196-.014-.16.045.108.176.771.593 2.03.288 2.663-.344.851-.852.84-2.255 0-3.107-.184-.186-.372-.357-.542-.555l.59 1.012c-.398-1.823-2.7-2.643-4.343-2.091-1.717.577-3.252 2.422-2.494 4.264v-.986c-.053.227-.1.452-.144.68-.294 1.529 1.558 2.902 2.77 1.608zM32.969 39c.135-1.058-.167-2.189-.945-2.956-.978-.963-2.165-1.054-3.447-.866-1.268.187-2.15 1.644-2.15 2.825 0 1.253.887 2.543 2.15 2.824.126.028.252.044.374.09l-.71-.3c.529.272-1.143-1.431-.9-.896l-.302-.717a.498.498 0 0 1 .025.113l-.107-.8c.032.412.09.821.15 1.231L27 38.75l.033.249c.106.822.258 1.487.87 2.1.554.554 1.315.869 2.099.869s1.545-.315 2.099-.869c.609-.611.763-1.277.868-2.099zM89.49 103.222c-1.082-.196-2.075-.327-3.167-.145-1.323.222-3.407 1.53-2.82 3.162.229.634.642 1.126 1.31 1.31.365.101.832.071 1.195-.02.076-.02.851-.187.46-.139 1.021-.125 2.011-.428 3.022-.612 1.766-.323 1.768-3.235 0-3.556zM148.25 32l-.091-.825c-.129-1.169-.885-2.159-2.159-2.159s-2.03.989-2.159 2.159l-.091.825c-.135 1.222 1.125 2.25 2.25 2.25s2.385-1.028 2.25-2.25zM138.254 101.746c.738.639 1.494 1.259 2.299 1.813 1.135.782 2.491 1.047 3.838.856.991-.14 1.268-1.407.878-2.157-.242-.466-.507-.885-.902-1.237-.234-.21-.674-.768-1.022-1.078-.58-.516-1.091-1.104-1.598-1.689-.883-1.017-2.591-.9-3.492 0-.901.9-1.019 2.61-.001 3.492z" opacity=".3"/><path fill="#59391D" d="M100.193 64.193c.413-.461 1.022-.976 1.151-1.59.256-1.218-.731-2.204-1.948-1.948-.614.129-1.129.739-1.59 1.151-.686.614-.623 1.764 0 2.387.624.623 1.774.686 2.387 0zM25.808 117.057c1.063-2.243 1.792-5.457.024-7.501-.877-1.015-2.787-1.015-3.664 0-1.768 2.044-1.039 5.258.024 7.501.648 1.369 2.968 1.369 3.616 0zM57.625 69c.061-.581-.066-1.168-.16-1.741l-.028-.174c.092.669.077.554-.045-.348-.03-.108-.059-.217-.087-.326.042.479.067.563.077.256.089-1.223-.916-2.374-2.044-2.685-1.498-.412-2.977.495-3.425 1.944-.319 1.032-.204 2.051.236 3.021.094.207.198.408.302.611.126.262.104.202-.065-.181.038.104.065.21.083.319.241 1.133 1.416 1.927 2.531 1.927 1.544.002 2.476-1.2 2.625-2.623zM91 20.875c1.534-.13 2.543-1.29 3.486-2.389.579-.675-.297-1.55-.973-.973-.66.565-1.581 1.589-2.514 1.611-1.136.028-1.113 1.845.001 1.751zM184 123.656c1.448 0 2.656-1.208 2.656-2.656s-1.208-2.656-2.656-2.656-2.656 1.208-2.656 2.656 1.208 2.656 2.656 2.656z" opacity=".3"/></svg>