<svg xmlns="http://www.w3.org/2000/svg" width="1879" height="833" viewBox="27.434 -0.216 1879 833" xml:space="preserve"><linearGradient id="a" gradientUnits="userSpaceOnUse" x1="974.274" y1="857.331" x2="961.576" y2="493.711"><stop offset="0" style="stop-color:#664827"/><stop offset=".715" style="stop-color:#70512f"/></linearGradient><path fill="url(#a)" d="M1799.555 755.938c0 42.035-46.486 76.11-103.83 76.11h-1455.6c-57.345 0-103.832-34.075-103.832-76.11V595.103c0-42.035 46.487-76.11 103.832-76.11h1455.6c57.344 0 103.83 34.075 103.83 76.11v160.835z"/><path fill="#664827" d="M1754.69 610.884c-29.253-7.638-57.032-19.713-85.371-30.064a5.87 5.87 0 0 1-.627-.275c-51.026-4.247-96.116 18.133-140.615 43.038-36.569 20.467-81.816 49.419-126.035 40.208-42.457-8.844-77.418-34.66-122.158-36.743-62.798-2.924-113.313 35.796-171.635 52.111-117.543 32.883-215.593-55.865-333.759-46.387-56.566 4.537-106.551 37.771-162.93 39.744-52.37 1.833-91.661-65.563-145.725-45.552-23.951 8.865-40.759 20.824-67.512 18.932-24.548-1.737-46.537-6.575-69.114-16.565-26.62-11.779-51.917-23.327-81.452-25.47-36.359-2.639-70.609 10.272-106.642 10.421a725.2 725.2 0 0 0-4.822.035v36.294c58.419-.951 111.77-13.649 168.057 12.339 46.942 21.675 105.427 38.569 154.978 14.438 33.542-16.335 40.516-7.859 71.827 12.2 50.412 32.295 97.811 33.128 153.615 14.529 60.796-20.264 113.991-32.539 177.833-16.063 49.641 12.813 93.802 40.869 144.784 48.935 56.289 8.904 111.267-2.489 163.375-24.054 30.669-12.692 58.434-31.231 92.393-33.176 42.701-2.45 75.796 20.577 114.844 32.422 101.395 30.756 170.457-62.631 262.526-79.044 29.712-.986 56.225 6.166 87.807 19.163 8.69 3.576 41.71 20.315 71.226 28.661V621.06c-14.975-3.305-30.029-6.301-44.868-10.176z"/><linearGradient id="b" gradientUnits="userSpaceOnUse" x1="1750.085" y1="624.898" x2="229.444" y2="130.811"><stop offset="0" style="stop-color:#ebb26f"/><stop offset=".175" style="stop-color:#ecb770"/><stop offset=".891" style="stop-color:#f0c975"/></linearGradient><path fill="url(#b)" d="M1796.37 457.442c-9.119-48.871-44.384-73.004-81.838-100.471-25.047-21.785-23.907-61.351-49.09-85.707-22.875-22.125-58.881-20.089-78.393-43.723-33.937-41.441-50.047-97.04-108.787-110.664-26.445-6.134-53.35-.746-79.615 3.352-8.359-22.095-27.88-38.867-47.344-51.09-23.158-14.542-51.735-26.979-79.651-25.09-13.36.904-26.928 3.929-39.848 7.308-19.319 5.052-22.27-3.363-39.979-12.812-47.736-25.47-105.86-37.684-159.521-27.798-50.939 9.384-95.807 3.955-147.655 2.721-45.53-1.083-79.555 18.11-119.636 27.218-10.125 2.301-14.967 1.862-22.075-.906-24.158-9.407-53.997-9.348-83.204.615-42.089 14.357-74.347 44.404-114.735 60.713-50.169 20.218-108.504 35.978-146.408 77.634-29.983 32.951-39.591 40.442-82.749 52.163-65.442 17.772-92.188 54.196-106.894 118.207-8.487 36.945-35.895 55.364-61.582 81.827-12.342 12.715-27.718 29.833-30.487 48.225-1.376 9.14 11.054 52.111 19.411 28.742 36.208 51.512 110.487 60.448 168.233 62.68 76.99 2.976 153.506 2.8 230.485 8.26 154.502 10.959 309.71 1.547 464.579 6.618 74.508 2.44 149.168 3.393 223.503-3.197 79.843-7.078 160.196-7.456 239.842-15.096 71.783-6.884 142.61-21.6 214.391-28.362 45.485-4.286 131.568-14.243 119.047-81.367-1.217-6.521 3.506 18.8 0 0z"/><path fill="#F6DFA2" d="M1160.77 319.784c58.313 101.457 165.7 196.665 288.681 197.453 60.433.388 120.998-22.381 171.612-54.315 29.211-18.429 131.794-87.749 68.652-119.24-57.242-28.55-116.735-13.152-175.681 1.899-33.661 8.594-66.471-4.119-96.329-19.255-20.027-10.153-37.247-24.402-56.836-35.075-29.576-16.115-63.883-20.639-97.04-22.382-35.073-1.842-142.187-17.155-103.059 50.915 4.556 7.926-6.605-11.491 0 0z"/><linearGradient id="c" gradientUnits="userSpaceOnUse" x1="1421.079" y1="388.912" x2="1378.997" y2="266.697" gradientTransform="rotate(34.307 1336.894 393.404)"><stop offset="0" style="stop-color:#f6dfa2"/><stop offset=".548" style="stop-color:#f2d287"/><stop offset="1" style="stop-color:#f0c975"/></linearGradient><path fill="url(#c)" d="M1617.235 362.142c-65.549 34.361-160.509 12.616-224.542-15.048-31.264-20.823-66.648-48.503-104.991-54.076-33.189-4.824-61.979 28.855-44.549 60.368 34.986 63.256 153.074 77.81 216.456 93.583 33.718 8.392 70.572 13.635 99.464-10.169 14.146-11.656 26.564-25.625 39.795-38.289 8.572-8.205 17.313-16.248 26.511-23.75 6.541-5.335-.466-16.643-8.144-12.619-8.09 4.242 7.648-4.008 0 0z"/><path fill="#F6DFA2" d="M1256.46 368.272c-94.709-68.733-231.643-111.691-344.188-62.112-55.307 24.362-101.262 69.912-134.388 119.753-19.118 28.766-84.377 133.979-13.878 136.89 63.912 2.64 111.904-35.743 159.538-73.586 27.202-21.609 62.342-23.428 95.779-21.828 22.428 1.074 43.97 7.034 66.21 8.761 33.58 2.608 66.736-7.294 97.707-19.265 32.759-12.663 136.767-42.499 73.22-88.613-7.398-5.37 10.728 7.784 0 0z"/><linearGradient id="d" gradientUnits="userSpaceOnUse" x1="1107.074" y1="976.674" x2="1064.992" y2="854.459" gradientTransform="rotate(-169.834 1017.234 675.219)"><stop offset="0" style="stop-color:#f6dfa2"/><stop offset=".548" style="stop-color:#f2d287"/><stop offset="1" style="stop-color:#f0c975"/></linearGradient><path fill="url(#d)" d="M822.597 516.313c45.762-58.165 141.31-77.16 211.057-78.105 37.046 6.215 80.656 17.001 117.925 6.404 32.26-9.172 44.756-51.681 15.962-73.309-57.798-43.413-171.51-8.396-235.8 3.133-34.2 6.133-69.976 16.422-86.604 49.961-8.142 16.423-13.76 34.249-20.654 51.216-4.466 10.994-9.153 21.908-14.478 32.516-3.789 7.545 7.231 14.997 12.592 8.184 5.647-7.179-5.341 6.787 0 0z"/><path fill="#F6DFA2" d="M907.458 308.295c39.128-68.07-67.986-52.757-103.06-50.914-33.157 1.743-67.464 6.267-97.04 22.382-19.589 10.672-36.809 24.922-56.836 35.075-29.858 15.136-62.668 27.849-96.329 19.255-58.945-15.051-118.438-30.449-175.681-1.899-63.142 31.491 39.441 100.811 68.652 119.24 50.614 31.934 111.18 54.703 171.612 54.314 122.982-.789 230.369-95.996 288.682-197.453 6.606-11.491-4.555 7.926 0 0z"/><linearGradient id="e" gradientUnits="userSpaceOnUse" x1="607.987" y1="929.792" x2="565.905" y2="807.577" gradientTransform="scale(-1 1) rotate(34.307 791.004 -1375.18)"><stop offset="0" style="stop-color:#f6dfa2"/><stop offset=".548" style="stop-color:#f2d287"/><stop offset="1" style="stop-color:#f0c975"/></linearGradient><path fill="url(#e)" d="M450.994 350.653c65.549 34.361 160.509 12.616 224.542-15.048 31.264-20.823 66.648-48.503 104.991-54.076 33.189-4.824 61.979 28.855 44.549 60.368-34.986 63.255-153.074 77.81-216.456 93.583-33.718 8.392-70.572 13.635-99.464-10.17-14.146-11.656-26.564-25.625-39.795-38.289-8.572-8.205-17.313-16.248-26.511-23.75-6.542-5.334.466-16.642 8.144-12.618 8.089 4.242-7.649-4.008 0 0z"/><path fill="#F6DFA2" d="M206.729 500.068c-7.114 78.191 83.809 19.533 114.906 3.206 29.397-15.434 58.677-33.876 78.817-60.872 13.34-17.879 23.033-38.02 36.988-55.61 20.805-26.225 45.304-51.481 79.478-57.735 59.843-10.95 120.329-21.812 160.411-71.664 44.213-54.989-77.948-75.117-112.187-79.659-59.327-7.871-123.866-3.257-178.611 22.341-111.407 52.091-169.204 183.453-179.802 299.993-1.202 13.2.828-9.105 0 0z"/><linearGradient id="f" gradientUnits="userSpaceOnUse" x1="627.028" y1="1835.877" x2="584.946" y2="1713.662" gradientTransform="scale(1 -1) rotate(58.998 2383.55 557.545)"><stop offset="0" style="stop-color:#f6dfa2"/><stop offset=".548" style="stop-color:#f2d287"/><stop offset="1" style="stop-color:#f0c975"/></linearGradient><path fill="url(#f)" d="M603.763 270.899c-73.909-3.836-151.103 55.588-197.725 107.473-19.707 31.979-40.292 71.909-72.802 92.99-28.14 18.248-68.366-.327-65.694-36.239 5.363-72.086 106.574-134.641 157.571-175.449 27.129-21.71 58.424-41.869 94.618-32.31 17.723 4.681 34.84 12.185 52.151 18.165 11.216 3.874 22.517 7.53 34.008 10.503 8.173 2.114 6.529 15.316-2.127 14.867-9.122-.474 8.623.447 0 0z"/><path fill="#F6DFA2" d="M1153.69 103.768c-88.758-76.263-221.71-130.3-337.941-90.111-57.116 19.748-106.65 61.377-143.75 108.336-21.411 27.102-95.073 126.612-25.05 135.292 63.481 7.87 114.457-26.452 165.032-60.264 28.881-19.308 64.052-18.239 97.246-13.905 22.265 2.908 43.245 10.614 65.27 14.158 33.253 5.352 67.11-1.801 98.957-11.193 33.685-9.935 139.789-31.146 80.236-82.313-6.935-5.958 10.053 8.637 0 0z"/><linearGradient id="g" gradientUnits="userSpaceOnUse" x1="1295.565" y1="1232.671" x2="1253.483" y2="1110.456" gradientTransform="scale(-1) rotate(14.863 5203.98 -7768.185)"><stop offset="0" style="stop-color:#f6dfa2"/><stop offset=".548" style="stop-color:#f2d287"/><stop offset="1" style="stop-color:#f0c975"/></linearGradient><path fill="url(#g)" d="M711.027 211.004c50.375-54.219 147.158-65.319 216.749-60.546 36.411 9.23 78.991 23.555 117.003 16.048 32.903-6.498 48.841-47.839 21.916-71.754-54.045-48.004-170.244-22.425-235.263-16.203-34.588 3.31-71.086 10.632-90.408 42.695-9.46 15.7-16.521 33.006-24.782 49.352-5.353 10.591-10.917 21.083-17.094 31.22-4.393 7.207 5.978 15.538 11.879 9.188 6.217-6.692-5.878 6.325 0 0z"/><path fill="#F6DFA2" d="M998.056 107.725c-68.323 38.685 31.677 80.012 62.807 96.274 29.429 15.374 61.265 28.938 94.925 30.117 22.293.781 44.368-2.722 66.775-1.27 33.405 2.165 68.117 7.918 92.721 32.446 43.083 42.953 86.46 86.484 150.265 91.038 70.38 5.024 17.351-106.852 1.583-137.583-27.319-53.246-67.868-103.667-120.087-134.087-106.267-61.904-247.16-34.596-348.989 23.065-11.533 6.53 7.956-4.505 0 0z"/><linearGradient id="h" gradientUnits="userSpaceOnUse" x1="1499.263" y1="1162.806" x2="1457.181" y2="1040.59" gradientTransform="scale(1 -1) rotate(3.715 21361.226 -2997.09)"><stop offset="0" style="stop-color:#f6dfa2"/><stop offset=".548" style="stop-color:#f2d287"/><stop offset="1" style="stop-color:#f0c975"/></linearGradient><path fill="url(#h)" d="M1412.548 303.556c-38.939-62.937-131.749-92.542-200.948-101.315-37.51 2.016-82.056 7.836-117.899-6.88-31.024-12.738-38.668-56.38-7.627-74.637 62.308-36.647 171.367 10.918 233.956 29.595 33.296 9.936 67.688 24.177 80.445 59.372 6.246 17.233 9.827 35.577 14.771 53.212 3.204 11.426 6.635 22.796 10.735 33.936 2.916 7.92-8.87 14.088-13.433 6.717-4.804-7.768 4.545 7.343 0 0z"/><linearGradient id="i" gradientUnits="userSpaceOnUse" x1="245.18" y1="474.957" x2="471.491" y2="474.957"><stop offset="0" style="stop-color:#b17c4d"/><stop offset=".096" style="stop-color:#b88355"/><stop offset=".331" style="stop-color:#c39062"/><stop offset=".539" style="stop-color:#c79467"/><stop offset=".717" style="stop-color:#c39062"/><stop offset=".924" style="stop-color:#b78354"/><stop offset="1" style="stop-color:#b17c4d"/></linearGradient><path fill="url(#i)" d="M452.659 532.188c-25.825-7.847-25.4-10.814-29.883-37.2-4.657-27.405-10.199-55.771-16.216-82.829-18.603 6.205-38.464 10.688-57.362 14.354-9.063 1.758-15.932 5.761-25.263 7.896-.391.754-3.519-.833-4.429-.345-24.015 12.851-49.28 23.111-74.325 33.751 1.39 3.31 2.778 6.62 4.156 9.934 6.544 15.737 12.913 31.549 19.555 47.246 67.697 1.215 135.164 6.821 202.601 12.761-6.284-1.899-12.601-3.674-18.834-5.568z"/><linearGradient id="j" gradientUnits="userSpaceOnUse" x1="206.333" y1="285.641" x2="376.87" y2="285.641"><stop offset="0" style="stop-color:#b17c4d"/><stop offset=".096" style="stop-color:#b88355"/><stop offset=".331" style="stop-color:#c39062"/><stop offset=".539" style="stop-color:#c79467"/><stop offset=".717" style="stop-color:#c39062"/><stop offset=".924" style="stop-color:#b78354"/><stop offset="1" style="stop-color:#b17c4d"/></linearGradient><path fill="url(#j)" d="M232.633 347.567c.442-.165.87-.251 1.283-.281a5.7 5.7 0 0 1 1.296-1.102c13.142-8.289 27.041-15.139 41.259-21.3 16.212-9.863 34.349-16.572 52.896-22.352 11.871-5.211 24.153-9.197 37.14-11.258a185.609 185.609 0 0 1 10.363-3.843c-.444-1.893-.891-3.783-1.333-5.677-4.826-20.71-7.994-45.407-13.729-68.75-11.462 7.33-24.602 12.1-45.966 17.901-65.442 17.772-92.188 54.196-106.894 118.206a91.87 91.87 0 0 1-2.615 9.165c8.447-4.215 17.483-7.414 26.3-10.709z"/><linearGradient id="k" gradientUnits="userSpaceOnUse" x1="266.619" y1="545.604" x2="266.765" y2="545.604"><stop offset="0" style="stop-color:#b17c4d"/><stop offset=".096" style="stop-color:#b88355"/><stop offset=".331" style="stop-color:#c39062"/><stop offset=".539" style="stop-color:#c79467"/><stop offset=".717" style="stop-color:#c39062"/><stop offset=".924" style="stop-color:#b78354"/><stop offset="1" style="stop-color:#b17c4d"/></linearGradient><path fill="url(#k)" d="M266.765 545.362c.008.211-.315.931-.023.07a1.9 1.9 0 0 1 .023-.07z"/><linearGradient id="l" gradientUnits="userSpaceOnUse" x1="266.787" y1="545.143" x2="266.921" y2="545.143"><stop offset="0" style="stop-color:#b17c4d"/><stop offset=".096" style="stop-color:#b88355"/><stop offset=".331" style="stop-color:#c39062"/><stop offset=".539" style="stop-color:#c79467"/><stop offset=".717" style="stop-color:#c39062"/><stop offset=".924" style="stop-color:#b78354"/><stop offset="1" style="stop-color:#b17c4d"/></linearGradient><path fill="url(#l)" d="M266.788 545.345c-.017-.115.308-.849 0 0z"/><linearGradient id="m" gradientUnits="userSpaceOnUse" x1="267.014" y1="547.255" x2="267.07" y2="547.255"><stop offset="0" style="stop-color:#b17c4d"/><stop offset=".096" style="stop-color:#b88355"/><stop offset=".331" style="stop-color:#c39062"/><stop offset=".539" style="stop-color:#c79467"/><stop offset=".717" style="stop-color:#c39062"/><stop offset=".924" style="stop-color:#b78354"/><stop offset="1" style="stop-color:#b17c4d"/></linearGradient><path fill="url(#m)" d="M267.014 547.122c.013.026.029.052.042.079.027.229.017.297-.042-.079z"/><linearGradient id="n" gradientUnits="userSpaceOnUse" x1="665.233" y1="37.026" x2="746.241" y2="37.026"><stop offset="0" style="stop-color:#b17c4d"/><stop offset=".096" style="stop-color:#b88355"/><stop offset=".331" style="stop-color:#c39062"/><stop offset=".539" style="stop-color:#c79467"/><stop offset=".717" style="stop-color:#c39062"/><stop offset=".924" style="stop-color:#b78354"/><stop offset="1" style="stop-color:#b17c4d"/></linearGradient><path fill="url(#n)" d="M746.241 40.934a46.11 46.11 0 0 1-3.303-1.152c-22.644-8.817-50.278-9.318-77.705-1.142 26.936-.708 54.109 3.757 81.008 2.294z"/><linearGradient id="o" gradientUnits="userSpaceOnUse" x1="575.512" y1="356.911" x2="798.572" y2="356.911"><stop offset="0" style="stop-color:#b17c4d"/><stop offset=".096" style="stop-color:#b88355"/><stop offset=".331" style="stop-color:#c39062"/><stop offset=".539" style="stop-color:#c79467"/><stop offset=".717" style="stop-color:#c39062"/><stop offset=".924" style="stop-color:#b78354"/><stop offset="1" style="stop-color:#b17c4d"/></linearGradient><path fill="url(#o)" d="M796.325 502.2c-2.442-42.906-2.885-85.905-4.075-128.857-2.067-74.587-8.838-148.837-14.021-223.233-21.532 1.468-43.225.742-64.867.222-1.281.151-2.562.292-3.845.414-10.52 3.076-21.579 1.442-32.592 1.601-24.32 3.841-48.516 8.677-73.18 8.938-9.296 2.607-18.651 4.927-28.234 5.529 5.456 13.291 10.564 26.756 14.189 41 10.445 41.049 19.021 82.524 30.726 123.258 20.989 73.047 35.487 147.355 52.636 221.267 22.137.822 44.255 1.606 66.32 3.993 19.528 2.112 39.28 4.952 59.112 7.381l.026-1.596c.336-19.999-1.06-39.965-2.195-59.917z"/><linearGradient id="p" gradientUnits="userSpaceOnUse" x1="266.741" y1="545.399" x2="266.765" y2="545.399"><stop offset="0" style="stop-color:#b17c4d"/><stop offset=".096" style="stop-color:#b88355"/><stop offset=".331" style="stop-color:#c39062"/><stop offset=".539" style="stop-color:#c79467"/><stop offset=".717" style="stop-color:#c39062"/><stop offset=".924" style="stop-color:#b78354"/><stop offset="1" style="stop-color:#b17c4d"/></linearGradient><path fill="url(#p)" d="M266.742 545.432a.297.297 0 0 0 .023-.07l-.023.07z"/><linearGradient id="q" gradientUnits="userSpaceOnUse" x1="1007.602" y1="446.438" x2="1189.779" y2="446.438"><stop offset="0" style="stop-color:#b17c4d"/><stop offset=".096" style="stop-color:#b88355"/><stop offset=".331" style="stop-color:#c39062"/><stop offset=".539" style="stop-color:#c79467"/><stop offset=".717" style="stop-color:#c39062"/><stop offset=".924" style="stop-color:#b78354"/><stop offset="1" style="stop-color:#b17c4d"/></linearGradient><path fill="url(#q)" d="M1116.229 329.427c-36.111-2.367-73.873-5.245-108.627 6.606 1.403 22.538 2.631 45.084 3.462 67.651 1.386 37.649 1.9 75.323 2.419 112.992.199 14.427.405 28.854.558 43.281a19.18 19.18 0 0 0-4.129.689c45.438.386 90.801 3.521 136.21 4.929 12.138-49.7 27.021-98.805 34.229-149.539 4.044-28.465 6.873-57.358 9.428-86.003-23.907.314-49.444.974-73.55-.606z"/><linearGradient id="r" gradientUnits="userSpaceOnUse" x1="994.01" y1="109.368" x2="1225.466" y2="109.368"><stop offset="0" style="stop-color:#b17c4d"/><stop offset=".096" style="stop-color:#b88355"/><stop offset=".331" style="stop-color:#c39062"/><stop offset=".539" style="stop-color:#c79467"/><stop offset=".717" style="stop-color:#c39062"/><stop offset=".924" style="stop-color:#b78354"/><stop offset="1" style="stop-color:#b17c4d"/></linearGradient><path fill="url(#r)" d="M1191.826 38.546c-47.736-25.47-105.86-37.684-159.521-27.798-12.927 2.381-25.463 3.806-37.821 4.59-.684 14.476-.445 29.037-.375 43.458.188 38.403 1.729 76.835 3.398 115.198a2569.23 2569.23 0 0 0 1.692 33.413c7.126 1.222 14.229 2.752 21.36 4.004 18.021-.318 36.178-1.805 54.117-1.125 4.096-.588 8.187-1.18 12.271-1.698 20.988-2.666 41.493-2.921 62.585-1.604 17.373 1.085 34.938 2.287 52.281.479.748-5.785 1.524-11.567 2.368-17.341 4.771-32.657 12.49-64.917 16.261-97.698 1.528-13.29 3.224-26.551 5.024-39.805-13.906 1.737-18.072-5.767-33.64-14.073z"/><linearGradient id="s" gradientUnits="userSpaceOnUse" x1="1796.371" y1="459.034" x2="1796.962" y2="459.034"><stop offset="0" style="stop-color:#b17c4d"/><stop offset=".096" style="stop-color:#b88355"/><stop offset=".331" style="stop-color:#c39062"/><stop offset=".539" style="stop-color:#c79467"/><stop offset=".717" style="stop-color:#c39062"/><stop offset=".924" style="stop-color:#b78354"/><stop offset="1" style="stop-color:#b17c4d"/></linearGradient><path fill="url(#s)" d="m1796.371 457.447.001.003.591 3.171-.592-3.174z"/><linearGradient id="t" gradientUnits="userSpaceOnUse" x1="1591.514" y1="432.25" x2="1797.598" y2="432.25"><stop offset="0" style="stop-color:#b17c4d"/><stop offset=".096" style="stop-color:#b88355"/><stop offset=".331" style="stop-color:#c39062"/><stop offset=".539" style="stop-color:#c79467"/><stop offset=".717" style="stop-color:#c39062"/><stop offset=".924" style="stop-color:#b78354"/><stop offset="1" style="stop-color:#b17c4d"/></linearGradient><path fill="url(#t)" d="M1796.372 457.45a625.518 625.518 0 0 1-.003-.013c-8.885-47.6-44.709-73.296-81.063-99.899-13.798-2.395-24.897-4.738-38.924-7.291-19.08 32.542-35.966 66.59-53.065 100.025a3107.012 3107.012 0 0 0-29.527 59.273 201.19 201.19 0 0 1-2.274 4.552c65.865 1.232 132.234-4.973 197.39-15.458 7.394-10.557 10.671-23.993 7.466-41.189z"/><linearGradient id="u" gradientUnits="userSpaceOnUse" x1="266.788" y1="545.317" x2="266.807" y2="545.317"><stop offset="0" style="stop-color:#b17c4d"/><stop offset=".096" style="stop-color:#b88355"/><stop offset=".331" style="stop-color:#c39062"/><stop offset=".539" style="stop-color:#c79467"/><stop offset=".717" style="stop-color:#c39062"/><stop offset=".924" style="stop-color:#b78354"/><stop offset="1" style="stop-color:#b17c4d"/></linearGradient><path fill="url(#u)" d="M266.788 545.345c.043-.119-.002-.01 0 0z"/><linearGradient id="v" gradientUnits="userSpaceOnUse" x1="798.695" y1="578.938" x2="803.381" y2="578.938"><stop offset="0" style="stop-color:#b17c4d"/><stop offset=".096" style="stop-color:#b88355"/><stop offset=".331" style="stop-color:#c39062"/><stop offset=".539" style="stop-color:#c79467"/><stop offset=".717" style="stop-color:#c39062"/><stop offset=".924" style="stop-color:#b78354"/><stop offset="1" style="stop-color:#b17c4d"/></linearGradient><path fill="url(#v)" d="M800.235 573.687c-.683 2.778-1.207 8.043-1.541 10.504l4.686-.028c-.477-5.182-.927-8.422-1.348-10.265l-1.797-.211z"/><linearGradient id="w" gradientUnits="userSpaceOnUse" x1="1279.428" y1="346.165" x2="1582.762" y2="346.165"><stop offset="0" style="stop-color:#b17c4d"/><stop offset=".096" style="stop-color:#b88355"/><stop offset=".331" style="stop-color:#c39062"/><stop offset=".539" style="stop-color:#c79467"/><stop offset=".717" style="stop-color:#c39062"/><stop offset=".924" style="stop-color:#b78354"/><stop offset="1" style="stop-color:#b17c4d"/></linearGradient><path fill="url(#w)" d="M1478.262 116.878c-25.815-5.988-52.067-.997-77.736 3.057-.395 2.007-.754 4.005-1.149 5.934-2.134 10.399-4.84 20.74-7.719 30.957-6.413 22.755-14.109 45.114-20.886 67.758-13.509 45.135-21.115 92.004-31.236 137.982-13.69 62.196-28.872 124.175-49.08 184.614-3.476 10.393-7.543 20.642-11.027 31.042 57.391-3.372 114.894-5.013 172.065-10.017 20.505-54.744 40.747-109.322 63.44-163.753 24.475-58.701 53.544-119.92 67.828-182.338-31.113-40.724-48.289-92.198-104.5-105.236z"/><path opacity=".3" fill="#B17C4D" d="M1334.934 313.939c-101.278 0-200.308 4.688-301.24 12.195-53.245 3.96-106.738 2.751-160.034 6.113-21.653 1.366-44.712 2.703-65.787 8.157-21.521 5.57-17.572 19.755 3.122 17.166 97.93-12.252 197.943-4.026 296.575-12.023 51.592-4.183 103.414-4.64 154.971-9.198 24.069-2.127 53.839-1.815 77.976-1.815 13.029 0 7.446-20.595-5.583-20.595z"/><path fill="#B17C4D" d="M616.346 356.748c.092-.029.086-.027 0 0z"/><path opacity=".3" fill="#B17C4D" d="m614.4 357.351 1.946-.604-1.948.604c-45.068 13.97-91.54 16.813-137.886 23.839-48.471 7.348-96.414 23.452-142.994 38.396-46.528 14.928-92.634 32.152-135.91 55-18.219 9.62-38.108 20-53.195 34.285-7.564 7.163-22.591 41.54 2.726 34.367 33.256-9.42 65.982-39.961 97.384-55.249 43.544-21.199 88.79-37.501 135-51.826 49.243-15.265 98.011-28.57 148.856-37.488 22.947-4.025 46.111-7.37 68.537-13.854 7.132-2.062 31.205-4.914 33.714-14.039 1.95-7.086-8.588-15.798-16.23-13.431zm-9.538 2.957c-.103.032-.098.03 0 0zm.227-.071-.024.007.024-.007zM1714.532 356.972c-3.601-3.131-6.646-6.639-9.32-10.407-23.648-4.231-48.574-6.19-67.954-10.016-17.928-3.538-35.901-6.742-54.02-9.146-1.425-.189-11.642-3.243-22.951-.073-.947 2.403-2.981 9.409-3.96 11.808.133.114-1.857 4.953-1.711 5.069 25.498 20.229 71.928 12.012 103.563 18.894 18.14 3.945 36.245 8.081 54.428 11.822 1.884.387 14.865 1.211 27.146.833-8.098-6.313-16.599-12.461-25.221-18.784zM1398.803 120.374c-.328-.604-.887-2.18-1.152-2.812-4.656-2.332-7.119-7.209-9.615-11.845-30.314 2.828-60.375 9.91-91.694 7.621-22.172-1.621-44.667-3.303-66.924-2.718-4.43.116-10.646 2.981-15.017 6.685-.62 4.566-.844 9.179-1.271 13.768 1.224.659 2.762 1.245 4.658 1.733 40.499 10.437 94.196 10.766 135.476 6.566 16.636-1.692 30.483-6.649 44.796-7.024.994-4.926 1.639-8.094 2.467-12.412.012-.068-1.7.499-1.724.438z"/><path fill="#B17C4D" d="m927.972 156.15 1.336-.161-1.336.161zM927.06 156.26l.714-.086-.714.086zM927.06 156.26l-1.566.189 1.566-.189z"/><path opacity=".3" fill="#B17C4D" d="M560.043 192.736c123.993-25.432 247.058-22.01 371.91-37.066l-2.58.312 2.59-.313c19.182-2.313 56.133-1.654 67.252-20.551.491-.834-.536-3.393-.148-4.182-.108-.265-1.914-.526-1.954-.823-.779-5.763-1.858-11.519-1.928-17.342-7.138-5.664-21.049-6-30.004-2.813-52.884 18.834-118.247 11.88-173.296 14.9-136.573 7.492-270.359 34.409-403.464 64.868-17.617 18.549-28.826 26.93-50.743 34.575 5.916 3.03 14.521 4.974 22.191 5.384 64.613 3.454 137.313-24.056 200.174-36.949z"/><path fill="#B17C4D" d="m925.494 156.449-.355.042.355-.042z"/><linearGradient id="x" gradientUnits="userSpaceOnUse" x1="704.76" y1="586.961" x2="704.76" y2="447.114"><stop offset="0" style="stop-color:#b17c4d"/><stop offset=".096" style="stop-color:#b88355"/><stop offset=".331" style="stop-color:#c39062"/><stop offset=".539" style="stop-color:#c79467"/><stop offset=".717" style="stop-color:#c39062"/><stop offset=".924" style="stop-color:#b78354"/><stop offset="1" style="stop-color:#b17c4d"/></linearGradient><path fill="url(#x)" d="M1013.989 447.114c-115.577 1.667-231.287 8.081-345.388 27.023-60.179 9.991-120.619 22.529-178.776 41.159-26.725 8.561-53.678 17.077-79.351 28.466-6.41 2.843-22.191 6.448-17.345 17.582 5.893 13.537 30.526 1.27 39.42-1.62 15.23-4.95 44.206 13.29 63.418 14.886 13.305 1.106 26.628 1.496 39.883 3.144 8.404 1.048 16.767 2.302 25.104 3.691 145.928 8.296 292.432.186 438.633 4.972 5.904.193 11.811.373 17.715.545-.809-46.622-2.815-93.222-3.313-139.848z"/><linearGradient id="y" gradientUnits="userSpaceOnUse" x1="1376.678" y1="587.913" x2="1376.678" y2="446.815"><stop offset="0" style="stop-color:#b17c4d"/><stop offset=".096" style="stop-color:#b88355"/><stop offset=".331" style="stop-color:#c39062"/><stop offset=".539" style="stop-color:#c79467"/><stop offset=".717" style="stop-color:#c39062"/><stop offset=".924" style="stop-color:#b78354"/><stop offset="1" style="stop-color:#b17c4d"/></linearGradient><path fill="url(#y)" d="M1598.343 474.034c-37.579-5.729-75.339-10.25-113.183-13.815-103.817-9.781-208.23-12.683-312.554-13.404-.836 5.843-2.236 11.607-3.739 17.006-2.53 9.087-5.693 17.948-8.963 26.774-4.975 32.477-10.778 64.835-17.127 97.075 26.798-.698 53.576-2.081 80.312-4.451 79.843-7.078 160.196-7.455 239.842-15.096 26.832-2.573 53.53-6.241 80.194-10.179 9.987-1.921 19.945-4 29.855-6.294 6.026-1.396 10.938-2.845 15.077-3.904a258.34 258.34 0 0 1 2.643-7.697c-3.334 1.382-7.859-1.706-6.843-5.972 2.91-12.215 7.779-23.658 14.04-34.364 3.242-5.544 6.177-11.124 9.146-16.822 1.082-2.077 2.75-5.22 3.533-7.433.109-.309-2.945-.267 0 0-5.462-.48-7.668-.728-12.233-1.424z"/><linearGradient id="z" gradientUnits="userSpaceOnUse" x1="1305.141" y1="123.804" x2="1305.141" y2="43.817"><stop offset="0" style="stop-color:#b17c4d"/><stop offset=".096" style="stop-color:#b88355"/><stop offset=".331" style="stop-color:#c39062"/><stop offset=".539" style="stop-color:#c79467"/><stop offset=".717" style="stop-color:#c39062"/><stop offset=".924" style="stop-color:#b78354"/><stop offset="1" style="stop-color:#b17c4d"/></linearGradient><path fill="url(#z)" d="M1351.219 69.098c-23.158-14.542-51.735-26.979-79.651-25.09-13.36.904-26.928 3.929-39.848 7.308a51.212 51.212 0 0 1-5.51 1.144c-.052.435-.104.868-.157 1.291-1.703 13.632-4.872 27.026-8.497 40.263a493.654 493.654 0 0 1-2.336 8.22c-.609 7.199-1.229 14.397-2.005 21.571 38.01-.438 76.021-.919 114.032-1.591 23.513-.415 46.693-1.939 69.819-5.646-9.03-20.317-27.461-35.924-45.847-47.47z"/><linearGradient id="A" gradientUnits="userSpaceOnUse" x1="680.408" y1="210.869" x2="680.408" y2="38.055"><stop offset="0" style="stop-color:#b17c4d"/><stop offset=".096" style="stop-color:#b88355"/><stop offset=".331" style="stop-color:#c39062"/><stop offset=".539" style="stop-color:#c79467"/><stop offset=".717" style="stop-color:#c39062"/><stop offset=".924" style="stop-color:#b78354"/><stop offset="1" style="stop-color:#b17c4d"/></linearGradient><path fill="url(#A)" d="M993.768 67.909c-.053-9.618-.125-17.875-.424-28.328-3.178.5-4.803.739-7.992 1.188-69.61 9.802-139.193 4.313-209.053 1.573a776.234 776.234 0 0 1-12.424-.6c-9.798 2.177-14.609 1.715-21.604-1.008-.296-.115-.597-.223-.895-.335-16.85-.996-33.721-1.762-50.515-.918-6.919.348-13.805-.328-20.736-1.426a146.87 146.87 0 0 0-11.058 3.294c-42.089 14.357-74.347 44.404-114.735 60.713-50.169 20.218-108.504 35.978-146.408 77.634-13.154 14.456-22.387 24.01-32.251 31.173 52.917-7.905 104.632-22.563 156.897-33.826 68.008-14.655 136.472-19.088 205.797-22.405 90.571-4.333 176.719-14.979 266.775-22.114-.499-21.99-1.257-43.097-1.374-64.615z"/><linearGradient id="B" gradientUnits="userSpaceOnUse" x1="373.702" y1="530.514" x2="373.702" y2="229.874"><stop offset="0" style="stop-color:#b17c4d"/><stop offset=".096" style="stop-color:#b88355"/><stop offset=".331" style="stop-color:#c39062"/><stop offset=".539" style="stop-color:#c79467"/><stop offset=".717" style="stop-color:#c39062"/><stop offset=".924" style="stop-color:#b78354"/><stop offset="1" style="stop-color:#b17c4d"/></linearGradient><path fill="url(#B)" d="M627.768 355.481c-.461-2.984-1.809-5.41-2.209-8.759-5.36-16.696-8.408-34.151-12.845-51.09-5.634-21.508-11.093-43.541-13.962-65.759-25.488 4.15-50.782 9.445-75.802 16.296-57.698 15.799-116.448 29.834-173.582 47.452-28.774 8.873-56.099 21.287-83.244 34.193-10.671 5.073-37.553 21.132-59.002 29.022-10.11 32.526-35.688 50.26-59.755 75.055-12.342 12.716-27.718 29.833-30.487 48.225-1.376 9.14 11.054 52.11 19.411 28.741 5.812 8.268 12.607 15.434 20.154 21.656 1.534-.249 3.073-.528 4.621-.854 15.745-3.323 49.363-14.26 44.008-36.335 23.259-15.84 48.364-27.555 74.301-38.298 60.063-24.877 124.411-42.155 187.344-58.139 53.889-13.687 108.708-23.062 163.913-30.07-1.004-3.953-2.328-7.86-2.864-11.336z"/><linearGradient id="C" gradientUnits="userSpaceOnUse" x1="1078.86" y1="351.238" x2="1078.86" y2="202.963"><stop offset="0" style="stop-color:#b17c4d"/><stop offset=".096" style="stop-color:#b88355"/><stop offset=".331" style="stop-color:#c39062"/><stop offset=".539" style="stop-color:#c79467"/><stop offset=".717" style="stop-color:#c39062"/><stop offset=".924" style="stop-color:#b78354"/><stop offset="1" style="stop-color:#b17c4d"/></linearGradient><path fill="url(#C)" d="M1318.036 203.677c-131.239 1.368-262.981-3.035-394.037 5-47.514 2.913-95.53 3.998-143.535 5.783-.014 4.17-.069 8.337-.215 12.497 1.066 2.508 1.78 5.213 2.289 7.819 2.057 10.538 2.275 21.412 2.004 32.113a480.194 480.194 0 0 1-.333 9.246c.958 5.917 1.85 11.846 2.619 17.796 1.761 13.629 3.06 27.376 3.076 41.132 1.002 5.363 2.181 10.698 3.597 15.997.016.061.024.119.039.179 19.868-1.508 39.72-2.959 59.526-4.431 137.335-10.205 274.976-16.504 412.686-18.149 27.371-.327 54.731-.576 82.078-.562.614-3.257 1.308-6.46 1.966-9.55a379.018 379.018 0 0 1 2.061-9.046c-.157-.946-.051-1.976.431-3.032.239-.525.465-1.055.694-1.583 2.938-11.688 3.764-24.051 7.453-35.517 3.179-14.999 5.109-29.854 11.5-43.834 1.443-7.805 3.366-14.971 5.537-22.571-20.943.213-38.513.495-59.436.713z"/><linearGradient id="D" gradientUnits="userSpaceOnUse" x1="1629.766" y1="357.539" x2="1629.766" y2="222.114"><stop offset="0" style="stop-color:#b17c4d"/><stop offset=".096" style="stop-color:#b88355"/><stop offset=".331" style="stop-color:#c39062"/><stop offset=".539" style="stop-color:#c79467"/><stop offset=".717" style="stop-color:#c39062"/><stop offset=".924" style="stop-color:#b78354"/><stop offset="1" style="stop-color:#b17c4d"/></linearGradient><path fill="url(#D)" d="M1665.442 272.217c-19.675-21.767-59.675-22.433-78.08-44.302-.898-1.067-3.739-4.703-4.6-5.801-.938 1.365-.545 2.352-1.172 4.981-3.098 5.42-3.436 8.904-6.323 14.439-1 1.917-1.53 3.268-2.916 5.333-6.255 16.044-7.729 26.709-13.25 42.958l-3 7.489-11.874 38.081a1301.078 1301.078 0 0 1 42.436 4.266c27.17 3.158 54.305 6.621 81.502 9.545 12.559 1.351 31.19 5.756 47.141 8.332-23.998-21.962-26.696-59.689-49.864-85.321z"/><linearGradient id="E" gradientUnits="userSpaceOnUse" x1="174.06" y1="487.729" x2="174.06" y2="486.665"><stop offset="0" style="stop-color:#b17c4d"/><stop offset=".096" style="stop-color:#b88355"/><stop offset=".331" style="stop-color:#c39062"/><stop offset=".539" style="stop-color:#c79467"/><stop offset=".717" style="stop-color:#c39062"/><stop offset=".924" style="stop-color:#b78354"/><stop offset="1" style="stop-color:#b17c4d"/></linearGradient><path fill="url(#E)" d="M174.757 486.665c-.956.773-2.592 1.948 0 0z"/><path fill="#B17C4D" d="m425.826 358.465.638 5.835a86822.303 86822.303 0 0 1-.638-5.835zM378.825 204.195a40.7 40.7 0 0 0-2.015-3.063c-.725.75-1.508 1.46-2.333 2.129a40.77 40.77 0 0 1-1.21 1.315c1.852-.142 3.705-.27 5.558-.381z"/><path opacity=".3" fill="#B17C4D" d="M389.532 229.296c-4.973.197-9.515.557-14.223.578-3.701.017-5.528.153-9.755.108 2.505 17.343 6.261 33.684 7.052 37.865 1.223 6.464 1.939 12.435 3.091 17.925 5.133-1.467 10.275-2.576 15.319-4.366 1.781-.498 3.12-.927 4.945-1.38 1.767-.438 2.725-.756 4.264-1.117 1.575-.545 3.081-.864 4.672-1.35a804.603 804.603 0 0 0-3.545-9.901c-2.276-6.242-6.373-22.471-11.82-38.362zM442.678 489.659c-4.471-23.438-7.406-45.39-10.116-69.083-6.737 1.649-11.196 3.87-18.003 5.209-2.48.615-2.843.2-5.375.625 10.633 59.478 25.225 139.866 47.25 143.875 30.945 5.63-11.53-68.958-13.756-80.626zM264.133 514.626l-.002-.005c-.003-.007.448.09.446.083-3.685-10.121-8.018-20.17-12.499-30.335-7.19 3.538-11.206 4.915-19.779 10.226 3.182 14.691 8.811 54.267 26.663 57.506 26.181 4.752 8.317-28.839 5.171-37.475z"/><path fill="#B17C4D" d="M263.707 513.455c-.097-.267-.186-.508-.262-.72.084.234.173.477.262.72zM263.213 512.1l-.287-.789.287.789zM579.454 170.3c1.158 2.24 2.516 4.35 3.916 6.437.484-.078.967-.158 1.451-.237a2493.99 2493.99 0 0 1-3.343-15.685c-2.716 2.802-4.002 5.658-2.024 9.485z"/><path opacity=".3" fill="#B17C4D" d="m586.941 186.229-2.365.386a4.894 4.894 0 0 1-1.813.991c-6.732 1.929-13.643 3.012-20.579 3.13-.139.034-.279.063-.417.097 12.91 56.223 26.499 111.957 37.386 168.819.564 2.948 1.305 8.208 1.875 11.167l24.63-3.364c1.47-.77 3.777-1.085 4.973-.638-14.628-57.895-30.951-122.687-43.69-180.588zM658.752 480.067c-.332-1.388-.664-2.776-.994-4.165a412.583 412.583 0 0 0-.029-.12c-8.515-35.815-17.573-71.818-26.688-107.91-.305.308-.465 3.307-.731 3.724-1.32 2.068-2.972 3.669-5 4.75-2.807 1.636-6.508 2.641-9.5 3.847-3.074 1.106-6.323 1.405-9.813 2.59-.868.295-1.611.099-2.37.125 6.596 33.848 13.652 67.77 21.83 101.661 10.855-2.667 22.167-2.937 33.295-4.502zM781.208 374.578c.928 28.359 2.998 57.163 4.503 85.901 10.048-1.615 20.146-2.724 30.338-2.833-1.923-32.971-3.184-65.923-5.136-98.861h-8.48c-6.449 0-6.449-10 0-10h7.862c-1.061-16.552-2.327-33.101-3.99-49.648-4.442-44.181-7.981-88.801-14.652-132.803-9.546.021-19.182.797-28.451 2.728a314.72 314.72 0 0 1 1.653 12.914c6.73 63.937 14.249 128.317 16.353 192.602zM997.934 149.534c-6.719-45.697 4.887-88.817 3.183-133.752-3.933 1.002-11.144-2.615-17.047-3.911-.019.143-.03 2.256-.047 2.397-3.44 28.555-9.212 56.505-9.329 85.409-.049 12.165.147 22.392.584 34.536 4.114-1.92 16.737-1.651 21.406-1.804 3.664-.12.875 2.322.375 5.125.003 2.005-4.13 5.469-6.5 6.375-.475.182-1.772 1.207-2.25 1.375-4.392 1.748-8.105 3.598-12.355 5.595.856 18.575 2.003 37.14 2.977 55.721 7.704-.126 15.82 1.133 23.127 1.265 1.457-.044 2.916-.073 4.377-.081 1.125-.006 2.039.289 2.769.764-1.598-19.758-8.401-39.495-11.27-59.014zM1014.377 547.844c.438-10.852-.77-21.735-.912-32.585-.15-11.383.061-22.635.802-33.994-.381-18.721-.511-37.529-.538-56.39a1447.538 1447.538 0 0 0-1.675-15.534c-2.202-19.604-2.078-40.14-3.638-59.863-.565-.005-2.316.003-3.023 0-6-.023-11.25-.005-18.178.007-2.29-.02-4.582.002-6.875.037.009 35.094.386 70.175 1.186 105.318.552 24.197 1.059 48.395 1.405 72.596.3 20.926-6.931 59.752 3.675 78.323 8.098 14.18 28.182 7.254 29.156-7.886.439-6.843.685-13.706.801-20.581-5.486-5.682-2.385-24.482-2.186-29.448zM1198.81 340.438c-7.688.597-9.854.105-9.983.17-14.726 135.844-17.226 105.831-23.578 134.951-1.964 9-3.43 5.857-5.973 19.112-2.117 11.035-10.346 65.05-13.189 75.917-1.784 6.816.952-20.062-1.39-13.413-.973 2.765-1.977 5.52-2.915 8.297-.173.512-.348 1.025-.519 1.54.587 1.244.562 2.756-.512 4.297-2.545 3.656-6.524 3.879-8.694 1.788-.199.604-.383 1.214-.584 1.818-3.29 9.909-21.467 66.466 13.084 47.583 31.138-17.018 39.282-106.903 44.956-138.131 8.395-46.206 16.213-98.029 22.515-144.594-7.3.215-9.781.324-13.218.665z"/><path fill="#B17C4D" d="M1208.18 233.532c-1.052.285-2.1.58-3.143.887.135.4.226.827.261 1.283.933-.116 1.866-.239 2.801-.374.025-.599.048-1.198.081-1.796z"/><path opacity=".3" fill="#B17C4D" d="M1220.153 132.11a16.009 16.009 0 0 0-3.39.496c-6.243 1.641-8.89-8.004-2.658-9.643 4.232-1.113 8.235-.958 12.126-.171.068-.001.133-.009.203-.008 3.916.04 7.819.293 11.719.603 1.495-23.764.487-47.608 2.801-71.181.008-.081.027-.228.051-.404-2.252 1.144-4.705 1.163-6.912.372-4.641.932-9.528.981-14.455.213-6.629 21.609-6.226 49.028-9.179 67.178a8908.748 8908.748 0 0 0-14.109 89.669c.239-.109.488-.206.756-.272l4-1c1.912-.479 4.105.29 5.348 1.795 1.878.147 3.759.24 5.64.271 5.515-1.506 11.192-2.502 16.914-3.149 2.809-22.624 5.437-45.256 7.781-67.865-5.267-2.007-10.441-4.288-15.683-6.41a5.552 5.552 0 0 1-.953-.494z"/><path fill="#B17C4D" d="M1199.807 312.009c-.401.168-.801.342-1.201.515l3.217.271c-.239-.064-.479-.125-.718-.189a4.584 4.584 0 0 1-1.298-.597z"/><path opacity=".3" fill="#B17C4D" d="M1317.661 451.098c5.007.378 9.986.952 14.952 1.618 8.42-35.955 15.114-72.313 22.213-108.54 9.214-47.027 5.705-89.761 20.859-135.225 17-51 15.812-51.792 21.966-74.729.03-.605.378-1.27.408-1.875-4.656.694-4.625-.252-9.375.875-.121.04-3.57.486-3.691.526-7.824 26.476-20.334 52.397-26.597 78.384-11.271 46.771-23.347 93.39-33.888 140.329-7.36 32.777-14.285 65.708-22.822 98.211 5.617-.337 11.291.072 15.975.426z"/><path fill="#B17C4D" d="m1390.649 109.327-.017.128.017-.128z"/><path opacity=".3" fill="#B17C4D" d="M1490.457 463.398c4.57.357 6.513.727 11.03 1.536 2.156.319 4.309.664 6.458 1.028 4.369-10.977 8.904-21.909 13.554-32.836 27.576-64.819 47.803-133.1 72.622-198.741-5.286-4.25-8.186-7.434-11.358-10.91-2.717 3.136-4.067 8.469-5.327 11.476-13.849 33.049-18.719 62.404-32 95.333-18.379 45.568-37.667 87-55.334 133.833 3.648.31-3.284-1.121.355-.719zM1650.521 362.417c-.702.076-.148-.691 0 0-14.831 29.36-16.21 44.927-30.557 73.654-11.942 23.914-27.714 45.55-39.9 69.3-3.251 6.334-18.373 66.828 8.105 43.184 11.614-10.373 3.485-38.064 11.099-51.937 13.103-23.873 30.195-49.809 40.333-75.167 9.584-23.969 17.202-32.838 28.334-56.167-7.281-1.644-12.667-3.386-17.414-2.867z"/><linearGradient id="F" gradientUnits="userSpaceOnUse" x1="961.432" y1="593.123" x2="941.112" y2="11.23"><stop offset="0" style="stop-color:#8f6333"/><stop offset=".385" style="stop-color:#9f6f3f;stop-opacity:.5742"/><stop offset=".903" style="stop-color:#b17c4d;stop-opacity:0"/></linearGradient><path opacity=".25" fill="url(#F)" d="M1796.37 457.442c-9.119-48.871-44.384-73.004-81.838-100.471-25.047-21.785-23.907-61.351-49.09-85.707-22.875-22.125-58.881-20.089-78.393-43.723-33.937-41.441-50.047-97.04-108.787-110.664-26.445-6.134-53.35-.746-79.615 3.352-8.359-22.095-27.88-38.867-47.344-51.09-23.158-14.542-51.735-26.979-79.651-25.09-13.36.904-26.928 3.929-39.848 7.308-19.319 5.052-22.27-3.363-39.979-12.812-47.736-25.47-105.86-37.684-159.521-27.798-50.939 9.384-95.807 3.955-147.655 2.721-45.53-1.083-79.555 18.11-119.636 27.218-10.125 2.301-14.967 1.862-22.075-.906-24.158-9.407-53.997-9.348-83.204.615-42.089 14.357-74.347 44.404-114.735 60.713-50.169 20.218-108.504 35.978-146.408 77.634-29.983 32.951-39.591 40.442-82.749 52.163-65.442 17.772-92.188 54.196-106.894 118.206-8.487 36.945-35.895 55.364-61.582 81.827-12.342 12.716-27.718 29.833-30.487 48.225-1.376 9.14 11.054 52.11 19.411 28.741 36.208 51.513 110.487 60.448 168.233 62.681 76.99 2.976 153.506 2.8 230.485 8.26 154.502 10.959 309.71 1.547 464.579 6.618 74.508 2.44 149.168 3.393 223.503-3.197 79.843-7.078 160.196-7.456 239.842-15.096 71.783-6.885 142.61-21.6 214.391-28.362 45.485-4.286 131.568-14.242 119.047-81.366-1.217-6.521 3.506 18.799 0 0z"/><linearGradient id="G" gradientUnits="userSpaceOnUse" x1="972.103" y1="706.679" x2="962.946" y2="444.453"><stop offset="0" style="stop-color:#c79467"/><stop offset=".342" style="stop-color:#be8b5d"/><stop offset=".697" style="stop-color:#b17c4d"/></linearGradient><path fill="url(#G)" d="M1900.199 516.779c-13.881-36.181-56.558-61.207-87.901-64.792-57.989-6.632-109.611 9.62-163.543 28.984-65.246 23.426-132.916 33.546-201.286 43.634-154.402 22.782-306.369 28.688-462.229 26.07-150.104-2.522-300.293.413-449.945-14.024-70.589-6.81-140.418-14.5-211.237-18.794-52.21-3.166-131.991-7.252-168.681-33.378C79.14 430.192-49.08 600.059 88.829 630.463c41.576 9.166 77.208-17.61 117.217-21.744 51.142-5.512 94.732 28.437 143.385 38.44 28.088 5.775 57.062 5.816 84.853-1.57 22.975-6.106 41.728-27.553 62.739-13.177 46.6 31.862 81.754 58.07 141.879 48.818 52.02-8.004 97.876-36.306 149.396-45.569 36.127-6.469 80.587 2.111 115.334 12.713 45.4 13.848 68.289 54.175 120.309 56.064 61.561 2.237 122.317-30.08 180.534-46.404 28.799-8.076 58.699-15.152 88.821-15.207 23.554-.042 31.239 8.876 51.733 18.948 26.53 13.039 57.994 16.519 87.192 14.899 58.481-3.243 101.257-34.708 149.718-63.479 22.464-13.34 48.011-24.541 74.742-21.689 62.904 10.271 161.688 62.057 222.258 18.245 28.133-20.351 33.047-62.252 21.26-92.972-7.662-19.971 6.576 17.139 0 0zM59.748 561.963c-.258 2.241-.163 1.123 0 0z"/><linearGradient id="H" gradientUnits="userSpaceOnUse" x1="158.639" y1="487.169" x2="158.604" y2="486.152"><stop offset="0" style="stop-color:#c79467"/><stop offset=".342" style="stop-color:#be8b5d"/><stop offset=".697" style="stop-color:#b17c4d"/></linearGradient><path fill="url(#H)" d="M157.877 486.178c.41.248.795.525 1.169.816.499.274.612.261-1.169-.816z"/><path fill="#FFF" d="M891.532 97.411c.015-.384.113-.988.553-1.108.573-.157 1.262-.083 1.85-.083.416 0 .996-.168 1.288-.481.313-.335-.271-.392-.476-.392-1.873.001-5.051.082-5.146 2.582-.016.383 1.907.107 1.931-.518zM1014.733 102.047h1.887c.449 0 1.019-.132 1.27-.551.233-.389-.196-.656-.547-.656h-1.887c-.449 0-1.019.132-1.27.551-.233.389.196.656.547.656zM1066.433 170.782c-1.514-.058-1.315-2.567-1.316-3.56 0-.47-1.932-.144-1.932.518 0 .94-.036 1.935.323 2.821.366.902 1.247 1.133 2.134 1.167.414.016 1.009-.169 1.283-.497.299-.356-.257-.44-.492-.449zM1184.51 94.37c.625 0 2.089-.947.791-.947-.625 0-2.089.947-.791.947zM1376.976 243.475c.689 0 2.069-1.045.766-1.045-.69 0-2.07 1.045-.766 1.045zM1462.349 198.847c-1.909.001-4.742.164-4.837 2.669-.039 1.014 1.924.73 1.957-.146.021-.526.101-.841.623-.984.658-.18 1.412-.12 2.087-.121 1.106.001 1.481-1.418.17-1.418zM1482.67 256.808c.853 0 2.004-1.295.697-1.295-.852 0-2.003 1.295-.697 1.295zM1469.034 303.161c-.567.568-1.477 1.268-1.603 2.121-.128.865.964 1.685 1.484 2.205.491.492 2.321-.234 1.791-.765-.448-.449-1.143-.969-1.327-1.606-.154-.534.909-1.316 1.209-1.616.285-.285.229-.614-.188-.705-.437-.095-1.044.043-1.366.366zM1255.344 87.844h-1.887c-.464 0-.97.118-1.366.366-.302.189-.265.418.112.418h1.887c.464 0 .97-.118 1.366-.366.302-.189.265-.418-.112-.418zM1168.845 144.959c0 .582-.139 1.467.323 1.928.507.507 1.51.392 2.155.392.437 0 1.012-.143 1.274-.529.256-.378-.216-.576-.526-.576-.329 0-.66.002-.989-.02.156.011-.109-.023-.143-.031.089.021-.014-.03-.014-.029-.044-.044-.102-.27-.122-.441-.036-.308-.026-.623-.027-.932.001-.816-1.932-.401-1.931.238zM1186.881 255.464h-1.887c-.418 0-1.009.317-1.066.773-.064.504.52.62.889.62h1.887c.418 0 1.009-.317 1.066-.773.064-.504-.52-.62-.889-.62zM1123.563 37.551c-.122 2.233-2.221 3.986-3.688 5.455-.318.319.276.379.47.367.429-.026.976-.16 1.29-.475 1.598-1.599 3.729-3.444 3.86-5.865.018-.344-1.899-.091-1.932.518zM782.669 70.013c.849 0 2.006-1.289.699-1.289-.848 0-2.005 1.289-.699 1.289zM745.208 121.06h2.123c1.133 0 1.457-1.496.149-1.496h-2.123c-1.132-.001-1.456 1.496-.149 1.496h2.123c1.133 0 1.457-1.496.149-1.496h-2.123c-1.132-.001-1.456 1.496-.149 1.496zM696.58 257.416c-1.46-.055-1.267-2.217-1.267-3.237 0-.927-1.946-.568-1.945.19.001 1.92.057 4.217 2.506 4.311.451.017 1.027-.138 1.266-.563.225-.404-.193-.687-.56-.701zM744.935 300.207c.855 0 2.003-1.3.696-1.3-.855 0-2.003 1.3-.696 1.3zM785.809 263.352c-.425-.425-1.019-.876-1.311-1.412-.03-.055-.02-.167-.04-.076a1.397 1.397 0 0 1-.817.445c.096-.012.09-.012-.019 0 .295-.022.593-.014.889-.014.421 0 1.001-.16 1.283-.497.294-.352-.251-.451-.492-.451-.793 0-2.333-.093-2.749.777-.113.236.093.479.225.653.355.468.812.872 1.226 1.286.418.419 2.227-.289 1.805-.711zM872.617 271.366v1.887c0 .855 1.937.458 1.937-.223v-1.887c-.001-.855-1.937-.457-1.937.223zM1015.479 244.324c-1.816.001-5.027.059-5.121 2.533-.028.749 1.903.333 1.926-.262.02-.498.133-1.022.58-1.144.579-.158 1.253-.096 1.846-.096.43 0 1.008-.15 1.279-.514.273-.366-.232-.517-.51-.517zM1004.691 210.984c0 .301.001.602-.014.903a3.718 3.718 0 0 1-.033.316 1.82 1.82 0 0 1-.028.128c-.042.176.057-.088-.021.052.039-.069.084-.108.243-.181.162-.053.188-.064.078-.036.149-.028.165-.033.048-.017-.279.033-.466.02-.826.02-.446 0-1.018.134-1.27.547-.238.387.199.642.543.642.942 0 1.972.049 2.743-.585.576-.474.477-1.341.477-2.002-.001-.875-1.94-.488-1.94.213zM1004.695 290.381v3.774c0 .41 1.932.102 1.932-.518v-3.774c-.001-.409-1.932-.101-1.932.518zM651.857 73.235c0 .789.193 3.008-.808 3.046-.395.015-1.005.285-1.079.727-.079.479.543.552.868.54 1.029-.039 1.976-.473 2.513-1.373.535-.897.452-2.128.453-3.127 0-.932-1.947-.578-1.947.187zM601.812 138.04h.39c.439 0 1.009-.335 1.057-.81.051-.514-.502-.685-.907-.685h-2.667c-.439 0-1.009.335-1.057.81-.051.514.502.685.907.685h.391c.439 0 1.009-.335 1.056-.81.051-.514-.501-.685-.907-.685h-.39c-.439 0-1.009.335-1.057.81-.051.514.502.685.907.685h2.667c.439 0 1.009-.335 1.057-.81.051-.514-.502-.685-.907-.685h-.391c-.439 0-1.009.335-1.056.81-.051.514.502.685.907.685zM464.771 157.628h-1.887c-.47 0-.969.098-1.366.366-.292.197-.265.472.126.472h1.887c.47 0 .969-.098 1.366-.366.292-.197.265-.472-.126-.472zM538.114 110.337h-4.83c-.435 0-1.01.146-1.276.524-.263.374.221.556.521.556h1.056c.435 0 1.011-.146 1.276-.524.262-.374-.221-.556-.521-.556h-1.057c-.435 0-1.01.146-1.276.524-.263.374.221.556.521.556h4.83c.435 0 1.011-.146 1.276-.524.262-.374-.221-.556-.52-.556zM836.77 75.287c-.011.28-.139 1.066-.452 1.136-.56.124-1.162.092-1.731.092-.466 0-.97.112-1.366.366-.299.191-.265.434.116.434 1.864-.001 5.268-.004 5.364-2.545.012-.307-1.909-.058-1.931.517zM876.393 24.344c0 1.738.018 3.87 2.239 3.954.468.018.979-.089 1.366-.366.294-.21.256-.499-.138-.513-1.718-.065-1.535-2.371-1.536-3.593 0-.418-1.932-.107-1.931.518zM936.77 73.4v1.887c0 .312 1.932.035 1.932-.518v-1.887c0-.311-1.932-.034-1.932.518zM968.328 146.28h-3.773c-.417 0-.998.166-1.287.485-.308.34.267.407.48.407h3.773c.417 0 .998-.166 1.287-.485.308-.339-.266-.407-.48-.407zM960.786 170.83h-1.887c-.413 0-.994.171-1.288.477-.317.33.276.374.472.374h1.887c.413 0 .994-.171 1.288-.477.317-.33-.277-.374-.472-.374zM1253.208 168.826h-1.887c-.435 0-1.011.145-1.275.525-.262.375.22.56.521.56h1.887c.435 0 1.011-.145 1.275-.525.262-.376-.22-.56-.521-.56zM1306.954 142.688c-.588.294-1.174.592-1.779.85-.116.05-.234.094-.354.138.17-.063-.238.041.033-.008.165-.03.253.086.15-.012-.197-.187-.199-.623-.223-.871-.063-.655-.042-1.321-.042-1.978 0-.563-1.932-.208-1.932.518 0 .817-.334 2.968.778 3.303 1.491.448 3.293-.78 4.555-1.411.264-.132.585-.538.179-.718-.435-.194-.971-.008-1.365.189zM1324.613 181.863h-1.887c-.424 0-1.009.323-1.063.785-.06.507.514.64.896.64h1.887c.424 0 1.009-.323 1.063-.785.059-.507-.514-.64-.896-.64zM1469.446 162.407c.773 0 2.038-1.173.73-1.173-.773 0-2.038 1.173-.73 1.173zM1436.77 141.325v5.661c0 .318 1.932.039 1.932-.518v-5.661c0-.318-1.932-.038-1.932.518zM1392.815 331.032h-1.614c-.448 0-1.019.133-1.27.549-.235.388.197.651.546.651h3.5c.448 0 1.019-.133 1.27-.549.235-.388-.197-.651-.545-.651h-3.501c-.448 0-1.019.133-1.27.549-.235.388.197.651.546.651h1.613c.448 0 1.019-.133 1.27-.549.235-.388-.197-.651-.545-.651zM1569.716 292.683c1.079 0 1.503-1.348.189-1.348-1.078 0-1.502 1.348-.189 1.348zM1348.091 265.853c.061 1.617 1.827 2.187 1.887 3.774.022.603 1.959.219 1.932-.518-.061-1.617-1.827-2.187-1.887-3.774-.023-.603-1.959-.218-1.932.518zM325.445 284.566v1.887c0 .887 1.94.506 1.94-.208v-1.887c0-.887-1.94-.505-1.94.208zM326.026 347.224c.656 0 2.08-.995.778-.995-.656 0-2.079.995-.778.995zM408.624 338.886c-1.387 1.311-2.951 1.46-4.767 1.462-1.112.001-1.476 1.437-.166 1.436 2.56-.002 4.652-.513 6.554-2.312.34-.322.136-.811-.255-.952-.496-.179-1.005.024-1.366.366zM441.887 242.414H440c-.434 0-1.01.146-1.276.523-.263.374.221.554.52.554h1.887c.434 0 1.01-.146 1.276-.523.263-.374-.221-.554-.52-.554zM507.893 306.444h-3.501c-.463 0-1.025.122-1.263.574-.209.398.18.746.571.746h1.614c.463 0 1.025-.122 1.263-.574.209-.398-.18-.746-.571-.746h-1.614c-.463 0-1.025.122-1.263.574-.209.398.18.746.571.746h3.501c.463 0 1.025-.122 1.263-.574.209-.398-.179-.746-.571-.746zM541.886 204.674h-3.773c-.435 0-1.011.145-1.275.525-.261.375.219.561.521.561h3.773c.435 0 1.011-.145 1.275-.525.262-.376-.219-.561-.521-.561zM464.547 200.972h-2.415c-.421 0-1.001.16-1.283.496-.296.351.252.448.491.448h.528c.421 0 1.001-.16 1.284-.496.295-.351-.253-.448-.492-.448h-.528c-.421 0-1.001.16-1.283.496-.296.351.252.448.491.448h2.415c.421 0 1.001-.16 1.284-.496.295-.352-.253-.448-.492-.448zM568.994 272.824l-1.887 1.887c-.337.337-.128.847.269 1.002.496.193 1.011-.012 1.366-.366l1.887-1.887c.337-.337.128-.847-.269-1.002-.495-.193-1.011.011-1.366.366zM669.441 190.69c.483.02-.234.822-.368.995-.571.734-1.271 1.379-1.927 2.036-.287.287-.225.623.192.716.439.099 1.042-.042 1.366-.366.936-.936 2.084-1.908 2.693-3.105.5-.984-.333-1.377-1.215-1.412-.435-.018-1.021.15-1.273.536-.255.39.215.588.532.6zM555.066 195.134h-2.831c-.855 0-2.003 1.299-.697 1.299h2.83c.856 0 2.004-1.299.698-1.299h-2.831c-.855 0-2.003 1.299-.697 1.299h2.83c.856 0 2.004-1.299.698-1.299zM572.333 167.115c-1.475.021-3.446.217-4.496 1.403-1.106 1.249-.877 3.346-.877 4.882 0 .25 1.932-.009 1.932-.518 0-1.149-.048-2.339.206-3.469.255-1.135.841-1.551 1.967-1.567a2.903 2.903 0 0 0 1.366-.366c.308-.178.266-.37-.098-.365zM885.922 188.324c-1.678 1.588-3.976 2.179-5.66 3.773-.312.295.277.291.444.273.407-.041.985-.156 1.296-.45 1.678-1.588 3.976-2.179 5.66-3.773.312-.295-.277-.291-.444-.273-.407.041-.985.156-1.296.45zM1300.921 356.419c-.031.82-.465 1.296-1.011 1.85-.546.552-.847 1.142-.876 1.924-.013.323 1.91.067 1.932-.518.031-.82.465-1.296 1.011-1.85.546-.552.847-1.142.876-1.924.013-.322-1.91-.067-1.932.518zM1097.232 358.091c-1.317 1.245-2.645 1.403-4.374 1.405-.579 0-2.103.877-.811.876 2.641-.002 4.978-.505 6.948-2.369.336-.317-.289-.403-.477-.394-.447.022-.954.168-1.286.482zM1114.321 284.306l-1.887 1.887c-.28.28-.237.594.182.679.431.087 1.047-.047 1.365-.366l1.887-1.887c.28-.28.237-.594-.182-.679-.431-.087-1.047.047-1.365.366z"/></svg>