<svg xmlns="http://www.w3.org/2000/svg" width="1334" height="1847" viewBox="248 139.57 1334 1847" xml:space="preserve"><linearGradient id="a" gradientUnits="userSpaceOnUse" x1="899.095" y1="1180.447" x2="935.298" y2="143.724"><stop offset="0" style="stop-color:#0f371e"/><stop offset=".092" style="stop-color:#124524"/><stop offset=".335" style="stop-color:#1a6431"/><stop offset=".572" style="stop-color:#1f7a3b"/><stop offset=".797" style="stop-color:#228741"/><stop offset="1" style="stop-color:#238c43"/></linearGradient><path fill="url(#a)" d="M1579.57 859.868c-7.123-23.469-27.818-41.978-51.157-48.255a77.322 77.322 0 0 0-8.757-1.81c9.182-5.079 17.58-11.484 24.71-19.549 15.257-17.257 21.917-40.348 24.419-62.855 1.403-12.633-.684-25.6-10.686-34.192-3.214-2.761-6.906-4.92-9.935-7.735-.056-.225-.134-.5-.263-.878-.443-1.299-.771-2.642-1.098-3.973-.607-2.481-.643-4.976-.555-7.519.369-10.742 5.544-21.54 7.682-32.025 2.859-14.02 3.256-27.993 1.302-42.144-3.31-23.97-15.294-46.212-36.753-58.181-8.474-4.727-17.739-7.817-26.341-12.288-7.94-4.127-12.286-9.268-14.712-17.884-2.841-10.087-3.535-20.707-5.658-30.952-2.4-11.587-7.142-21.432-14.457-30.67-12.499-15.785-29.867-29.544-49.75-30.226 3.223-13.353 4.792-27.106 2.706-40.77-2.919-19.122-13.539-35.892-28.338-48.108-14.198-11.722-31.036-21.004-49.281-24.355-14.281-2.624-28.006-.913-40.499 4.848-16.219-63.976-106.583-105.136-160.949-62.024-3.891 3.084-7.404 6.671-10.545 10.574-4.691-7.502-10.789-14.226-17.188-20.053-13.487-12.283-29.443-21.427-46.381-28.028-19.256-7.504-41.654-10.565-61.021-4.927.282-7.384-1.631-14.812-6.675-21.79-12.169-16.835-35.67-24.932-55.869-24.768-14.63.118-27.841 3.975-39.531 10.462-12.852-17.494-35.5-27.289-57.004-29.351-28.331-2.717-56.911 9.567-69.347 34.904-20.442-6.744-42.332-5.592-62.047 4.332-19.422 9.776-32.209 27.586-37.817 47.896-21.767-4.38-43.548 1.627-60.421 17.091-15.208 13.937-24.317 34.156-27.054 54.632-24.387-4.429-50.045 4.225-68.835 20.242-10.424 8.885-18.302 21.016-21.999 34.202-2.65 9.456-2.574 19.126-.483 28.44-7.373-1.018-14.755-1.881-22.226-1.467-13.993.776-25.533 6.876-33.69 18.299-9.753 13.657-8.977 30.271-1.684 43.844-8.733-1.851-17.443-3.919-26.34-4.752-17.568-1.645-34.374 4.319-47.762 15.522-17.283 14.463-33.47 41.783-28.78 65.38-30.303-1.783-64.438 3.712-76.73 34.434-7.533 18.826-3.187 39.519 11.095 53.655 8.155 8.072 18.272 13.6 28.739 18.311-8.953 6.019-17.743 12.393-24.618 20.501-11.488 13.55-14.349 30.637-13.835 47.961.325 10.975 1.729 22.13 3.637 32.934 1.87 10.587 5.344 21.209 11.446 30.14a50.08 50.08 0 0 0 5.59 6.803c-6.564 13.303-10.01 27.966-10.37 43.104-.417 17.563 6.555 32.925 20.474 43.573 3.944 3.018 8.305 5.452 12.902 7.458.018.357.031.716.052 1.072 1.806 31.23 12.739 65.926 37.626 86.499 17.867 14.77 40.118 18.607 61.71 13.289 2.359 32.55 4.092 66.846 29.833 90.281 15.642 14.241 38.053 24.053 59.307 19.495 3.438-.737 6.773-1.943 10.005-3.418a95.91 95.91 0 0 0 1.261 9.503c3.274 17.742 19.186 32.02 36.318 36.313 16.582 4.155 33.829-1.414 48.749-8.488 7.935-3.762 15.407-8.317 22.694-13.169a557.885 557.885 0 0 0 12.919 2.994c9.478 19.379 28.401 33.387 48.934 41.244 22.704 8.688 50.473 9.332 71.685-3.095 10.313 26.697 37.639 44.596 66.458 46.699 17.364 1.268 34.216-5.34 47.105-16.734 8.947-7.908 15.326-18.137 20.571-28.85 21.481 18.648 49.312 32.034 76.494 37.98 15.949 3.488 33.23 4.347 48.882-.978 9.973-3.393 18.779-9.431 25.65-17.226 5.428 6.979 12.977 12.59 20.668 16.865 16.166 8.986 34.695 13.921 53.019 15.722 18.743 1.843 37.577-2.275 52.604-14.794 9.949-8.288 15.908-19.112 23.525-28.625 7.48 10.247 18.174 17.79 30.926 20.692 17.241 3.923 35.001-.413 50.64-7.869 16.524-7.88 30.671-20.583 41.163-35.482 7.045-10.005 11.644-21.251 13.469-32.782 10.215 11.017 23.86 18.296 39.814 18.182 21.118-.15 36.318-13.486 45.82-31.242 7.386-13.802 11.622-31.517 26.437-38.823 9.853-4.859 21.954-5.327 32.646-6.896 12.153-1.781 24.059-4.911 34.445-11.701 13.536-8.85 24.575-24.339 29.446-39.667 3.852-12.12 1.841-24.191-4.212-34.52 37.137-9.101 78.985-37.951 66.076-80.484z"/><path opacity=".42" fill="#156823" d="M1579.57 859.854c-7.123-23.469-27.818-41.978-51.157-48.255a77.322 77.322 0 0 0-8.757-1.81c9.182-5.079 17.58-11.484 24.71-19.549 15.257-17.257 21.917-40.348 24.419-62.855 1.403-12.633-.684-25.6-10.686-34.192-3.214-2.761-6.906-4.92-9.935-7.735-.056-.225-.134-.5-.263-.878-.443-1.299-.771-2.642-1.098-3.973-.607-2.481-.643-4.976-.555-7.519.369-10.742 5.544-21.54 7.682-32.025 2.859-14.02 3.256-27.993 1.302-42.144-3.31-23.97-15.294-46.212-36.753-58.181-8.474-4.727-17.739-7.817-26.341-12.288-7.94-4.127-12.286-9.268-14.712-17.884-2.841-10.087-3.535-20.707-5.658-30.952-2.4-11.587-7.142-21.432-14.457-30.67-12.499-15.785-29.867-29.544-49.75-30.226 3.223-13.353 4.792-27.106 2.706-40.77-2.919-19.122-13.539-35.892-28.338-48.108-14.198-11.722-31.036-21.004-49.281-24.355-14.281-2.624-28.006-.913-40.499 4.848-16.219-63.976-106.583-105.136-160.949-62.024-3.891 3.084-7.404 6.671-10.545 10.574-4.691-7.502-10.789-14.226-17.188-20.053-13.487-12.283-29.443-21.427-46.381-28.028-19.256-7.504-41.654-10.565-61.021-4.927.282-7.384-1.631-14.812-6.675-21.79-12.169-16.835-35.67-24.932-55.869-24.768-14.63.118-27.841 3.975-39.531 10.462-12.852-17.494-35.5-27.289-57.004-29.351-28.331-2.717-56.911 9.567-69.348 34.904-20.441-6.744-42.332-5.592-62.047 4.332-19.422 9.776-32.209 27.586-37.816 47.896-21.767-4.38-43.549 1.627-60.422 17.091-15.208 13.937-24.317 34.156-27.054 54.632-24.387-4.429-50.045 4.225-68.835 20.242-10.424 8.885-18.302 21.016-21.999 34.202-2.65 9.456-2.574 19.126-.483 28.44-7.373-1.018-14.755-1.881-22.226-1.467-13.993.776-25.533 6.876-33.69 18.299-9.753 13.657-8.977 30.271-1.684 43.844-8.733-1.851-17.443-3.919-26.34-4.752-17.568-1.645-34.374 4.319-47.762 15.522-17.283 14.463-33.47 41.783-28.78 65.38-30.303-1.783-64.438 3.712-76.73 34.434-7.533 18.826-3.187 39.519 11.095 53.655 8.155 8.072 18.272 13.6 28.739 18.311-8.953 6.019-17.743 12.393-24.618 20.501-11.488 13.55-14.349 30.637-13.835 47.961.325 10.975 1.729 22.13 3.637 32.934 1.87 10.587 5.344 21.209 11.446 30.14a50.08 50.08 0 0 0 5.59 6.803c-6.564 13.303-10.01 27.966-10.37 43.104-.417 17.563 6.555 32.925 20.474 43.573 3.944 3.018 8.305 5.452 12.902 7.458.018.357.031.716.052 1.072 1.806 31.23 12.739 65.926 37.626 86.499 17.867 14.77 40.118 18.607 61.71 13.289 2.359 32.55 4.092 66.846 29.833 90.281 15.642 14.241 38.053 24.053 59.307 19.495 3.438-.737 6.773-1.943 10.005-3.418a95.91 95.91 0 0 0 1.261 9.503c3.274 17.742 19.186 32.02 36.318 36.313 16.582 4.155 33.829-1.414 48.749-8.488 7.935-3.762 15.407-8.317 22.694-13.169a557.885 557.885 0 0 0 12.919 2.994c9.478 19.379 28.401 33.387 48.934 41.244 22.703 8.688 50.473 9.332 71.685-3.095 10.313 26.697 37.64 44.596 66.458 46.699 17.364 1.268 34.216-5.34 47.105-16.734 8.947-7.908 15.326-18.137 20.571-28.85 21.481 18.648 49.312 32.034 76.493 37.98 15.949 3.488 33.23 4.347 48.883-.978 9.973-3.393 18.779-9.431 25.65-17.226 5.428 6.979 12.977 12.59 20.668 16.865 16.166 8.986 34.695 13.921 53.019 15.722 18.743 1.843 37.577-2.275 52.604-14.794 9.949-8.288 15.908-19.112 23.525-28.625 7.48 10.247 18.174 17.79 30.926 20.692 17.241 3.923 35.001-.413 50.64-7.869 16.524-7.88 30.671-20.583 41.163-35.482 7.045-10.005 11.644-21.251 13.469-32.782 10.215 11.017 23.86 18.296 39.814 18.182 21.118-.15 36.318-13.486 45.82-31.242 7.386-13.802 11.622-31.517 26.437-38.823 9.853-4.859 21.954-5.327 32.646-6.896 12.153-1.781 24.059-4.911 34.445-11.701 13.536-8.85 24.575-24.339 29.446-39.668 3.852-12.119 1.841-24.191-4.212-34.519 37.138-9.101 78.986-37.951 66.077-80.484z"/><linearGradient id="b" gradientUnits="userSpaceOnUse" x1="869.503" y1="206.102" x2="962.75" y2="1985.35"><stop offset=".012" style="stop-color:#c19864"/><stop offset=".031" style="stop-color:#bd9461"/><stop offset=".224" style="stop-color:#997449"/><stop offset=".418" style="stop-color:#7d5a36"/><stop offset=".612" style="stop-color:#694828"/><stop offset=".806" style="stop-color:#5d3d20"/><stop offset="1" style="stop-color:#59391d"/></linearGradient><path fill="url(#b)" d="M1449.99 679.843c-66.041 39.55-145.21 49.241-208.506 96.384 7.652-17.34 89.778-211.75 74.067-217.012 2.831.948-64.603 153.312-71.7 168.172-31.74 66.457-63.963 118.486-113.059 173.263 2.263-34.759-.386-67.602 10.074-101.109 2.609-8.357 40.546-115.211 32.51-116.212-21.134-2.63-67.638 166.639-71.764 184.829-20.869 92.001-75.528 172.375-129.613 247.971 0-66.47-1.911-133.89 2.381-198.341 4.913-73.788 6.306-148.3 7.885-222.224.908-42.521 2.578-85.383.371-127.881-2.037-39.205-20.082-97.459-15.565-130.644-10.474 77.032 3.743 162.335.255 240.7-4.243 95.33-15.955 188.819-26.869 283.504-6.592-134.862-23.36-268.29-31.308-403.152-6.892-116.897 42.008-237.04 20.005-355.114 1.722 9.25-5.414 57.838-5.377 75.973.073 35.501-13.24 69.092-17.645 104.085-1.044-7.511-10.414-67.962-20.13-63.86-3.342 1.411 7.544 96.379 7.305 105.572-1.867 71.735-8.584 143.129-8.976 214.971-.809 148.204 3.347 296.316 4.299 443.83-48.595-70.281-155.145-107.179-181.019-190.342-13.315-42.81-18.759-85.716-21.651-130.347-.598-9.221 9.907-121.208 7.697-121.899-20.853-6.514-18.063 206.408-13.612 224.596-26.707-43.15-52.185-84.556-64.084-134.271-1.521-6.352-30.694-125.524-46.426-113.512.369-.282 53.573 177.043 59.456 189.45 26.874 56.678 58.413 114.446 102.663 159.572-83.209-63.989-177.744-112.284-259.391-177.072-37.712-29.925-69.781-67.221-94.181-108.696-4.724-8.029-44.651-94.497-41.43-95.441-14.142 4.148 32.138 101.38 37.545 110.725 25.635 44.305 59.243 82.679 99.284 114.491 79.876 63.461 169.417 114.577 250.353 177.552-66.482-14.723-179.565-9.528-234.346 37.703 21.659-18.673 119.159-23.643 151.214-24.265 61.198-1.188 122.169 12.706 165.695 58.11-10.322 4.459-64.13 38.647-66.052 38.049 38.861 12.104 61.86-46.364 92.309-7.635 22.994 29.248 62.348 75.777 62.348 114.85 0 111.423-3.386 222.979-4.933 334.402-1.547 111.438-5.443 222.85-6.336 334.286-.897 111.955-6.444 110.618 3.269 111.438s86.973.579 91-1.056c2.5-1.015 2.572-72.394 2.351-104.531-.743-108.538-4.195-217.028-6.915-325.528-1.563-62.343 5.353-227.914 16.564-289.593 9.861-54.248 3.211-67.729 38.5-111.015 22.638-27.768 30.661-25.26 70.631-43.881 12.775-5.919 26.789-9.109 40.851-9.104 12.279.003 89.213 32.856 87.027 34.091 11.485-6.487-30.651-41.204-34.741-43.569-32.566-18.835-71.724-21.313-106.066-5.555 12.661-37.025 23.333-74.757 32.371-112.825 35.014-18.579 77.45-31.094 115.646-41.186 33.418-8.83 67.734-12.473 102.251-10.361 11.362.695 108.196 25.25 106.281 27.607 18.192-22.392-140.779-53.262-154.623-52.517-55.23 2.971-111.572 21.268-162.294 42.696 3.415-17.979 35.813-42.104 47.838-55.494 27.887-31.053 46.842-63.682 80.851-88.909 37.417-27.756 80.948-46.368 122.608-66.684 25.898-12.63 56.284-38.111 72.857-48.035-18.662 11.176 1.691-1.012 0 0z"/><path opacity=".7" fill="#59391D" d="M1145.893 782.831c-1.715.348-3.444 1.29-4.911 2.333-2.128.737-4.359 1.243-6.347 1.46-3.453.377-6.477.294-9.495-.316a1539.068 1539.068 0 0 0-5.073 16.298 47.015 47.015 0 0 0 9.761 1.554c-2.576 8.846-3.49 18.535-4.051 27.474-.799 12.73-.814 25.499-.928 38.249-.048 5.358.564 7.304 1.153 15.772l4.791 14.995c2.263-34.76-.386-67.602 10.074-101.109.568-1.819 2.811-8.308 5.888-17.354-.285.231-.571.447-.862.644z"/><path fill="#59391D" d="M1259.162 734.119a3416.436 3416.436 0 0 0 8.02-19.706 420.53 420.53 0 0 0-16.164-2.777c-3.514 7.835-6.065 13.448-7.166 15.751-.634 1.327-1.269 2.639-1.902 3.954a421.674 421.674 0 0 1 17.212 2.778zM1164.945 726.297c2.218-7.328 4.222-14.3 5.817-20.422-5.263.003-10.522.067-15.771.224-2.893 5.979-5.875 12.88-8.883 20.403 6.324-.201 12.62-.251 18.837-.205zM1296.992 764.948c1.354.12 2.698.275 4.034.461 7.437-4.035 14.967-7.916 22.551-11.694-9.336-2.979-19.024-4.876-28.972-5.556-1.74-.119-3.483-.22-5.23-.306-10.367 4.949-20.537 10.371-30.408 16.501 12.677-.587 25.418-.527 38.025.594z"/><path opacity=".7" fill="#59391D" d="M473.48 810.801c79.511 63.171 169.709 114.972 250.353 177.552 2.178-1.557-4.553-6.823-6.833-9.117-8.244-8.296-12.95-12.65-22.823-18.813-11.117-6.939-21.832-14.374-32.701-21.689-22.212-14.952-43.65-31.01-64.929-47.254-20.848-15.915-41.679-31.834-63.094-46.985a583.692 583.692 0 0 0-21.285-14.382c2.596-1.726 5.248-3.375 7.923-4.989-7.179-5-14.294-10.081-21.343-15.246a225.632 225.632 0 0 0-9.262 6.315 50.225 50.225 0 0 1-3.362-2.419c-4.648-3.676-9.467-5.41-14.325-4.339.564.452 1.115.916 1.681 1.366z"/><path fill="#59391D" d="m1224.335 1127.904-24.436-14.959c-18.115-9.493-33.145-16.612-53.145-20.375-8.991-1.691-18.883-1.043-28.042-1.171-10.206-.143-19.82 3.526-29.631 6.171-21.673 5.84-44.012 16.754-60.414 32-22.938 21.321-40.543 49.246-48.569 79.228-2.286 8.538-3.897 17.297-5.001 26.118L969 1272.904l-7 49.667-8.667 98.333c-2.034 65.452-12.12 118.927-7.273 184.33 4.828 65.153 12.876 130.068 15.965 195.349 1.546 32.67 1.029 65.363 2.822 98.029.896 16.338 1.978 32.665 2.754 49.01.592 12.463 1.822 24.879 2.552 37.336 4.301-.2 7.155-.439 7.847-.721 2.5-1.015 2.572-72.394 2.351-104.531-.743-108.538-4.195-217.028-6.915-325.528-1.563-62.343 5.353-227.914 16.564-289.593 9.861-54.248 3.211-67.729 38.5-111.015 12.012-14.734 19.91-20.943 30.649-26.31 16.52-6.356 23.177-8.689 34.177-14.915 1.864-.84 3.783-1.715 5.805-2.656 12.775-5.919 26.789-9.109 40.851-9.104 12.279.003 89.213 32.856 87.027 34.091 3.188-1.801.441-1.916-2.674-6.772z"/><path opacity=".7" fill="#59391D" d="M904.684 832.411c4.894-1.54 9.563-3.549 14.042-5.913 1.158 13.516 3.389 26.991 4.853 40.629 1.423 13.259 1.803 26.046 5.293 39.016a252.96 252.96 0 0 1 4.535 19.956c.635 3.453.881 6.972 1.022 10.474.166 4.121.88 10.63 1.571 14.664 1.118 6.53 2.668 12.404 4.458 10.006-3.229-61.993-8.963-132.394-14.476-194.085-4.299 2.229-8.072 6.053-9.057 10.916-.929 4.589.308 8.751 2.53 12.505a57.688 57.688 0 0 0-.247 1.507c-.547 3.783-.874 7.548-1.058 11.303-4.901 3.628-11.732 7.472-16.628 9.379-3.629 1.414-7.389 2.47-11.208 3.227-.026.005-1.723.248-1.96.298-.779.075-1.561.125-2.343.166-.266.014-.532.016-.799.021.081 6.447.161 12.895.247 19.341 6.573-.023 13.331-1.556 19.225-3.41zM623.624 792.078c4.543-.375 9.057-1.222 13.321-2.412-3.391-7.174-6.563-14.456-9.464-21.886a83.72 83.72 0 0 1-6.715 1.505c.426-.097-1.813.225-2.063.246-.299.025-.599.027-.898.042a7.423 7.423 0 0 0-1.886-1.501c2.929 9.282 5.558 17.491 7.705 24.006z"/><path fill="#59391D" d="M1223.602 767.567c7.309-1.023 14.657-1.793 22.021-2.374.204-.016.409-.028.613-.044a2781.806 2781.806 0 0 0 7.066-16.847 342.077 342.077 0 0 0-20.773 2.105 910.033 910.033 0 0 1-8.927 17.16zM787.946 1034.09c-9.12-6.481-18.913-12.916-28.758-18.223-10.782-5.813-21.826-10.542-33.615-13.953-13.521-3.912-28.245-5.388-42.247-6.264-28.197-1.763-56.477.099-84.683.643-18.337.354-35.321 5.164-53.644 5.943-20.879 7.033-40.924 11.24-55.514 23.819 21.659-18.673 119.159-23.643 151.214-24.265 61.198-1.188 122.169 12.706 165.695 58.11l-4.059-8.999c-3.972-9.146-6.555-11.243-14.389-16.811z"/><path opacity=".7" fill="#59391D" d="M888.63 1083.547c-48.595-70.281-155.145-107.179-181.019-190.342-13.315-42.81-18.759-85.716-21.651-130.347-.154-2.378.431-11.598 1.345-23.972-3.38 1.467-6.692 3.131-9.935 4.833-.233 9.354-.374 18.798-.436 28.078a897.843 897.843 0 0 1 5.232-2.74c.003 8.432.546 16.894 1.209 25.102 1.289 15.945 3.905 31.807 6.998 47.494 2.984 15.135 6.594 30.292 11.154 45.034 1.863 6.021 4.247 11.869 6.804 17.625 2.658 5.983 4.967 12.325 8.165 18.036 12.643 22.578 24.12 38.767 43.836 55.221 10.066 8.4 23.02 18.687 33.667 26.334 5.748 6.498 16.531 12.978 22.305 19.445 5.865 6.571 11.479 13.572 17.789 19.713 5.878 5.722 12.206 10.992 18.443 16.313a438.63 438.63 0 0 1 18.925 17.115c3.359 3.223 12.881 15.654 17.31 7.367l-.141-.309z"/><path fill="#59391D" d="m1436.335 940.984-62.694-20.141c-12.476-1.962-24.795-4.575-37.442-5.221-31.749-1.62-62.625 1.062-93.529 7.28-29.578 5.952-60.534 16.347-89.131 26.168-10.798 3.708-22.858 7.449-32.431 13.838-1.609.443-3.034 1.556-3.905 3.52-4.089 9.221-6.782 19.121-9.688 28.764a1152.03 1152.03 0 0 0-8.854 30.896 615.082 615.082 0 0 1-8.564 28.795 601.408 601.408 0 0 1-4.762 14.136c-1.607 4.565-4.287 9.645-2.307 14.476.586 1.43 2.173 2.944 3.902 2.216a11.503 11.503 0 0 0 2.793-1.7 113.732 113.732 0 0 0-3.521 1.54c12.661-37.025 23.333-74.757 32.371-112.825 35.014-18.578 77.45-31.094 115.646-41.186 33.418-8.83 67.734-12.473 102.251-10.361 11.362.695 108.196 25.25 106.281 27.607 3.177-3.909-.507-3.589-6.416-7.802z"/><path opacity=".7" fill="#59391D" d="M981.044 751.703c-6.18 2.071-12.455 3.839-18.83 5.225-2.353 28.665-5.171 57.241-8.244 85.808 4.377 2.058 9.218 3.37 14.083 3.926 1.706.195 3.531.298 5.427.302-.354 4.794-.683 9.591-1.085 14.38-2.257 26.826-7.148 53.397-9.615 80.214-5.37 58.381-1.778 85.848 4.727 142.345l4.493 32.226c0-66.47-1.911-133.891 2.381-198.342 3.672-55.14 5.377-110.683 6.663-166.084z"/><path fill="#59391D" d="M740.344 1097.951c38.861 12.104 61.86-46.364 92.309-7.635 17.134 21.795 43.349 53.185 55.599 83.935-1.477-19.426-5.66-38.92-15.056-56.105-10.365-18.956-33.925-43.064-55.861-46.575-11.894-1.903-21.091 6.113-32.478 9.544-12.087 3.642-17.568 9.16-29.522 13.249-4.862 2.811-14.544 3.725-14.991 3.587zM1325.216 752.903c8.354-4.143 16.76-8.182 25.163-12.19-7.293-3.404-14.764-6.48-22.303-9.271-9.921 3.815-19.773 7.801-29.479 12.142 8.994 2.711 17.878 5.799 26.619 9.319z"/><path opacity=".7" fill="#59391D" d="M1210.289 837.671c-4.949 2.042-9.633 4.906-14.084 8.121-.16-.083-.325-.155-.483-.241-.663-.346-1.284-.76-1.9-1.18 1.264.825-1.107-1.125-1.453-1.496a1.268 1.268 0 0 0-.058-.067 133.28 133.28 0 0 1-.931-1.42c-.19-.293-1.278-2.637-1.191-2.284-1.501-4.135-1.519-8.129-1.847-12.35a625.229 625.229 0 0 1-15.866 22.688c1.577 3.887 4.062 7.23 7.082 10.147-6.755 6.243-13.027 13.014-18.994 20.001-7.333 8.587-14.227 17.596-20.349 27.085-2.985 4.629-3.863 4.036-10.88 19.021l-3.501 13.27c2.918-15.364 26.996-35.212 41.443-49.019.21-.236.418-.475.628-.71a239.796 239.796 0 0 1 9.8-10.342c12.063-13.897 22.592-28.018 33.696-41.572-.362.083-.73.191-1.112.348z"/><path fill="#C19864" d="M992.917 1106.154c-4.151 3.566-6.916 8.53-9.368 13.348-.08.157.142.288.236.139 2.908-4.62 5.144-9.624 9.298-13.32.113-.103-.052-.265-.166-.167zM1064.578 1019.991c-6.579 8.935-10.869 19.338-15.118 29.522-.095.227.283.381.393.166 5.03-9.889 8.839-20.254 15.569-29.196.377-.501-.473-.995-.844-.492zM1012.887 1105.54c-5.217 14.512-15.083 27.088-23.354 39.952-.095.147.133.329.245.189 9.831-12.192 18.32-25.152 23.336-40.079.047-.144-.176-.203-.227-.062z"/><linearGradient id="c" gradientUnits="userSpaceOnUse" x1="1152.107" y1="1150.153" x2="1088.346" y2="1065.538"><stop offset="0" style="stop-color:#c19864"/><stop offset=".007" style="stop-color:#c09763"/><stop offset=".263" style="stop-color:#a37a4e"/><stop offset=".516" style="stop-color:#8e663f"/><stop offset=".764" style="stop-color:#815936"/><stop offset="1" style="stop-color:#7d5533"/></linearGradient><path fill="url(#c)" d="M1208.458 1107.447c-4.76-5.101-9.276-9.304-15.399-12.734-6.528-3.656-13.631-6.183-20.835-8.123-15.912-4.286-32.718-5.176-49.114-4.517-16.543.665-33.13 3.557-49.106 7.828a224.092 224.092 0 0 0-21.31 6.863c-7.157 2.704-14.822 5.14-19.641 11.391-.916 1.188.848 2.833 2.03 2.03 11.796-7.995 26.539-12.013 40.238-15.502 15.245-3.883 30.757-6.313 46.429-7.581 15.674-1.269 31.631-.868 47.041 2.429 13.723 2.936 28.686 8.869 39.419 18.164.17.147.404-.081.248-.248z"/><path fill="#C19864" d="M680.138 790.904c-.375 19.099-1.885 38.057-.877 57.173.487 9.235 1.569 18.447 3.527 27.489 1.665 7.694 4.1 16.209 9.117 22.433.385.477 1.194-.035 1.012-.589-2.652-8.066-5.915-15.681-7.822-24.005-2.137-9.328-3.056-18.911-3.614-28.448-1.052-17.974-.658-36.054-.953-54.052-.004-.253-.385-.253-.39-.001z"/><linearGradient id="d" gradientUnits="userSpaceOnUse" x1="1041.703" y1="830.212" x2="1084.964" y2="1075.558"><stop offset="0" style="stop-color:#c19864"/><stop offset=".007" style="stop-color:#c09763"/><stop offset=".263" style="stop-color:#a37a4e"/><stop offset=".516" style="stop-color:#8e663f"/><stop offset=".764" style="stop-color:#815936"/><stop offset="1" style="stop-color:#7d5533"/></linearGradient><path fill="url(#d)" d="M1122.56 816.3c.064-.25-.309-.427-.428-.181-4.742 9.798-7.123 20.37-9.415 30.958-2.535 11.713-5.004 23.412-8.123 34.989-3.511 13.033-7.557 25.953-11.724 38.79-4.305 13.26-8.237 26.902-13.733 39.725-9.24 21.559-24.216 39.971-35.496 60.413-6.256 11.336-12.028 22.883-18.627 34.037-6.824 11.534-13.156 23.466-20.865 34.432-.162.229.208.433.371.217 7.806-10.328 15.705-20.293 22.365-31.411 6.672-11.139 12.963-22.514 19.186-33.907 11.478-21.019 26.971-39.633 37.393-61.251 5.424-11.25 9.241-23.371 13.272-35.168 4.582-13.408 8.467-27.039 11.799-40.808 5.667-23.422 8.078-47.487 14.025-70.835z"/><linearGradient id="e" gradientUnits="userSpaceOnUse" x1="1124.754" y1="874.729" x2="1140.41" y2="963.521"><stop offset="0" style="stop-color:#c19864"/><stop offset=".007" style="stop-color:#c09763"/><stop offset=".263" style="stop-color:#a37a4e"/><stop offset=".516" style="stop-color:#8e663f"/><stop offset=".764" style="stop-color:#815936"/><stop offset="1" style="stop-color:#7d5533"/></linearGradient><path fill="url(#e)" d="M1165.718 867.6c.038-.067-.057-.118-.102-.06-12.808 16.889-29.027 30.835-41.173 48.3-5.713 8.216-10.52 17.053-14.865 26.055-4.017 8.319-9.533 18.382-10.299 27.675-.094 1.141 1.418 1.307 1.965.532 2.342-3.316 3.738-7.495 5.232-11.27 2.002-5.056 4.179-10.042 6.436-14.989 4.162-9.119 9.037-17.866 14.434-26.307 11.384-17.806 27.839-31.594 38.372-49.936z"/><linearGradient id="f" gradientUnits="userSpaceOnUse" x1="1396.773" y1="1008.768" x2="1157.155" y2="881.361"><stop offset="0" style="stop-color:#c19864"/><stop offset=".007" style="stop-color:#c09763"/><stop offset=".263" style="stop-color:#a37a4e"/><stop offset=".516" style="stop-color:#8e663f"/><stop offset=".764" style="stop-color:#815936"/><stop offset="1" style="stop-color:#7d5533"/></linearGradient><path fill="url(#f)" d="M1433.833 938.738c-7.028-8.986-21.401-10.856-31.249-15.508-12.434-5.873-25.55-10.802-39.26-12.545-15.467-1.967-30.851-4.015-46.265-6.402-14.32-2.217-28.657-4.008-43.177-3.68-14.941.338-29.898 3.417-44.526 6.259-14.905 2.896-29.638 6.688-43.875 11.996-11.354 4.232-22.634 8.707-33.982 12.972-10.161 3.819-20.447 9.085-28.589 16.36-.932.832-1.78 1.748-2.624 2.666-1.699 1.848 1.014 4.589 2.762 2.762 8.199-8.57 19.12-12.314 29.912-16.489 10.751-4.159 21.516-8.205 32.23-12.456 13.558-5.379 27.745-8.988 41.985-12.023 14.719-3.137 29.854-6.396 44.873-7.495 28.84-2.108 57.176 5.352 85.765 7.605 15.518 1.223 29.636 5.758 43.706 12.291 10.629 4.936 22.233 7.389 32.029 14.055.24.163.435-.176.285-.368z"/><linearGradient id="g" gradientUnits="userSpaceOnUse" x1="1172.9" y1="924.598" x2="1174.199" y2="949.373"><stop offset="0" style="stop-color:#c19864"/><stop offset=".007" style="stop-color:#c09763"/><stop offset=".263" style="stop-color:#a37a4e"/><stop offset=".516" style="stop-color:#8e663f"/><stop offset=".764" style="stop-color:#815936"/><stop offset="1" style="stop-color:#7d5533"/></linearGradient><path opacity=".45" fill="url(#g)" d="M1220.334 922.123c-16.249.608-32.395 5.288-47.766 10.294a354.62 354.62 0 0 0-23.308 8.532c-7.739 3.136-15.915 6.038-23.085 10.352-.307.185-.103.656.241.571 7.491-1.846 14.637-5.175 21.842-7.899 7.736-2.925 15.494-5.798 23.341-8.416 16.063-5.358 32.415-8.451 48.942-11.899.868-.182.668-1.568-.207-1.535z"/><linearGradient id="h" gradientUnits="userSpaceOnUse" x1="667.895" y1="791.925" x2="701.476" y2="982.367"><stop offset="0" style="stop-color:#c19864"/><stop offset=".007" style="stop-color:#c09763"/><stop offset=".263" style="stop-color:#a37a4e"/><stop offset=".516" style="stop-color:#8e663f"/><stop offset=".764" style="stop-color:#815936"/><stop offset="1" style="stop-color:#7d5533"/></linearGradient><path fill="url(#h)" d="M630.899 802.658c1.248 2.535 2.705 4.984 4.002 7.496 2.878 5.572 5.519 11.275 8.011 17.029 7.412 17.117 14.969 33.645 24.442 49.773 10.746 18.294 22.134 36.073 34.764 53.128 11.553 15.602 23.302 31.604 37.037 45.33.66.66 1.682-.362 1.021-1.021-2.664-2.662-4.614-6.73-6.948-9.746-3.302-4.268-6.671-8.479-10.052-12.684-6.96-8.66-13.791-17.419-20.395-26.354-12.996-17.582-24.549-36.085-35.546-54.968-8.96-15.385-16.021-31.336-23.402-47.476-2.761-6.037-5.712-12.002-8.943-17.802-1.133-2.033-3.177-6.216-5.892-6.577-.099-.013-.159.139-.083.2.944.758 1.464 2.615 1.984 3.672z"/><linearGradient id="i" gradientUnits="userSpaceOnUse" x1="617.317" y1="814.583" x2="651.469" y2="1008.268"><stop offset="0" style="stop-color:#c19864"/><stop offset=".007" style="stop-color:#c09763"/><stop offset=".263" style="stop-color:#a37a4e"/><stop offset=".516" style="stop-color:#8e663f"/><stop offset=".764" style="stop-color:#815936"/><stop offset="1" style="stop-color:#7d5533"/></linearGradient><path fill="url(#i)" d="M736.556 977.141c-3.528-3.351-7.467-6.278-11.455-9.053-9.2-6.399-19.272-11.452-28.985-17.001-10.494-5.995-19.456-13.349-28.93-20.767-9.75-7.634-20.122-14.513-30.628-21.053-10.421-6.486-21.08-12.603-31.296-19.411-10.729-7.148-21.055-14.916-31.262-22.782-10.003-7.708-20.323-14.635-30.884-21.543-4.5-2.943-8.425-6.213-12.406-9.8-2.53-2.279-5.603-4.077-9.042-4.278-.153-.009-.147.219 0 .234 5.597.566 9.196 5.873 12.966 9.527 3.492 3.386 8.114 5.873 12.156 8.524 10.544 6.916 20.552 14.325 30.498 22.073 9.3 7.244 18.565 14.503 28.264 21.215 10.092 6.985 20.683 13.234 30.87 20.086 10.55 7.097 20.914 14.389 30.855 22.323 8.285 6.612 16.247 12.924 25.429 18.308 9.218 5.406 18.738 10.271 27.763 16.006 4.729 3.004 9.204 6.362 13.371 10.106 3.929 3.531 6.934 7.827 10.834 11.374 1.368 1.245 3.107-.597 1.988-1.988-3.394-4.22-6.142-8.336-10.106-12.1z"/><linearGradient id="j" gradientUnits="userSpaceOnUse" x1="598.386" y1="988.858" x2="602.21" y2="1010.546"><stop offset="0" style="stop-color:#c19864"/><stop offset=".007" style="stop-color:#c09763"/><stop offset=".263" style="stop-color:#a37a4e"/><stop offset=".516" style="stop-color:#8e663f"/><stop offset=".764" style="stop-color:#815936"/><stop offset="1" style="stop-color:#7d5533"/></linearGradient><path fill="url(#j)" d="M690.536 993.502c-7.042-1.227-14.434-.8-21.566-1.09-8.325-.339-16.646-.788-24.97-1.154-16.617-.732-33.318-1.094-49.932-.096-29.032 1.744-57.329 8.711-83.078 22.392-.022.012-.003.044.02.033 27.174-13.102 56.54-20.176 86.657-21.405 15.468-.632 30.904.371 46.333 1.367 7.68.495 15.354 1.014 23.042 1.387 7.703.375 15.855 1.323 23.494.035.732-.123.728-1.342 0-1.469z"/><linearGradient id="k" gradientUnits="userSpaceOnUse" x1="812.055" y1="1095.881" x2="818.265" y2="1056.671"><stop offset="0" style="stop-color:#c19864"/><stop offset=".007" style="stop-color:#c09763"/><stop offset=".263" style="stop-color:#a37a4e"/><stop offset=".516" style="stop-color:#8e663f"/><stop offset=".764" style="stop-color:#815936"/><stop offset="1" style="stop-color:#7d5533"/></linearGradient><path fill="url(#k)" d="M842.543 1063.038c-9.35-3.851-19.378-6.694-29.57-5.927-9.298.701-18.393 6.473-26.091 11.271-9.129 5.691-17.563 12.428-26.034 19.036-.192.15.067.486.26.338 7.646-5.885 15.637-11.249 23.945-16.161 8.573-5.067 17.743-10.506 27.919-10.916 19.322-.778 35.725 12.409 53.065 18.631 1.057.379 1.879-1.125 1.083-1.86-7.094-6.547-15.699-10.756-24.577-14.412z"/><linearGradient id="l" gradientUnits="userSpaceOnUse" x1="965.754" y1="866.701" x2="925.203" y2="1155.237"><stop offset="0" style="stop-color:#c19864"/><stop offset=".007" style="stop-color:#c09763"/><stop offset=".263" style="stop-color:#a37a4e"/><stop offset=".516" style="stop-color:#8e663f"/><stop offset=".764" style="stop-color:#815936"/><stop offset="1" style="stop-color:#7d5533"/></linearGradient><path fill="url(#l)" d="M949.808 936.905c4.291-23.602 7.042-47.317 6.152-71.334-.014-.378-.569-.377-.586 0-1.08 24.936-4.235 49.755-8.79 74.284-4.5 24.233-10.804 48.136-14.754 72.466-3.931 24.211-5.169 48.901-5.06 73.403.056 12.473.428 25.017 1.494 37.446.885 10.318 2.109 22.725 7.792 31.619.483.756 1.3.632 1.728.109.124.684.236 1.368.381 2.053.047.225.373.125.339-.094-1.474-9.42-.507-19.347.343-28.799.869-9.655 1.554-19.172 1.418-28.875a354.086 354.086 0 0 0-4.756-53.086c-.099-.593-1.055-.446-1.036.14.616 18.316 2.651 36.539 3.134 54.871.409 15.541-2.146 30.839-.831 46.188-.667-2.921-1.404-5.83-1.965-8.771-1.19-6.239-1.736-12.605-2.23-18.932-.928-11.904-.999-23.869-1.24-35.801-.519-25.595.038-51.123 4.133-76.442 3.823-23.631 10.05-46.885 14.334-70.445z"/><linearGradient id="m" gradientUnits="userSpaceOnUse" x1="909.29" y1="857.72" x2="875.754" y2="1096.341"><stop offset="0" style="stop-color:#c19864"/><stop offset=".007" style="stop-color:#c09763"/><stop offset=".263" style="stop-color:#a37a4e"/><stop offset=".516" style="stop-color:#8e663f"/><stop offset=".764" style="stop-color:#815936"/><stop offset="1" style="stop-color:#7d5533"/></linearGradient><path fill="url(#m)" d="M891.999 855.57c.029-.431-.625-.42-.664 0-3.801 40.423-.97 80.498 1.305 120.917 1.134 20.143 1.904 40.313 1.397 60.49-.252 10.038-.933 20.066-1.895 30.061-.929 9.643-4.168 20.192-3.292 29.866.125 1.375 2.006 2.146 2.766.749 4.258-7.828 4.619-18.153 5.643-26.87 1.172-9.978 1.697-20 1.918-30.039.459-20.805-.719-41.618-2.181-62.362-2.869-40.727-7.736-81.95-4.997-122.812z"/><linearGradient id="n" gradientUnits="userSpaceOnUse" x1="921.304" y1="872.067" x2="900.644" y2="1019.07"><stop offset="0" style="stop-color:#c19864"/><stop offset=".007" style="stop-color:#c09763"/><stop offset=".263" style="stop-color:#a37a4e"/><stop offset=".516" style="stop-color:#8e663f"/><stop offset=".764" style="stop-color:#815936"/><stop offset="1" style="stop-color:#7d5533"/></linearGradient><path fill="url(#n)" d="M911.862 870.904c-.001-.252-.389-.252-.391 0-.178 25.065-1.794 50.066-2.341 75.12-.475 21.777 2.986 44.223-.24 65.883-1.945-10.795-2.414-21.913-4.01-32.745-2.211-15.007.638-30.493-.253-45.591-.022-.378-.561-.377-.586 0-.969 14.631-1.399 29.388-.003 44 1.326 13.884.311 28.039 3.661 41.693.313 1.274 2.312 1.309 2.604 0 5.199-23.314 1.217-47.696 1.319-71.33.109-25.673.369-51.358.24-77.03z"/><linearGradient id="o" gradientUnits="userSpaceOnUse" x1="656.021" y1="897.957" x2="672.415" y2="794.448"><stop offset="0" style="stop-color:#59391d"/><stop offset=".342" style="stop-color:#613f22"/><stop offset=".871" style="stop-color:#77502f"/><stop offset="1" style="stop-color:#7d5533"/></linearGradient><path fill="url(#o)" d="M635.384 788.982c7.329 19.73 16.745 38.488 29.647 55.222 2.826 3.665 5.744 7.241 8.282 11.116 3.286 5.018 4.471 10.357 5.964 16.058 1.508 5.761 3.72 11.333 5.891 16.868 1.977 5.041 3.532 10.488 6.457 15.072.415.649 1.58.442 1.529-.414-.29-4.889-2.353-9.375-4.107-13.895-2.153-5.548-4.274-11.093-5.977-16.799-1.492-4.997-2.313-9.947-4.598-14.678-2.04-4.226-5.067-7.956-7.965-11.615-7.094-8.954-13.193-18.542-19.314-28.183-5.832-9.185-8.758-20.309-15.273-28.978-.183-.243-.661-.112-.536.226z"/><linearGradient id="p" gradientUnits="userSpaceOnUse" x1="1099.506" y1="988.931" x2="1115.27" y2="889.399"><stop offset="0" style="stop-color:#59391d"/><stop offset=".342" style="stop-color:#613f22"/><stop offset=".871" style="stop-color:#77502f"/><stop offset="1" style="stop-color:#7d5533"/></linearGradient><path fill="url(#p)" d="M1129.12 892.237c-.363 3.746-.508 7.288-1.716 10.887-1.28 3.818-3.791 7.124-6.146 10.331-5.514 7.508-11.507 14.476-16.613 22.312-5.274 8.092-9.889 16.604-13.861 25.406-3.425 7.585-6.953 16.008-7.407 24.398-.05.917 1.388 1.356 1.783.483 3.89-8.577 6.355-17.715 10.318-26.303 4.291-9.3 9.548-18.143 15.254-26.636 8.225-12.242 22.699-24.696 19.462-41.022-.129-.649-1.018-.428-1.074.144z"/><linearGradient id="q" gradientUnits="userSpaceOnUse" x1="1055.791" y1="1094.425" x2="1069.703" y2="1006.589"><stop offset="0" style="stop-color:#59391d"/><stop offset=".342" style="stop-color:#613f22"/><stop offset=".871" style="stop-color:#77502f"/><stop offset="1" style="stop-color:#7d5533"/></linearGradient><path fill="url(#q)" d="M1091.497 1010.19c-8.101 21.084-23.47 38.96-38.378 55.587-5.264 5.871-10.543 11.746-15.493 17.887-.76.941-5.882 6.418-2.859 7.421.707.234 1.432-.661.992-1.291.402.577.109.506.792-.422.569-.773 1.107-1.568 1.685-2.337 2.123-2.828 4.465-5.502 6.771-8.181 4.625-5.373 9.396-10.617 14.106-15.914 13.674-15.374 26.626-32.79 32.725-52.656.066-.221-.261-.301-.341-.094z"/><path fill="#59391D" d="M944.941 1039.571c-.31 38.473-5.042 76.768-4.905 115.291.12 33.642 5.835 67.761-1.707 101.007-.395 1.738 2.184 2.463 2.674.736 4.341-15.263 4.449-31.666 4.234-47.413-.238-17.478-1.786-34.901-2.048-52.378-.292-19.56.464-39.136 1.22-58.677.754-19.509.742-39.045.648-58.566.001-.075-.115-.075-.116 0z"/><path fill="#59391D" d="M949.124 1181.695c.429-.552.125 2.555.135 2.511-.223 1.018-.274 2.115-.406 3.149-.522 4.118-.125 8.436-.342 12.593-.528 10.124-1.946 20.209-2.977 30.289-1.048 10.258-1.065 20.7-1.304 31-.238 10.302-.832 20.701-.532 31 .045 1.562 2.015 1.649 2.555.346 3.088-7.455 5.128-14.538 5.74-22.614.663-8.743.752-17.633.944-26.397.015-.686-1.02-.823-1.189-.161-4.08 15.927.881 33.28-7.873 48.171l2.424.656c2.063-22.483.503-45.22 2.71-67.726 1.044-10.646 2.092-21.241 1.811-31.955-.044-1.684.987-11.196-1.059-11.999-.079-.031-.162.01-.221.059-.453.365-.291.229-.694.866-.103.165.155.371.278.212z"/><linearGradient id="r" gradientUnits="userSpaceOnUse" x1="899.946" y1="1192.51" x2="923.958" y2="1040.904"><stop offset="0" style="stop-color:#59391d"/><stop offset=".342" style="stop-color:#613f22"/><stop offset=".871" style="stop-color:#77502f"/><stop offset="1" style="stop-color:#7d5533"/></linearGradient><path fill="url(#r)" d="M911.064 1039.405c-5.01 31.048-4.857 62.882-3.024 94.234.566 9.691 2.444 19.304 3.288 28.978.773 8.858 2.313 22.034-3.221 29.765l1.892.247c-1.257-6.22-1.356-12.715.621-18.795l-1.938-.263c.609 5.545-.073 11.153.655 16.666.044.334.589.494.652.088.856-5.51 1.067-11.196.667-16.754-.081-1.118-1.57-1.334-1.938-.263-2.188 6.374-2.009 13.327-.713 19.871.15.757 1.225 1.006 1.73.457 5.981-6.512 5.61-16.354 5.308-24.628-.392-10.74-2.224-21.355-3.369-32.025-1.56-14.536-1.146-29.614-1.364-44.229-.262-17.579-.489-35.575 1.962-53.018.108-.781-1.079-1.132-1.208-.331z"/><path fill="#59391D" d="M924.001 1183.571c-.474 18.146-5.124 35.905-8.18 53.721-2.783 16.22-5.869 35.23.211 51.028.117.306.645.294.614-.083-.673-8.313-1.5-16.524-1.196-24.881.352-9.668 1.815-19.313 3.385-28.845 2.781-16.884 6.018-33.756 5.831-50.94-.005-.429-.653-.428-.665 0z"/><linearGradient id="s" gradientUnits="userSpaceOnUse" x1="767.236" y1="1022.284" x2="774.281" y2="977.803"><stop offset="0" style="stop-color:#59391d"/><stop offset=".342" style="stop-color:#613f22"/><stop offset=".871" style="stop-color:#77502f"/><stop offset="1" style="stop-color:#7d5533"/></linearGradient><path fill="url(#s)" d="M734.265 971.639c10.774 10.585 22.969 19.589 35.037 28.629 12.487 9.354 24.614 19.526 37.531 28.256.318.215.664-.261.402-.521-10.168-10.162-22.713-18.345-34.238-26.882-13.037-9.656-25.818-19.624-38.595-29.619-.096-.076-.23.047-.137.137z"/><path fill="#59391D" d="M802.417 1069.654c7.225-7.887 22.702.908 29.75 4.795 9.024 4.978 19.008 10.92 26.057 18.565.139.15.346-.068.221-.221-7.581-9.233-18.929-16.377-29.425-21.741-6.854-3.503-21.187-10.443-26.786-1.541-.072.114.092.241.183.143zM654.375 987.721c18.003-7.231 38.512 1.92 56.468 5.084 10.414 1.835 21.243 1.985 31.327 5.358 8.553 2.861 13.784 10.584 22.06 13.784.417.161.688-.51.301-.714-7.851-4.154-13.405-11.474-22.034-14.256-10.918-3.521-22.583-3.658-33.805-5.752-17.235-3.216-37.298-11.548-54.438-3.79-.16.073-.043.353.121.286zM694.567 888.357c2.603 14.23 9.9 26.743 18.578 38.116 8.604 11.275 18.8 22.43 30.315 30.785.388.282.811-.32.497-.644-19.445-20.055-42.634-39.68-48.524-68.496-.117-.571-.969-.325-.866.239zM956.868 1225.534c-8.813 64.142-10.328 128.934-10.342 193.598-.007 32.617.525 65.231.881 97.846.357 32.673.132 65.349 1.159 98.011.911 28.965 2.343 57.911 2.94 86.886.615 29.887.254 59.805.257 89.696.001 9.823-.232 19.578.827 29.352.988 9.119 2.267 18.201 3.111 27.336.815 8.817 1.293 17.76.402 26.589-.399 3.953-1.256 7.938-2.91 11.563-.74 1.623-1.759 3.079-2.977 4.377-1.175 1.252-.282 5.228-.221 6.783l1.714-.71c-10.052-12.203-14.159-28.611-16.785-43.886-3.256-18.941-3.842-38.279-3.67-57.46.312-34.676 4.45-69.267 4.135-103.944-.004-.504-.775-.504-.781 0-.464 35.611-5.134 71.031-5.352 106.685-.204 33.367 1.05 71.444 20.875 99.822.567.812 1.83.531 1.872-.507.11-2.768-.234-4.998 1.462-7.207 1.018-1.326 1.735-2.869 2.381-4.398 1.49-3.529 2.138-7.339 2.612-11.118 1.262-10.048.341-20.369-.662-30.396-.949-9.482-2.377-18.913-3.226-28.405-1.195-13.367-.335-27.065-.333-40.475.003-33.133.148-66.247-.939-99.367-1.08-32.91-2.744-65.802-3.013-98.734-.958-117.213-5.556-235.107 6.85-351.898.018-.156-.246-.192-.267-.039z"/><path fill="#7D5533" d="M918.902 1337.57c-1.25 65.905-3.849 131.77-6.118 197.645-1.133 32.91-2.158 65.826-2.736 98.752-.58 33.008-.191 66.021-1.462 99.016-1.784 46.306-4.974 93.031-11.64 138.91-2.369 16.302-4.916 33.021-2.665 49.477.822 6.016 3.101 12.444 6.941 17.223 2.397 2.984 1.517 10.212 1.859 13.977.396 4.339 1.134 8.647 1.353 13.002.037.727 1.12.733 1.133 0 .096-5.365-.565-10.705-1.145-16.029a133.187 133.187 0 0 1-.679-8.676c-.094-2.183-1.219-2.971-2.41-4.854-5.331-8.429-5.317-20.529-5.094-30.129.531-22.756 5.326-45.511 7.631-68.147 3.346-32.868 5.89-65.816 7.328-98.824 1.437-32.989 1.064-65.994 1.547-99.003 1.472-100.785 8.187-201.516 6.353-302.338-.003-.128-.193-.128-.196-.002zM907.156 1957.57c.004-.369-.149-1.218.026-1.557.125-.242-.24-.457-.365-.214-.548 1.059-.189 2.869-.171 4.016.03 1.92.085 3.836.159 5.755.01.252.381.252.391 0 .073-1.919.129-3.835.159-5.755.018-1.146.376-2.957-.171-4.016-.125-.243-.49-.028-.365.214.175.339.022 1.188.026 1.557.001.201.309.201.311 0z"/><path opacity=".45" fill="#C19864" d="M980.981 1161.565c-7.347 19.156-18.167 36.947-23.102 57.002-2.684 10.91-2.085 22.302-1.709 33.441.427 12.632.838 25.002-1.265 37.535-.021.123.167.177.188.053 1.864-10.609 2.001-21.283 2.011-32.026.011-12.304-1.16-24.909 1.405-37.035 4.385-20.726 15.46-39.146 22.508-58.96.01-.024-.027-.033-.036-.01z"/><linearGradient id="t" gradientUnits="userSpaceOnUse" x1="926.949" y1="1288.002" x2="936.908" y2="1478.041"><stop offset="0" style="stop-color:#c19864"/><stop offset=".007" style="stop-color:#c09763"/><stop offset=".263" style="stop-color:#a37a4e"/><stop offset=".516" style="stop-color:#8e663f"/><stop offset=".764" style="stop-color:#815936"/><stop offset="1" style="stop-color:#7d5533"/></linearGradient><path fill="url(#t)" d="M936.902 1287.57c1.672 38.406-8.971 152.771-10.139 191-.015.483.569-76.529.607-77 3.104-37.963 11.682-75.753 9.727-114-.006-.125-.2-.126-.195 0z"/><linearGradient id="u" gradientUnits="userSpaceOnUse" x1="891.44" y1="1230.48" x2="912.221" y2="1627.012"><stop offset="0" style="stop-color:#c19864"/><stop offset=".007" style="stop-color:#c09763"/><stop offset=".263" style="stop-color:#a37a4e"/><stop offset=".516" style="stop-color:#8e663f"/><stop offset=".764" style="stop-color:#815936"/><stop offset="1" style="stop-color:#7d5533"/></linearGradient><path fill="url(#u)" d="M910.887 1229.539c-7.907 28.356-8.747 58.351-8.914 87.606-.174 30.378.835 60.804-1.716 91.115-5.479 65.108-3.351 130.394-6.509 195.597-.383 7.906-.801 15.81-1.217 23.713-.032.614.872.587.938 0 7.259-65.063 3.649-130.923 7.521-196.204.919-15.488 2.502-30.905 2.988-46.42.477-15.236.311-30.487.181-45.728-.265-30.834-.284-61.614 3.925-92.222.803-5.833 1.897-11.619 3.029-17.396.029-.145-.185-.208-.226-.061z"/><linearGradient id="v" gradientUnits="userSpaceOnUse" x1="950.302" y1="1547.846" x2="915.553" y2="1795.093"><stop offset="0" style="stop-color:#c19864"/><stop offset=".007" style="stop-color:#c09763"/><stop offset=".263" style="stop-color:#a37a4e"/><stop offset=".516" style="stop-color:#8e663f"/><stop offset=".764" style="stop-color:#815936"/><stop offset="1" style="stop-color:#7d5533"/></linearGradient><path opacity=".46" fill="url(#v)" d="M930.43 1722.425c2.872-21.151 8.401-43.57 4.995-64.973-.058-.363-.657-.444-.805-.105-2.786 6.385-5.998 12.551-8.557 19.012 1.097-20.874 2.058-41.716 3.609-62.578 1.69-22.741 3.035-45.413 1.778-68.211-.032-.574-.916-.582-.898 0 .649 22.101-.97 44.271-2.717 66.289-1.829 23.056-4.756 46.556-3.621 69.711.042.854 1.354 1.113 1.546.209 1.688-7.922 4.966-15.164 8.678-22.323.543-1.048.251 2.94.25 2.914.05 1.591.041 3.184.031 4.774a177.626 177.626 0 0 1-.336 9.486c-.812 13.595-3.229 27.06-5.259 40.508-4.128 27.342-5.303 54.515 5.613 80.504.132.314.642.198.527-.145-8.197-24.665-8.295-49.58-4.834-75.072z"/><path fill="#7D5533" d="M944.688 1459.57c3.873 31.117-.209 62.637-2.093 93.74-1.962 32.396.11 65.002 1.862 97.365 1.782 32.937 3.291 65.789 3.564 98.775.266 32.128 3.056 64.189 2.529 96.334-.117 7.153-.769 14.255-.614 21.414.155 7.198.72 14.377 1.19 21.559.928 14.17 1.62 28.938-3.174 42.54-1.017 2.885-2.457 5.595-4.13 8.146-1.292 1.97-1.966-1.079-2.63-2.35-1.188-2.272-2.127-4.667-3.004-7.072-3.055-8.38-3.991-17.406-4.147-26.267-.309-17.477 3.155-34.9 5.271-52.186.043-.349-.563-.43-.614-.083-4.374 29.528-12.553 62.992 3.778 90.389.255.427.777.35 1.046 0 5.888-7.66 7.813-17.178 8.72-26.603 1.114-11.572.476-23.286-.028-34.873-.506-11.639-.333-22.977.015-34.615.481-16.067.132-32.071-.531-48.129-1.344-32.521-1.417-65.05-2.691-97.568-1.292-32.951-3.595-65.855-4.497-98.823-.663-24.255.302-48.191 2.088-72.375 1.719-23.265 2.847-46.328-1.298-69.402-.061-.344-.656-.266-.612.084zM914.95 1913.57v34c0 .064.1.064.1 0v-34c0-.065-.1-.065-.1 0zM963.273 1963.57c.534-24.747 1.043-49.417 4.156-74 .061-.481-.75-.586-.844-.114-4.824 24.319-4.389 49.45-3.859 74.114.008.352.54.352.547 0zM904.266 849.772c.544 2.597.132 5.442.481 8.17.577 4.493.962 9.011 1.311 13.527.937 12.136 1.351 24.304 1.603 36.471.261 12.606.127 25.218-.463 37.813a305.147 305.147 0 0 1-1.278 16.819c-.438 4.278-1.638 8.716-1.662 12.997-.004.745 1.008 1.005 1.383.375 2.049-3.445 2.49-8.138 3.186-12.025.938-5.246 1.344-10.597 1.731-15.905.97-13.325 1.013-26.721.805-40.073a565.785 565.785 0 0 0-1.836-37.439c-.363-4.426-.803-8.847-1.39-13.249-.397-2.982-1.462-5.143-2.402-7.885-.319-.93-1.672-.559-1.469.404zM922.531 947.57c1.188 52.193-6.449 103.952-8.195 156-.029.877 1.228.825 1.328 0 6.273-51.721 10.292-103.931 7.805-156-.029-.601-.951-.607-.938 0z"/><linearGradient id="w" gradientUnits="userSpaceOnUse" x1="899.928" y1="896.23" x2="926.217" y2="143.407"><stop offset=".212" style="stop-color:#156823"/><stop offset=".608" style="stop-color:#1b7831"/><stop offset="1" style="stop-color:#238c43"/></linearGradient><path fill="url(#w)" d="M1558.1 693.207c-3.214-2.761-6.906-4.92-9.935-7.735-.056-.226-.134-.5-.263-.878-.443-1.299-.771-2.642-1.098-3.973-.607-2.481-.643-4.977-.555-7.52.369-10.742 5.544-21.54 7.682-32.025 2.859-14.02 3.256-27.993 1.302-42.144-3.31-23.97-15.294-46.212-36.753-58.181-8.474-4.727-17.739-7.817-26.341-12.288-7.94-4.127-12.286-9.268-14.712-17.884-2.841-10.087-3.535-20.707-5.658-30.952-2.4-11.587-7.142-21.432-14.457-30.67-12.499-15.785-29.867-29.544-49.75-30.226 3.223-13.353 4.792-27.106 2.706-40.77-2.919-19.122-13.539-35.892-28.338-48.108-14.198-11.722-31.036-21.004-49.281-24.355-14.281-2.624-28.006-.913-40.499 4.848-16.219-63.976-106.583-105.136-160.949-62.024-3.891 3.084-7.404 6.671-10.545 10.574-4.691-7.502-10.789-14.226-17.188-20.053-13.487-12.283-29.443-21.427-46.381-28.028-19.256-7.504-41.654-10.565-61.021-4.927.282-7.384-1.631-14.812-6.675-21.79-12.169-16.835-35.67-24.932-55.869-24.768-14.63.118-27.841 3.975-39.531 10.462-12.852-17.494-35.5-27.289-57.004-29.351-28.331-2.717-56.911 9.567-69.347 34.904-20.442-6.744-42.332-5.592-62.047 4.332-19.422 9.776-32.209 27.586-37.817 47.896-21.767-4.38-43.548 1.627-60.421 17.091-15.208 13.937-24.317 34.156-27.054 54.632-24.387-4.429-50.045 4.225-68.835 20.242-10.424 8.885-18.302 21.016-21.999 34.202-2.65 9.456-2.574 19.126-.483 28.44-7.373-1.018-14.755-1.881-22.226-1.467-13.993.776-25.533 6.876-33.69 18.299-9.753 13.657-8.977 30.271-1.684 43.844-8.733-1.851-17.443-3.919-26.34-4.752-17.568-1.645-34.374 4.319-47.762 15.522-17.283 14.463-33.47 41.783-28.78 65.38-30.303-1.783-64.438 3.712-76.73 34.434-7.533 18.826-3.187 39.519 11.095 53.655 8.155 8.072 18.272 13.6 28.739 18.311-8.953 6.019-17.743 12.393-24.618 20.501-11.488 13.55-14.349 30.637-13.835 47.961.325 10.976 1.729 22.131 3.637 32.934 1.87 10.588 5.344 21.21 11.446 30.141a50.14 50.14 0 0 0 5.59 6.803c-6.564 13.303-10.01 27.965-10.37 43.104-.417 17.563 6.555 32.926 20.474 43.573 3.944 3.018 8.305 5.452 12.902 7.458.018.357.031.716.052 1.072.172 2.973.428 5.978.77 8.998a205.555 205.555 0 0 0 8.858-10.581c6.581 3.564 12.324 8.549 18.72 12.44 9.725 5.917 21.282 7.867 32.521 7.154 19.201-1.218 34.163-11.86 45.514-26.232 17.458 14.244 42.369 9.964 62.547.268 12.425-5.97 23.919-14.533 33.437-24.48 5.021-5.248 9.884-11.38 13.285-18.103 5.698 5.135 12.257 9.122 20.022 11.101 10.55 2.689 21.424.444 30.941-4.444 18.438-9.471 30.288-29.308 34.14-49.395 25.55-.196 50.897-11.043 68.236-29.91.365-.397.716-.803 1.071-1.207 12.787 3.893 26.159 5.234 39.776 3.021.313 11.975-.792 24.171 8.335 34.098 5.774 6.279 13.92 8.131 22.104 7.635 2.508-.152 5.257-.59 7.55.533 3.011 1.476 4.244 2.678 6.398 4.502 8.621 7.3 16.419 16.726 27.794 19.682 10.166 2.642 18.794-1.825 25.807-8.477 2.162 3.982 4.907 7.605 8.441 10.489 6.685 5.454 14.833 7.728 23.402 7.471 16.509-.496 31.846-8.604 47.038-14.176 3.125-1.146 6.293-2.171 9.531-2.945a42.927 42.927 0 0 1 2.163-.442l.078-.015.303-.026c1.765-.166 3.573-.041 5.333.105 7.989.664 17.259 9.421 24.153 13.851 10.346 6.648 21.019 9.771 33.319 8.995 13.182-.832 26.244-4.69 37.175-12.215a60.417 60.417 0 0 0 5.17-4.018c15.973 12.491 37.447 16.695 57.247 11.679 19.272-4.882 33.129-19.144 38.311-37.255 6.188 2.219 12.765 2.91 19.609 1.647 9.605-1.772 17.944-8.785 23.904-16.169 1.962-2.432 3.777-4.984 5.481-7.617 1.167 8.56 4.672 16.797 10.75 23.021 5.631 5.767 13.106 8.839 20.898 10.388-3.313 10.323-4.083 21.023 1.274 31.303 5.679 10.897 17.606 17.715 27.525 24.188 12.737 8.313 23.563 18.608 38.123 23.883 13.871 5.025 27.408 1.679 39.219-5.591 16.31 17.126 38.28 27.021 62.416 22.427 12.67-2.411 25.504-9.536 34.452-18.749 6.566-6.76 11.929-17.981 21.174-21.466 4.306-1.623 7.01-.777 11.137.828 5.475 2.13 10.645 4.969 16.17 7.011 12.118 4.48 25.138 2.265 36.401-3.572 9.655-5.003 16.411-14.193 24.299-21.389 3.755-3.426 8.056-6.241 12.382-8.896 3.364-2.064 3.279-2.129 7.396-2.932.266-.048.533-.088.8-.132-.124.031 1.625-.215 1.709-.225 2.178-.253 4.357-.489 6.533-.753 4.203-.51 8.261-1.127 12.288-2.101a71.953 71.953 0 0 0-1.902-.544 77.544 77.544 0 0 0-8.757-1.811c9.182-5.078 17.58-11.483 24.71-19.549 15.257-17.257 21.917-40.348 24.419-62.854 1.404-12.634-.682-25.602-10.684-34.193z"/><linearGradient id="x" gradientUnits="userSpaceOnUse" x1="853.646" y1="190.106" x2="935.183" y2="965.871"><stop offset="0" style="stop-color:#4aa346"/><stop offset="1" style="stop-color:#238c43"/></linearGradient><path fill="url(#x)" d="M1537.19 852.225c-9.161-11.237-22.203-19.722-34.996-26.237-7.161-3.648-15.732-7.724-24.389-9.769 10.077-7.936 18.628-17.379 26.577-27.955 11.535-15.348 21.339-32.981 25.472-51.871 3.525-16.115-.17-32.215-13.271-42.854-5.646-4.584-11.985-7.899-18.595-10.796 11.201-10.485 17.924-25.679 20.889-40.5 3.521-17.603.239-36.956-8.497-52.585-14.401-25.766-43.205-35.586-70.799-40.208-.122-25.649-5.09-53.63-22.683-72.94-8.902-9.771-21.385-14.952-34.465-15.458a47.672 47.672 0 0 0-3.964.034c6.317-22.863 11.119-47.497 6.195-70.808-4.497-21.293-19.093-41.176-39.364-49.521-17.5-7.205-37.815-5.251-55.218 1.221a121.737 121.737 0 0 0-9.706 4.11c.1-17.565-7.222-35.252-18.542-48.364-15.113-17.505-40.459-28.611-63.407-28.901-21.567-.272-41.112 10.743-55.636 26.032-6.601 6.948-12.189 14.955-17.031 23.244-3.595-9.488-5.602-19.399-10.078-28.614-4.553-9.373-10.331-19.146-18.645-25.666-14.198-11.134-35.249-13.701-52.675-12.866-14.33.686-28.6 3.975-41.869 9.53-2.926-11.798-9.25-22.522-19.721-29.678-12.735-8.703-27.464-6.604-40.088.059-.431-5.618-2.303-11.095-6.11-16.114-8.393-11.067-21.944-17.207-35.14-20.393-10.191-2.461-21.719-3.172-30.652 3.246-3.898 2.801-7.096 6.388-9.933 10.302-3.529-7.234-9.599-12.801-18.814-14.663-14.62-2.954-30.182 2.777-42.831 9.737-6.526 3.591-12.133 8.29-17.904 12.939-.066.053-.129.108-.195.162-6.151-3.825-13.385-5.965-20.985-6.285-15.017-.632-29.623 6.701-41.15 15.688-12.133 9.458-21.521 23.203-25.108 38.215-1.905 7.971-1.857 16.181-.232 24.186.239 1.177.541 2.458.911 3.788-8.41-7.355-19.791-11.398-30.978-9.728-10.229 1.526-18.493 8.144-24.545 16.221-11.16 14.895-16.229 34.402-18.247 53.049-19.976-5.446-41.728-3.406-56.533 12.82-14.528 15.924-17.374 38.63-15.198 59.486-24.428 3.689-48.122 18.449-62.914 37.685-7.515 9.773-11.479 21.951-9.102 34.197.258 1.329.607 2.62 1.03 3.876-19.146-4.804-40.016-3.797-53.736 11.021-11.688 12.624-12.768 30.358-8.038 46.258-25.682-8.824-58.426-6.122-74.782 15.713-11.681 15.594-9.484 34.154 4.055 47.693 2.084 2.084 4.366 3.942 6.763 5.641-18.51 2.367-34.516 19.333-41.424 36.852-7.889 20.009-8.987 50.235 8.196 66.052a27.436 27.436 0 0 0 6.079 4.221c-21.32 8.37-34.683 36.452-29.683 58.296 4.398 19.216 25.853 25.979 42.764 32.852-11.704 20.522-6.982 46.296 7.624 65.025 7.649 9.808 18.268 17.665 30.523 20.478 8.934 2.051 17.585.83 25.515-2.602 3.616 25.959 25.431 45.858 50.808 52.929 12.922 3.601 26.933 3.672 39.199-2.125 3.196-1.51 6.014-3.583 8.423-6.035a36.337 36.337 0 0 0 6.409 5.592c10.482 7.169 24.436 8.831 36.796 9.045 13.996.243 28.262-1.861 41.788-5.375 10.459-2.718 21.638-6.282 30.619-12.468 5.011-3.452 3.931-13.586-3.456-12.758-9.585 1.074-19.659.896-28.997-1.667-3.615-.992-7.545-2.899-8.988-5.067-.825-1.239-1.055-2.154-.865-3.542.408-3.002 1.817-5.632 3.347-8.194 3.257-5.455-3.3-12.324-8.822-8.822-8.539 5.415-19.906 9.384-28.248 1.501-7.401-6.994-6.737-17.111-6.665-26.477a5.503 5.503 0 0 0-.011-3.135l-.004-.25c-.039-1.775-1.293-2.729-2.66-2.786a4.855 4.855 0 0 0-.687-.25c-6.072-1.611-11.905-1.638-18.471-2.919-9.183-1.792-18.289-4.218-27.03-7.567-5.96-2.283-13.675-5.671-17.205-10.999-1.145-1.729-1.491-3.211-.55-5.34.448-1.013 1.024-1.922 1.662-2.781 16.438-5.625 25.887-19.986 39.75-29.538 7.786-5.365 16.645-6.676 25.892-6.019 9.504.675 18.531 1.716 27.648-1.886 19.869-7.849 28.499-29.777 36.994-48.146 14.149 10.286 31.163 14.319 48.55 9.744 17.294-4.551 32.201-16.121 43.904-29.533 11.557 14.989 29.858 21.284 49.045 21.251-.278 11.764 4.354 23.797 11.546 32.818 8.804 11.044 22.719 16.976 36.289 19.473 15.281 2.813 31.141 1.675 46.165-2.044 7.486-1.854 14.723-4.608 21.643-8a99.888 99.888 0 0 0 3.893-2.002c7.919 7.396 18.115 12.257 28.829 13.779 11.734 1.666 23.266-.542 33.847-5.781a53.52 53.52 0 0 0 6.559-3.883c16.671 14.99 39.736 22.568 62.189 19.316 9.648-1.397 18.76-5.559 26.351-11.619 2.941 2.786 6.604 4.822 10.973 5.837 10.479 2.435 21.364-1.248 30.796-5.603 10.7-4.942 20.423-12.125 28.99-20.165 5.65-5.303 11.206-11.572 14.722-18.68 13.631 7.929 28.433 7.369 41.489 1.479.709 3.59 2.021 6.889 3.904 10.126 4.395 7.552 11.773 13.105 19.362 17.164 3.954 2.114 8.396 3.922 13.084 5.312-2.095 13.298 4.321 26.923 13.51 36.346 9.939 10.193 24.433 14.957 38.231 16.568 14.545 1.698 29.393-1.364 42.463-7.779 5.135-2.52 9.867-5.8 14.113-9.622 2.784 14.059 18.447 24.256 32.188 27.788 14.527 3.734 33.896 2.886 46.238-6.886 5.278 13.217 16.028 22.853 31.03 25.884 13.171 2.661 27.043-.176 38.168-7.397 6.389 20.842 43.094 23.033 62.399 21.017 13.757-1.437 29.016-4.277 40.145-13.044 14.175-11.165 7.301-29.916-2.011-41.338z"/><path fill="#0F371E" d="M864.58 996.948c-3.784-8.276-6.253-17.203-7.613-26.159-1.565-10.316-1.161-22.876 7.306-30.161 2.338-2.012 1.798-6.567-1.019-7.904-20.525-9.747-9.504-37.608-3.206-53.29 1.143-2.845-1.757-6.37-4.692-6.159-7.202.518-14.954-.48-20.696-5.248-6.533-5.424-5.895-13.481-3.042-20.697 1.614-4.082-3.893-8.009-7.363-5.661-19.797 13.4-46.404 20.417-67.447 7.582a56.504 56.504 0 0 0-3.946-2.687 49.42 49.42 0 0 1-1.908-1.521c-.853-.718-1.767-1.01-2.636-1.015-.839-.42-1.69-.825-2.559-1.21-6.713-2.972-12.573 6.918-5.805 9.93 10.299 4.582 18.492 11.568 23.487 21.771 4.955 10.124 4.244 22.069.75 32.476-.921 2.744 1.035 6.409 3.948 6.954 15.512 2.903 48.629 19.479 31.2 38.532-4.832 5.281 1.182 12.057 7.251 9.398 3.155-1.382 8.157.669 11.458 2.4 6.253 3.278 11.63 8.048 16.658 12.939 7.799 7.587 15.526 16.407 20.896 26.101a96.767 96.767 0 0 0 2.216 4.344c3.398 6.263 12.159.769 9.363-5.473a76.403 76.403 0 0 0-2.601-5.242zM1083.929 870.063c-13.029-.254-15.877-12.487-14.728-23.407.369-3.514-4.537-6.401-7.396-4.244-12.331 9.306-25.488 29.42-39.472 14.696-1.405-1.48-6-3.333-10.329-5.827-.968-.801-3.46-.722-4.401-1.516-5.607-4.729-13.739 3.434-8.064 8.065 6.311 5.151 12.711 10.192 18.166 16.28 2.484 2.773 4.669 5.925 5.436 9.613.689 3.323-3.885 5.529-6.12 6.66-3.782 1.914-2.925 6.866 0 8.972 13.533 9.742 1.386 24.104-11.663 24.476-2.588.074-5.123 2.206-4.967 4.967 1.485 26.269-14.806 48.949-15.206 75-.085 5.495 8.571 8.532 10.97 2.971 9.224-21.392 27.399-36.896 38.616-57.116 3.546-6.393 6.038-13.75 10.63-19.508 5.448-6.83 14.143-9.067 22.457-10.147 4.372-.568 7.739-5.72 3.879-9.364-6.049-5.71-6.963-11.181-2.178-17.988 4.033-5.736 10.891-9.789 16.977-12.96 4.709-2.455 2.327-9.527-2.607-9.623z"/><radialGradient id="y" cx="915.043" cy="564.75" r="392.415" gradientTransform="matrix(1 0 0 .8 0 92.889)" gradientUnits="userSpaceOnUse"><stop offset=".503" style="stop-color:#95c83d"/><stop offset=".764" style="stop-color:#95c83d;stop-opacity:0"/></radialGradient><ellipse opacity=".36" fill="url(#y)" cx="915.043" cy="544.678" rx="515.99" ry="252.252"/><path fill="#4AA346" d="M565.429 726.936c.108-.388.206-.785.306-1.18 1.25-1.862 1.558-4.278 1.284-6.543-.84-6.944-11.415-7.32-11.504-.845-1.875 1.446-3.425 3.354-5.303 4.925-2.501 2.092-5.53 3.665-8.448 5.081-6.569 3.188-14.092 4.596-21.344 4.8-14.279.402-28.113-5.311-34.021-18.945-1.628-3.756-7.375-3.989-9.95-1.282-9.494 9.98-23.807 13.029-36.74 8.609-13.718-4.688-17.456-18.183-13.565-31.066 1.708-5.654-6.25-10.8-10.276-5.981-11.208 13.417-42.663 6.926-34.951-13.822 1.464-3.938-3.004-8.058-6.819-6.819-17.417 5.656-40.296 16.145-35.888 38.277 2.954 14.832 16.058 27.114 27.416 37.304-15.391 7.831-29.084 20.05-26.566 39.101 2.465 18.643 17.398 35.318 32.282 46.438-3.266 1.682-6.066 4.156-8.098 7.712-3.582 6.271-2.748 13.839.235 20.125 3.236 6.821 9.781 11.454 16.877 13.535 7.502 2.201 15.656.648 22.942-2.277-1.71 14.223 4.295 28.405 14.454 38.619 12.039 12.104 29.293 15.769 44.354 8.314 11.336 11.038 28.5 11.533 43.822 10.788 4.767-.231 6.169-7.468 1.164-8.599-17.244-3.894-35.114-13.616-41.83-30.803-.799-2.045-2.756-3.586-5.072-2.88-13.861 4.228-28.451-3.762-36.459-14.98-6.572-9.207-8.461-21.599 2.164-26.965 18.698 20.051 38.433-17.52 47.892-35.027 10.732 5.519 22.857 5.149 32.869-2.771 9.674-7.652 15.475-19.333 17.4-31.399 10.042.216 20.658-.816 28.956-6.814 9.953-7.195 14.246-19.851 14.971-31.64.111-1.824-1.137-2.83-2.554-2.99z"/><path fill="#238C43" d="M573.363 654.378c-12.276 19.177-37.192 18.411-43.808-5.598-9.01-32.781-18.662-10.922-38.759-9.26-31.171 2.58-27.446-29.521-45.565-34.257-8.151-2.131-16.932 11.81-25.59 13.337-10.354 1.827-13.663-2.202-22.729-5.768 5.37-2.199 8.393-5.779 9.066-10.739-4.801-8.15-22.794 15.085-20.281 23.348 5.875 19.307 31.251 15.744 44.826 9.003 1.552 16.446 14.196 28.066 28.95 33.56a71.057 71.057 0 0 0 24.615 4.308c22.876-.015 14.736-7.259 30.71 7.101 12.091 10.868 32.163 7.638 45.622 1.784 7.055-2.839 12.864-7.293 17.426-13.361 3.436-5.046 1.898-23.425-4.483-13.458-3.194 4.991 2.975-4.646 0 0z"/><path opacity=".5" fill="#238C43" d="M946.22 445.924c1.683.354 17.668 30.704 3.188 44.729-14.651 14.191-35.459-1.117-46.654 7.764-11.502 9.124 7.8 30.685-10.883 38.271-10.157 4.123-44.882-11.697-48.69.13-5.813 18.06-13.827 45.97-47.158 44.502-11.355-.5-26.645-4.854-39.772-28.604-9.618-17.4 5.334 28.006 9.25 32.604 25.803 30.291 77.667 9.253 95.833-22.083 19.323 6.73 50.838 7.093 61.352-12.264 4.797-9.414 6.915-19.395 6.351-29.944 7.533-1.621 14.357-4.771 20.474-9.452 20.292-15.676 31.635-58.32-3.291-65.653-4.012-.842 18.626 3.911 0 0z"/><path fill="#156823" d="M1073.785 715.947c-15.839 2.016-25.563 21.462-16.546 34.84 1.451 2.154 3.552 2.94 6.079 2.474 8.069-1.49.606-11.244.557-15.458-.083-7.134 8.102-11.636 12.22-16.282 1.659-1.872.772-5.966-2.31-5.574z"/><path fill="#238C43" d="M1248.86 748.564c-1.103-4.631-22.744 21.08-31.392 23.917-21.835 7.164-32.246-19.142-51.328-18.265-12.846-8.769-32.583 29.191-49.105 5.097-4.202-6.124 3.312-11.326.829-17.681-3.887-9.95-25.299.794-33.487-.564-16.39-2.719 17.623-64.833-35.71-14.625-18.021 16.965 27.086 38.675 34 47.459 23.673 30.065 69.416 3.241 91.742 17.271 26.65 16.748 83.462-4.737 74.451-42.609-.827-3.474 2.463 10.352 0 0z"/><radialGradient id="z" cx="981.043" cy="552.716" r="412.127" gradientTransform="matrix(.2079 -.9781 1.9563 .4158 -304.204 1282.489)" gradientUnits="userSpaceOnUse"><stop offset="0" style="stop-color:#95c83d"/><stop offset=".382" style="stop-color:#72b741"/><stop offset=".776" style="stop-color:#55a845"/><stop offset="1" style="stop-color:#4aa346"/></radialGradient><path fill="url(#z)" fill-opacity=".81" d="M1472.184 719.252c-5.708-4.254-12.117-6.414-19.228-6.479 16.376-31.552 28.063-67.132-17.774-76.173 19.001-34.225-14.746-67.782-49.097-64.411 4.037-21.632 18.905-46.33 4.615-67.367-12.63-18.592-37.726-21.506-58.149-18.157 7.737-21.721-7.4-42.949-23.706-55.847-15.111-11.954-50.03-13.812-54.087-28.083-12.275-43.188-53.064-65.106-95.793-50.605-1.961-25.446-24.587-43.592-47.679-50.13-19.032-5.389-62.378-3.386-67.131 23.203-23.536-48.886-89.911-90.797-134.79-43.735-21.061-29.593-82.021-34.659-96.963 4.063-36.653-23.153-89.673 29.812-93.484 64.316-40.019-9.859-82.686 12.313-68.987 60.559-47.487-9.318-85.837 15.967-92.613 63.818-40.245-21.498-78.539 27.595-51.169 62.451-19.714 2.895-37.956 20.492-21.429 39.484 13.126 15.085 40.944 16.284 59.082 14.38-2.268 31.371 23.101 44.287 51.006 34.95-2.752 18.649-2.562 35.7 12.375 49.281 13.927 12.663 38.042 18.818 52.425 3.364 20.231 41.696 83.816 45.487 103.359.851 7.33-16.741 5.994-37.529-11.009-47.722 18.409-24.533-7.097-43.883-29.47-50.042 7.872-21.62 16.101-42.403 3.03-64.227 27.585 9.225 59.428 47.195 84.232-16.174 16.579 29.833 64 17.726 60.612-34.632-1.125-17.392 12.816 21.031 49.388 9.632 34.571-10.775 5.654-45.151 11.953-58.155 13.179 12.489 33.628 13.369 50.414 9.753-1.255 17.949 12.061 30.99 27.869 36.612-70.986 20.54 29.514 37.79-35.236 47.04-19.347 2.764-26.635 27.658-24.25 47.75-22.668-7.759-32.433 11.13-41.849 31-6.425 13.56-28.561-.181-43.4 2.75-33.251 6.567-28.197 28.484-36.917 40-16.69 22.042-48.586-1.458-54 45.273-3.106 26.818 31.85 58.994 61.366 58.585 19.49-.27 6.675.8 18.217 13.552 7.866 8.691 21.369 14.833 32.917 15.989 14.814 1.482 28.788-5.186 40.355-13.797 14.844-11.052 17.766 4.236 32.199 12.988 24.362 14.773 53.183 3.955 60.437-24.085a136.759 136.759 0 0 0 2.84-27.76 55.736 55.736 0 0 0 18.078-10.28c9.159-7.485 17.119-16.956 23.496-26.894 6.766 10.095 17.631 21.327 30.159 23.608 19.651 3.579 6.715 7.487 18.831 22.438 20.355 25.118 48.312 12.637 66.759-6.631 9.554 19.007 28.688 27.823 47.476 15.44 5.641-3.718 10.558-15.006 16.621-10.505 7.19 5.338 17.077 9.787 26.207 9.349-6.329 14.937-8.834 33.065-4.713 48.937-15.987 10.99-14.858 32.574 2.963 40.08 16.718 7.041 40.051 4.847 57.166.156 3.313 18.8 22.372 28.724 40.277 26.744 6.01-.648 11.574-2.578 16.694-5.789 13.706-8.802 7.911.516 22.521 5.833 19 6.915 48.337-7.485 51.338-28.486.901-6.985-.913-13.158-5.444-18.518 7.745-3.788 14.498-9.783 19.782-16.538 12.749-16.296 20.648-48.002 1.308-63.007-5.76-4.469 8.522 6.612 0 0zm-204.588 82.194c0 .013 0 .041 0 0 0 .001 0 .008 0 0z"/><path fill="#238C43" d="M1402.456 984.272c-2.245-13.64-17.082-20.214-29.031-22.807a211.447 211.447 0 0 0-11.484-2.177c-3.978-3.151-8.213-6.043-12.827-7.805-7.829-2.988-16.172-4.396-24.473-5.252-18.516-1.91-37.396.89-55.487 4.746-35.556 7.577-69.542 22-102.807 36.365-3.367 1.454-3.864 6.966-1.192 9.25 2.363 2.02 4.863 4.308 4.056 7.652-.858 3.553-4.474 6.604-7.229 8.71-7.131 5.447-15.829 9.375-24.545 11.436-5.384 1.272-5.61 9.952 0 11.074 8.335 1.667 14.427 7.835 21.566 11.987 9.294 5.404 19.904 3.194 29.96 2.153 19.697-2.038 35.471 14.054 49.298 25.667 4.024 3.38 10.087 1.254 10.316-4.273.506-12.14 4.144-22.633 15.326-27.291 11.59-4.828 25.04-4.204 37.341-4.156 11.453.044 24.035.898 35.003-3.014 9.161-3.268 14.537-10.44 15.755-19.286 11.099.891 22.322-1.715 32.34-6.61 9.858-4.818 20.088-14.375 18.114-26.369zM735.37 1041.46c-4.148-2.77-8.834-4.748-13.518-6.407-6.463-2.29-14.081-3.029-21.208-2.103-.049-1-.164-1.971-.411-2.868-.97-3.527-5.286-5.424-8.347-6.786-6.195-2.758-12.943-3.518-19.67-3.309-15.006.468-29.479 5.652-44.216 7.99-13.767 2.184-27.102-2.679-40.873.156-5.085 1.047-9.375 3.111-13.631 5.721-3.214-1.485-5.139-4.411-4.342-9.64.675-4.424-3.461-8.701-7.91-6.081-9.683 5.702-19.854 14.516-24.667 24.854-2.158 4.635-2.926 10.113-.003 14.587.355 4.866 2.807 9.458 7.535 12.203 8.401 4.878 20.289 3.276 29.305 1.501 11.194-2.204 22.133-5.737 32.888-9.493 1.519-.53 3.159-1.023 4.846-1.526 3.808-.733 7.604-1.5 11.378-2.264 5.694-1.152 11.331-2.688 16.981-4.036 2.053-.49 4.108-1.026 6.185-1.405.459 10.934 1.945 22.631 9.833 30.73 6.611 6.789 16.511 6.764 25.029 4.356 10.567-2.985 20.153-9.279 29.203-15.301 8.958-5.96 10.149-9.455 18.576-16.104l15.781-6.461c-2.887-3.167-5.123-5.896-8.744-8.314zm-176.543-8.693c.152-.12.306-.234.458-.353.093.319.201.632.31.945a6.037 6.037 0 0 0-.768-.592zM1489.51 988.996c-1.908.004 26.412 7.463 15.282-4.126-11.824-12.314-12.339-39.365-33.165-42.412-11.639-1.702-26.792 11.869-25.25 23.828 2.757 21.385 24.936 22.766 43.133 22.71.658-.003-9.31.028 0 0z"/><path fill="#156823" d="M1458.25 986.833c13.498 5.599 28.799 5.249 42.888 8.591 3.288.782 6.618 2.425 9.954 2.813.258.032.5.003.716-.073.427.12.867.189 1.32.193.946.011 1.585-1.003 1.332-1.863-.693-2.365-2.748-4.134-4.195-6.061-1.873-2.494-3.488-5.178-5.047-7.874-3.643-6.304-6.894-12.825-10.538-19.13-5.971-10.334-14.807-24.37-28.486-23.749-2.941.134-5.724 1.081-8.362 2.324-2.555 1.205-6.038 3.167-7.913 5.642-1.781-.523-3.789-1.087-5.579-.743-1.53.294-1.35 2.304-.298 2.985.699.452 1.545.724 2.417.942l-.063.153c-2.57 7.371-4.192 16.198-1.197 23.704 2.342 5.873 7.338 9.777 13.051 12.146zm-4.639-9.059c-4.607-4.373-5.015-11.015-4.012-17.034.475-2.853 1.275-5.656 2.111-8.421 1.125.38 2.24.784 3.346 1.227a71.768 71.768 0 0 1 11.186 5.691c3.606 2.249 7 4.855 10.218 7.631 1.64 1.414 3.151 2.948 4.673 4.486 1.372 1.387 2.757 2.976 4.527 3.844 1.086.534 2.033-.425 1.841-1.51-.683-3.864-4.663-7.173-7.413-9.679-3.439-3.136-7.272-5.791-11.271-8.16a83.218 83.218 0 0 0-12.469-6.066c-.329-.128-.662-.249-.994-.372.408-.311.813-.618 1.223-.901 1.49-1.037 3.088-1.96 4.773-2.643 2.548-1.034 5.293-1.483 8.016-1.009 5.574.971 10.045 5.448 13.451 9.734 8.85 11.141 13.887 24.696 21.814 36.429.238.35.487.727.749 1.115-.838-.271-1.665-.518-2.44-.759-3.538-1.104-7.168-1.941-10.813-2.598-7.358-1.322-14.795-2.189-22.101-3.793-5.81-1.274-12.057-3.071-16.415-7.212z"/><path fill="#95C83D" d="M1168.42 726.985c-1.607-.689 19.494 15.888 14.354 2.092-5.464-14.658 3.948-37.593-12.457-47.732-9.17-5.668-26.849.231-29.904 10.849-5.464 18.986 12.684 28.218 28.007 34.791.555.238-7.839-3.362 0 0z"/><path fill="#4AA346" d="M1142.92 713.792c9.313 9.62 22.307 14.894 32.938 22.832 2.48 1.853 4.684 4.447 7.347 5.988.206.119.42.183.63.199.314.255.659.474 1.039.644.793.353 1.698-.268 1.799-1.083.277-2.242-.806-4.475-1.323-6.625-.666-2.777-1.049-5.622-1.378-8.456-.771-6.626-1.132-13.293-1.9-19.921-1.261-10.864-3.584-25.883-15.313-30.338-2.521-.958-5.207-1.173-7.879-1.087-2.586.083-6.229.465-8.705 1.864-1.309-1.087-2.793-2.293-4.422-2.655-1.395-.31-1.975 1.447-1.337 2.403.423.633 1.036 1.17 1.688 1.67-.035.036-.072.069-.107.106-4.846 5.262-9.42 12.096-9.633 19.498-.167 5.79 2.613 10.889 6.556 14.961zm-.607-9.306c-2.282-5.354-.207-11.088 2.825-15.784 1.438-2.226 3.133-4.292 4.841-6.313a58.388 58.388 0 0 1 2.367 2.25 65.72 65.72 0 0 1 7.334 8.855c2.216 3.204 4.12 6.631 5.816 10.136.863 1.785 1.578 3.626 2.298 5.472.648 1.666 1.234 3.507 2.407 4.881.72.845 1.866.383 2.099-.599.832-3.499-1.312-7.73-2.712-10.838-1.753-3.888-4.009-7.516-6.51-10.963a76.018 76.018 0 0 0-8.278-9.638c-.23-.228-.466-.45-.7-.674.456-.113.909-.224 1.356-.313 1.63-.329 3.31-.524 4.974-.486 2.52.058 4.991.68 7.109 2.069 4.334 2.845 6.466 8.236 7.77 13.08 3.389 12.589 2.691 25.821 5.09 38.573.071.381.144.788.224 1.21-.608-.533-1.214-1.042-1.776-1.526-2.575-2.215-5.321-4.242-8.149-6.12-5.705-3.789-11.645-7.224-17.203-11.231-4.423-3.188-9.022-6.973-11.182-12.041z"/><path fill="#95C83D" d="M1096.35 724.768c1.803-.251-23.936 10.613-14.99-1.834 9.507-13.224 6.34-38.839 25.597-44.526 10.764-3.18 26.902 7.592 27.061 19.094.282 20.568-20.476 24.865-37.668 27.266-.622.087 8.794-1.228 0 0z"/><path fill="#4AA346" d="M1136.265 705.276c1.814-7.492-.906-15.609-4.329-22.223-.026-.047-.055-.091-.08-.136.792-.325 1.556-.695 2.154-1.214.902-.787.801-2.709-.684-2.78-1.736-.083-3.558.721-5.169 1.454-2.104-2.083-5.658-3.466-8.233-4.259-2.659-.818-5.415-1.337-8.21-1.067-13.004 1.259-19.454 15.707-23.697 26.272-2.59 6.446-4.779 13.043-7.371 19.487-1.107 2.757-2.271 5.509-3.701 8.115-1.109 2.019-2.81 3.963-3.146 6.291-.123.847.617 1.718 1.51 1.582a4.842 4.842 0 0 0 1.22-.361c.215.041.448.036.687-.028 3.099-.818 6.022-2.819 9.021-4 12.854-5.058 27.35-6.792 39.341-13.902 5.075-3.008 9.266-7.367 10.687-13.231zm-22.058 13.081c-6.682 2.501-13.589 4.324-20.356 6.565-3.355 1.11-6.67 2.393-9.863 3.912-.698.332-1.445.677-2.202 1.046l.556-1.154c5.904-12.15 8.832-25.631 15.687-37.347 2.637-4.507 6.257-9.338 11.39-11.007 2.508-.815 5.161-.761 7.707-.129 1.683.417 3.314 1.075 4.863 1.852.424.212.848.448 1.275.687-.296.161-.595.319-.889.485a79.336 79.336 0 0 0-10.956 7.411c-3.456 2.776-6.717 5.802-9.543 9.226-2.259 2.738-5.571 6.4-5.695 10.142-.035 1.049.989 1.829 1.944 1.177 1.554-1.059 2.647-2.747 3.756-4.242 1.229-1.657 2.45-3.31 3.807-4.866 2.665-3.055 5.518-5.975 8.621-8.586a68.397 68.397 0 0 1 9.794-6.883c.984-.567 1.983-1.1 2.994-1.61 1.161 2.499 2.297 5.037 3.131 7.667 1.758 5.548 2.271 11.875-1.489 16.627-3.559 4.495-9.217 7.036-14.532 9.027z"/><path fill="#238C43" d="M707.978 1150.042c1.683-.514-16.978 13.86-10.02-3.146 5.96-14.569 5.376-35.993 17.658-46.393 8.278-7.01 26.833 3.153 28.734 14.107 3.398 19.59-15.761 26.849-31.805 31.755-.581.178 3.64 1.168-4.567 3.677z"/><path fill="#156823" d="M747.677 1121.69c.593-7.426-3.239-14.761-7.513-20.553-.032-.041-.065-.079-.097-.118.708-.429 1.379-.899 1.871-1.487.742-.887.354-2.707-1.075-2.549-1.669.184-3.285 1.229-4.712 2.174-2.325-1.669-5.928-2.447-8.506-2.813-2.662-.376-5.372-.453-7.999.23-12.219 3.18-16.179 17.951-18.622 28.682-1.491 6.546-2.578 13.176-4.071 19.721-.638 2.801-1.33 5.604-2.298 8.31-.751 2.095-2.079 4.21-2.045 6.482.012.828.85 1.547 1.681 1.28.399-.129.768-.31 1.11-.53.211.007.432-.034.651-.131 2.832-1.252 5.318-3.607 8.002-5.19 11.5-6.782 25.072-10.644 35.436-19.253 4.386-3.644 7.723-8.443 8.187-14.255zm-19.063 15.841c-5.998 3.403-12.312 6.194-18.432 9.362-3.034 1.57-6.002 3.298-8.818 5.234-.617.423-1.278.865-1.944 1.333.126-.414.244-.813.357-1.187 3.786-12.495 4.53-25.808 9.291-38.033 1.832-4.703 4.551-9.864 9.196-12.237 2.271-1.16 4.81-1.513 7.337-1.296 1.669.142 3.328.521 4.923 1.027.438.139.878.298 1.323.461-.259.197-.519.395-.775.598a76.827 76.827 0 0 0-9.33 8.74c-2.877 3.176-5.529 6.559-7.705 10.258-1.74 2.957-4.344 6.957-3.894 10.547.126 1.008 1.223 1.594 2.035.827 1.322-1.247 2.11-3.024 2.939-4.62.92-1.769 1.836-3.532 2.894-5.223 2.079-3.321 4.357-6.543 6.922-9.507a66.002 66.002 0 0 1 8.301-8.061 59.614 59.614 0 0 1 2.613-1.992c1.489 2.209 2.958 4.459 4.155 6.843 2.523 5.027 3.974 10.988 1.108 16.096-2.712 4.836-7.725 8.121-12.496 10.83z"/><path fill="#95C83D" d="M779.103 529.921c-1.28.038 17.854 4.536 10.181-3.042-8.155-8.049-8.982-26.19-23.01-27.861-7.841-.935-17.763 8.441-16.516 16.438 2.232 14.299 17.137 14.829 29.345 14.465.442-.013-6.245.186 0 0z"/><path fill="#4AA346" d="M758.091 529.029c9.157 3.515 19.416 3.007 28.928 4.998 2.22.465 4.484 1.508 6.729 1.71.173.015.335-.008.479-.063.288.072.584.111.889.106.635-.011 1.045-.702.86-1.275-.508-1.575-1.917-2.724-2.925-3.992-1.299-1.639-2.431-3.41-3.525-5.192-2.557-4.164-4.856-8.48-7.413-12.646-4.19-6.828-10.371-16.087-19.538-15.425-1.971.142-3.822.828-5.569 1.709-1.692.854-3.995 2.232-5.208 3.926-1.205-.318-2.563-.661-3.757-.398-1.022.225-.864 1.57-.146 2.009.477.29 1.05.457 1.638.588l-.039.104c-1.594 4.991-2.523 10.943-.379 15.925 1.68 3.9 5.1 6.429 8.976 7.916zm-3.275-5.994c-3.169-2.853-3.561-7.302-2.996-11.357.268-1.922.756-3.817 1.267-5.688.761.235 1.517.486 2.267.764a48.02 48.02 0 0 1 7.606 3.618c2.46 1.445 4.784 3.133 6.993 4.938 1.124.919 2.167 1.921 3.215 2.925.945.906 1.903 1.948 3.106 2.499.739.339 1.358-.322 1.209-1.046-.527-2.58-3.257-4.729-5.147-6.362-2.365-2.042-4.983-3.755-7.708-5.273a55.803 55.803 0 0 0-8.474-3.847c-.224-.08-.449-.155-.674-.231.268-.216.535-.43.804-.627.982-.722 2.037-1.37 3.154-1.858 1.691-.739 3.526-1.09 5.362-.82 3.757.552 6.837 3.475 9.199 6.29 6.137 7.317 9.759 16.322 15.288 24.052.166.231.339.479.522.735-.568-.167-1.127-.318-1.651-.465-2.395-.676-4.844-1.175-7.302-1.549-4.959-.755-9.966-1.204-14.896-2.149-3.922-.755-8.145-1.849-11.144-4.549z"/><path fill="#95C83D" d="M712.106 532.15c1.3-.181-17.254 7.65-10.806-1.322 6.853-9.532 4.57-27.998 18.452-32.097 7.759-2.292 19.393 5.473 19.507 13.764.204 14.827-14.759 17.924-27.153 19.655-.448.063 6.34-.885 0 0z"/><path fill="#4AA346" d="M740.88 518.1c1.308-5.4-.653-11.252-3.121-16.02l-.058-.098c.571-.234 1.121-.501 1.553-.875.65-.567.577-1.953-.493-2.004-1.251-.06-2.564.52-3.726 1.048-1.517-1.501-4.079-2.499-5.935-3.07-1.917-.59-3.904-.964-5.918-.769-9.374.908-14.024 11.323-17.083 18.939-1.867 4.646-3.445 9.402-5.313 14.047-.798 1.988-1.638 3.971-2.668 5.85-.8 1.455-2.025 2.857-2.268 4.535-.089.611.445 1.239 1.088 1.141.308-.048.602-.138.879-.261.155.03.323.025.495-.02 2.234-.59 4.341-2.033 6.503-2.884 9.266-3.646 19.715-4.896 28.359-10.021 3.661-2.169 6.682-5.311 7.706-9.538zm-15.901 9.429c-4.817 1.804-9.796 3.117-14.674 4.732-2.419.801-4.808 1.725-7.11 2.82-.503.239-1.042.488-1.587.754l.401-.832c4.256-8.759 6.367-18.477 11.308-26.922 1.901-3.25 4.51-6.732 8.21-7.935 1.808-.588 3.721-.549 5.556-.093 1.213.301 2.389.775 3.506 1.335.306.153.611.323.919.495-.213.116-.429.23-.641.35a57.158 57.158 0 0 0-7.898 5.342c-2.491 2.001-4.842 4.183-6.879 6.651-1.628 1.974-4.016 4.614-4.106 7.311-.025.756.713 1.318 1.402.848 1.12-.763 1.909-1.979 2.708-3.058.886-1.194 1.766-2.386 2.744-3.508 1.921-2.202 3.978-4.307 6.214-6.189a49.28 49.28 0 0 1 7.06-4.962c.71-.409 1.43-.793 2.159-1.161.837 1.801 1.656 3.631 2.257 5.527 1.267 4 1.637 8.56-1.074 11.986-2.565 3.242-6.643 5.073-10.475 6.509z"/><path fill="#95C83D" d="M1359.648 515.597c-1.67-.468 21.248 13.066 14.386.175-7.293-13.694-1.044-37.478-18.501-45.297-9.758-4.371-26.366 3.746-27.979 14.584-2.884 19.385 16.168 26.084 32.094 30.538.577.161-8.146-2.28 0 0z"/><path fill="#4AA346" d="M1332.849 505.966c10.418 8.237 23.884 11.721 35.377 18.131 2.68 1.497 5.187 3.758 8.007 4.925.219.09.437.125.645.113.344.209.711.379 1.107.496.825.243 1.634-.485 1.626-1.3-.021-2.241-1.379-4.294-2.169-6.34-1.02-2.644-1.768-5.389-2.463-8.133-1.626-6.414-2.854-12.921-4.479-19.337-2.662-10.516-6.915-24.978-19.03-27.821-2.604-.611-5.273-.472-7.889-.037-2.532.421-6.063 1.274-8.315 2.973-1.428-.898-3.045-1.889-4.695-2.031-1.412-.121-1.751 1.681-.998 2.538.498.567 1.171 1.014 1.879 1.421-.029.04-.063.078-.093.119-4.073 5.808-7.676 13.127-6.916 20.431.596 5.718 3.996 10.367 8.406 13.852zm-1.816-9.068c-2.943-4.966-1.656-10.875.71-15.889 1.123-2.377 2.517-4.63 3.933-6.841.889.611 1.765 1.24 2.621 1.901a64.97 64.97 0 0 1 8.371 7.747c2.599 2.859 4.92 5.979 7.047 9.203 1.083 1.642 2.027 3.357 2.976 5.078.855 1.553 1.675 3.285 3.007 4.484.818.736 1.885.131 1.985-.864.358-3.548-2.303-7.428-4.087-10.3-2.233-3.594-4.926-6.864-7.835-9.925a75.532 75.532 0 0 0-9.402-8.391c-.257-.194-.518-.382-.777-.571.434-.171.864-.339 1.292-.486 1.561-.537 3.186-.949 4.827-1.129 2.484-.273 4.997.014 7.261 1.103 4.633 2.229 7.437 7.25 9.352 11.842 4.981 11.933 6.031 25.034 10.059 37.257.119.366.245.755.379 1.161-.668-.445-1.33-.866-1.947-1.268-2.821-1.839-5.787-3.472-8.813-4.948-6.106-2.978-12.395-5.577-18.386-8.79-4.768-2.557-9.785-5.675-12.573-10.374z"/><path fill="#238C43" d="M350.781 950.101c1.496.336-24.821 5.462-14.087-1.698 11.406-7.605 21.782-31.387 38.639-30.167 9.422.683 16.483 12.422 13.203 21.532-5.868 16.292-23.496 13.532-37.755 10.333-.515-.116 7.294 1.636 0 0z"/><path fill="#156823" d="M388.005 946.56c3.648-5.364 3.908-12.567 3.169-18.792-.006-.045-.015-.088-.023-.132.721-.02 1.432-.086 2.057-.319.943-.351 1.435-1.896.285-2.392-1.343-.581-3.016-.485-4.504-.385-1.04-2.264-3.432-4.406-5.226-5.793-1.854-1.432-3.872-2.658-6.154-3.272-10.618-2.858-19.98 6.617-26.452 13.686-3.949 4.313-7.628 8.862-11.578 13.173-1.689 1.845-3.421 3.668-5.32 5.299-1.471 1.262-3.387 2.291-4.341 4.025-.347.632-.023 1.537.721 1.693.358.075.714.097 1.069.077.157.096.342.161.549.182 2.683.272 5.58-.439 8.293-.481 11.626-.179 23.563 2.746 35.116.694 4.89-.869 9.483-3.063 12.339-7.263zm-21.254 3.777c-6.006-.008-11.988-.616-17.985-.855-2.973-.119-5.964-.09-8.93.163-.649.055-1.34.104-2.046.171.273-.259.535-.511.781-.745 8.25-7.826 14.548-17.582 23.418-24.785 3.413-2.771 7.694-5.505 12.233-5.3 2.219.1 4.292.928 6.112 2.18 1.202.827 2.294 1.829 3.283 2.899.272.294.537.604.803.919-.282.038-.563.075-.845.118a66.91 66.91 0 0 0-10.828 2.596c-3.545 1.165-7.01 2.583-10.251 4.444-2.591 1.489-6.286 3.394-7.492 6.305-.338.818.239 1.733 1.184 1.503 1.538-.375 2.9-1.38 4.215-2.231 1.458-.941 2.912-1.882 4.44-2.706 3.005-1.618 6.118-3.075 9.335-4.213a57.336 57.336 0 0 1 9.756-2.525 51.454 51.454 0 0 1 2.836-.382c.175 2.313.319 4.649.196 6.969-.256 4.893-1.726 10.029-6.095 12.661-4.132 2.492-9.342 2.819-14.12 2.814z"/><path fill="#4AA346" d="M415.021 677.585c1.402-.602-17.013 13.865-12.526 1.825 4.769-12.791-3.446-32.807 10.87-41.655 8.003-4.946 23.431.202 26.098 9.467 4.767 16.57-11.069 24.627-24.442 30.363-.484.207 6.841-2.934 0 0z"/><path fill="#238C43" d="M442.996 653.014c-.186-6.459-4.178-12.423-8.406-17.016-.031-.032-.063-.062-.095-.093.569-.437 1.105-.905 1.475-1.458.556-.834.051-2.367-1.167-2.097-1.422.316-2.717 1.368-3.858 2.317-2.161-1.22-5.34-1.554-7.598-1.626-2.331-.075-4.674.113-6.875.949-10.236 3.888-12.264 16.995-13.363 26.476-.671 5.784-.986 11.603-1.659 17.385-.287 2.474-.621 4.955-1.202 7.379-.451 1.877-1.397 3.825-1.155 5.781.088.713.878 1.254 1.569.946.332-.148.633-.339.907-.562.183-.015.37-.07.55-.174 2.324-1.346 4.247-3.609 6.411-5.227 9.278-6.927 20.617-11.529 28.745-19.924 3.44-3.551 5.867-8.001 5.721-13.056zm-14.949 15.445c-4.852 3.497-10.034 6.495-15.013 9.802-2.469 1.639-4.865 3.407-7.112 5.34-.491.423-1.02.866-1.55 1.332l.195-1.057c2.092-11.128 1.483-22.675 4.441-33.662 1.137-4.228 2.998-8.932 6.779-11.414 1.849-1.213 4.006-1.756 6.205-1.806 1.452-.034 2.918.137 4.341.424.39.079.785.175 1.184.273-.205.196-.411.39-.612.588a66.546 66.546 0 0 0-7.224 8.411c-2.183 3.008-4.151 6.174-5.681 9.566-1.223 2.713-3.093 6.406-2.367 9.459.203.855 1.204 1.26 1.832.522 1.023-1.199 1.535-2.806 2.102-4.26.627-1.61 1.251-3.217 2.004-4.775 1.48-3.058 3.143-6.049 5.076-8.845a57.266 57.266 0 0 1 6.4-7.728 51.597 51.597 0 0 1 2.065-1.963c1.491 1.764 2.97 3.566 4.225 5.509 2.646 4.098 4.457 9.102 2.466 13.774-1.884 4.425-5.898 7.727-9.756 10.51z"/><path fill="#4AA346" d="M458.829 681.104c-1.402-.602 17.013 13.865 12.526 1.825-4.769-12.791 3.446-32.807-10.87-41.655-8.003-4.946-23.431.202-26.098 9.467-4.767 16.57 11.07 24.627 24.442 30.363.484.207-6.841-2.935 0 0z"/><path fill="#238C43" d="M436.576 669.59c8.128 8.395 19.467 12.997 28.745 19.924 2.164 1.617 4.087 3.881 6.411 5.227.18.104.367.159.55.174.274.223.575.413.907.562.691.308 1.481-.233 1.569-.946.242-1.956-.704-3.904-1.155-5.781-.581-2.424-.915-4.905-1.202-7.379-.673-5.782-.988-11.601-1.659-17.385-1.1-9.48-3.127-22.587-13.363-26.476-2.201-.836-4.544-1.024-6.875-.949-2.258.072-5.437.406-7.598 1.626-1.142-.949-2.437-2.001-3.858-2.317-1.218-.27-1.723 1.263-1.167 2.097.369.553.905 1.021 1.475 1.458l-.095.093c-4.229 4.593-8.221 10.557-8.406 17.016-.146 5.053 2.281 9.504 5.721 13.056zm-.529-8.12c-1.991-4.673-.181-9.677 2.466-13.774 1.255-1.943 2.733-3.745 4.225-5.509a51.632 51.632 0 0 1 2.065 1.963 57.192 57.192 0 0 1 6.4 7.728c1.934 2.796 3.596 5.787 5.076 8.845.753 1.559 1.377 3.165 2.004 4.775.566 1.454 1.078 3.061 2.102 4.26.628.737 1.629.333 1.832-.522.726-3.053-1.145-6.746-2.367-9.459-1.529-3.393-3.498-6.559-5.681-9.566a66.546 66.546 0 0 0-7.224-8.411c-.201-.199-.407-.393-.612-.588.398-.099.794-.195 1.184-.273 1.423-.287 2.889-.458 4.341-.424 2.199.05 4.356.593 6.205 1.806 3.781 2.482 5.643 7.187 6.779 11.414 2.958 10.987 2.35 22.534 4.441 33.662.063.333.126.688.195 1.057-.53-.466-1.059-.909-1.55-1.332-2.247-1.933-4.644-3.701-7.112-5.34-4.979-3.307-10.161-6.305-15.013-9.802-3.858-2.785-7.871-6.088-9.756-10.51z"/><path fill="#95C83D" d="M701.808 477.764c.73 1.09-14.421-12.176-3.533-10.297 11.568 1.999 27.18-8.125 36.933 2.57 5.452 5.978 3.552 19.835-3.856 23.561-13.247 6.663-22.572-5.442-29.544-15.834-.252-.375 3.566 5.316 0 0z"/><path fill="#4AA346" d="M727.019 497.505c5.429-1.184 9.836-5.505 13.046-9.807l.063-.096c.46.412.941.789 1.466 1.014.794.337 2.009-.333 1.588-1.319-.494-1.152-1.588-2.08-2.571-2.894.688-2.021.465-4.76.167-6.68-.307-1.982-.838-3.932-1.895-5.66-4.913-8.035-16.313-7.666-24.5-7.089-4.995.352-9.962 1.01-14.957 1.359-2.136.15-4.287.262-6.427.157-1.658-.083-3.455-.574-5.07-.058-.588.187-.92.941-.55 1.477.178.256.387.481.619.677.042.152.119.302.234.437 1.507 1.751 3.726 3.016 5.437 4.589 7.328 6.741 13.019 15.593 21.406 21.129 3.549 2.346 7.695 3.69 11.944 2.764zm-15.43-10.181c-3.728-3.545-7.084-7.449-10.669-11.131-1.777-1.826-3.652-3.571-5.644-5.163-.434-.348-.894-.724-1.372-1.098.324 0 .633-.003.924-.003 9.739 0 19.402-2.348 29.157-1.594 3.753.29 8.026 1.115 10.725 3.917 1.319 1.369 2.12 3.106 2.512 4.956.259 1.223.347 2.487.331 3.737-.004.342-.023.691-.043 1.043-.197-.142-.395-.286-.594-.423a57.22 57.22 0 0 0-8.257-4.77c-2.889-1.366-5.878-2.527-8.988-3.281-2.487-.602-5.905-1.596-8.371-.498-.691.308-.874 1.218-.15 1.631 1.176.674 2.615.852 3.934 1.099 1.461.275 2.917.546 4.354.936 2.82.765 5.612 1.695 8.283 2.885a49.256 49.256 0 0 1 7.548 4.182c.679.461 1.338.94 1.988 1.435-1.254 1.54-2.542 3.076-3.985 4.445-3.043 2.888-6.984 5.213-11.25 4.272-4.038-.891-7.467-3.758-10.433-6.577z"/><path fill="#95C83D" d="M1371.736 447.984c-.583 1.242 12.976-14.879 2.018-11.207-11.645 3.904-29.393-4.081-37.777 8.524-4.687 7.046-.521 21.071 7.729 23.746 14.755 4.784 22.473-9.213 28.03-21.063.202-.429-2.843 6.061 0 0z"/><path fill="#4AA346" d="M1360.718 467.645c7.791-7.056 12.27-17.112 18.774-25.246 1.52-1.896 3.611-3.558 4.892-5.607.099-.159.153-.325.172-.488.208-.241.39-.505.532-.8.297-.612-.166-1.338-.803-1.439-1.752-.276-3.531.516-5.232.865-2.196.451-4.438.676-6.67.86-5.22.431-10.46.541-15.68.97-8.557.704-20.401 2.135-24.203 11.22-.817 1.954-1.058 4.055-1.061 6.153-.002 2.032.203 4.899 1.234 6.879-.888.997-1.871 2.13-2.198 3.4-.279 1.086 1.083 1.586 1.851 1.11.508-.315.944-.782 1.355-1.281.027.028.052.059.08.088 4.002 3.938 9.244 7.707 15.044 8.068 4.543.282 8.617-1.765 11.913-4.752zm-7.317.233c-4.26 1.649-8.704-.127-12.31-2.629-1.709-1.188-3.285-2.57-4.826-3.964a46.207 46.207 0 0 1 1.826-1.797 51.364 51.364 0 0 1 7.141-5.522c2.571-1.656 5.311-3.06 8.104-4.299 1.423-.63 2.886-1.144 4.353-1.659 1.324-.465 2.783-.878 3.893-1.761.682-.543.349-1.454-.415-1.663-2.723-.743-6.099.827-8.574 1.844-3.098 1.274-6.001 2.949-8.771 4.819a59.75 59.75 0 0 0-7.778 6.244c-.186.175-.366.354-.547.532a26.291 26.291 0 0 1-.211-1.072c-.215-1.289-.324-2.61-.251-3.916.111-1.975.665-3.899 1.81-5.524 2.346-3.325 6.631-4.857 10.466-5.752 9.965-2.33 20.329-1.438 30.396-2.985l.956-.144c-.435.463-.851.925-1.245 1.354-1.804 1.962-3.466 4.064-5.013 6.233-3.123 4.378-5.973 8.947-9.264 13.204-2.618 3.386-5.706 6.895-9.74 8.457z"/></svg>